<svg width="22" height="22" viewBox="0 0 22 22" fill="none" xmlns="http://www.w3.org/2000/svg">
<path d="M12.6497 11.1808L5.74535 12.3321C5.66597 12.3453 5.59148 12.3793 5.52937 12.4304C5.46726 12.4816 5.41971 12.5482 5.39152 12.6236L3.01002 19.0008C2.78268 19.5875 3.39593 20.1467 3.95877 19.8653L20.4588 11.6153C20.5731 11.5582 20.6692 11.4704 20.7364 11.3618C20.8036 11.2531 20.8391 11.1279 20.8391 11.0002C20.8391 10.8724 20.8036 10.7472 20.7364 10.6386C20.6692 10.5299 20.5731 10.4422 20.4588 10.3851L3.95877 2.13509C3.39593 1.85367 2.78268 2.41284 3.01002 2.99951L5.39243 9.37676C5.4205 9.4523 5.46799 9.51911 5.53011 9.57045C5.59223 9.62179 5.66679 9.65584 5.74627 9.66917L12.6506 10.8196C12.6931 10.827 12.7316 10.8492 12.7593 10.8823C12.7871 10.9153 12.8023 10.957 12.8023 11.0002C12.8023 11.0433 12.7871 11.0851 12.7593 11.1181C12.7316 11.1511 12.6931 11.1733 12.6506 11.1808H12.6497Z" fill="white"/>
</svg>
