<svg width="15" height="14" viewBox="0 0 15 14" fill="none" xmlns="http://www.w3.org/2000/svg">
<path fill-rule="evenodd" clip-rule="evenodd" d="M5.83111 1.649H10.2285C10.4471 1.649 10.6568 1.56214 10.8115 1.40751C10.9661 1.25289 11.053 1.04317 11.053 0.824502C11.053 0.605831 10.9661 0.396115 10.8115 0.241491C10.6568 0.086867 10.4471 0 10.2285 0H5.83111C5.61244 0 5.40272 0.086867 5.2481 0.241491C5.09347 0.396115 5.00661 0.605831 5.00661 0.824502C5.00661 1.04317 5.09347 1.25289 5.2481 1.40751C5.40272 1.56214 5.61244 1.649 5.83111 1.649ZM13.5595 3.60588L12.8504 4.31495C13.7745 5.53427 14.2012 7.05892 14.0444 8.58078C13.8876 10.1026 13.159 11.5082 12.0057 12.5135C10.8524 13.5188 9.36053 14.0489 7.83151 13.9965C6.30248 13.9442 4.85034 13.3133 3.76852 12.2315C2.68671 11.1497 2.05589 9.69757 2.00354 8.16854C1.95119 6.63952 2.48122 5.14763 3.48651 3.99436C4.49181 2.84109 5.89741 2.11243 7.41927 1.95563C8.94113 1.79883 10.4658 2.22559 11.6851 3.14965L12.3942 2.44058C12.4697 2.35957 12.5607 2.2946 12.6618 2.24954C12.763 2.20447 12.8721 2.18024 12.9828 2.17829C13.0936 2.17633 13.2035 2.1967 13.3062 2.23817C13.4088 2.27964 13.5021 2.34136 13.5804 2.41965C13.6587 2.49794 13.7204 2.5912 13.7619 2.69387C13.8034 2.79653 13.8237 2.9065 13.8218 3.01721C13.8198 3.12791 13.7956 3.23709 13.7505 3.33823C13.7055 3.43937 13.6405 3.53039 13.5595 3.60588ZM7.48014 5.2219V7.97024C7.48014 8.11602 7.53805 8.25583 7.64113 8.35892C7.74422 8.462 7.88403 8.51991 8.02981 8.51991C8.17559 8.51991 8.3154 8.462 8.41848 8.35892C8.52157 8.25583 8.57948 8.11602 8.57948 7.97024V5.2219C8.57948 5.07612 8.52157 4.93631 8.41848 4.83323C8.3154 4.73014 8.17559 4.67223 8.02981 4.67223C7.88403 4.67223 7.74422 4.73014 7.64113 4.83323C7.53805 4.93631 7.48014 5.07612 7.48014 5.2219Z" fill="#FF8620"/>
</svg>
