<svg width="18" height="18" viewBox="0 0 18 18" fill="none" xmlns="http://www.w3.org/2000/svg">
<path d="M9.07933 14.2005C9.16362 14.2005 9.2494 14.1951 9.33566 14.1845C10.1636 14.0807 10.8666 13.4767 11.1261 12.6444C11.1457 12.5822 11.1174 12.5155 11.0603 12.4881C11.0038 12.4607 10.9355 12.4844 10.9036 12.5402C10.9005 12.5456 10.5716 13.1001 9.29101 13.2806C9.09933 13.3075 8.9128 13.3216 8.73601 13.3216C7.83881 13.321 7.43897 12.968 7.43536 12.9648C7.39022 12.9229 7.32133 12.9218 7.275 12.9626C7.2283 13.0034 7.21753 13.0744 7.24936 13.1286C7.63996 13.7895 8.34076 14.2005 9.07933 14.2005ZM15.965 5.91736C15.9536 5.91736 15.9433 5.9195 15.9326 5.9195C15.1823 2.52907 12.3152 0 8.87785 0C5.34589 0 2.41304 2.66879 1.76306 6.19948C1.131 6.31819 0.649902 6.89796 0.649902 7.59921V10.4056C0.649902 11.1921 1.25425 11.8299 2.00045 11.8299C2.42136 11.8299 2.79288 11.6225 3.04 11.3039C3.63718 12.9524 4.85291 14.2816 6.39145 14.9828C6.39514 14.9745 6.42425 14.9153 6.45927 14.8682C6.48355 14.8356 6.51069 14.8088 6.53394 14.8088C6.55814 14.8088 6.58023 14.8179 6.59916 14.8319C6.24308 14.5552 4.95691 13.1329 4.67829 11.1481C4.556 10.2744 5.18296 9.41682 5.91313 9.27503C7.08533 9.04715 8.25142 8.78769 9.42362 8.56421C10.1687 8.4223 10.678 7.99574 10.9894 7.28541C11.0623 7.11934 11.1677 6.78355 11.216 6.29939C11.2289 6.22739 11.2854 6.1721 11.3579 6.1721C11.4063 6.1721 11.4474 6.19785 11.4746 6.23503L11.5069 6.21399C11.9689 6.91409 12.8852 8.46419 13.0168 10.0987C13.1678 11.9675 13.0835 13.2474 11.7131 14.5568C11.7115 14.5584 11.7094 14.5605 11.7074 14.5622C11.6883 14.5836 11.6771 14.6116 11.6771 14.6422C11.6771 14.6825 11.6976 14.7169 11.7274 14.7378C11.7387 14.7427 11.75 14.7492 11.7614 14.7541C11.7706 14.7562 11.7794 14.7593 11.7886 14.7593C11.7979 14.7593 11.8061 14.7562 11.8143 14.7541C11.8338 14.7433 11.8523 14.7309 11.8713 14.7202C13.2573 13.9232 14.3205 12.5924 14.8118 10.9917C15.0107 11.3001 15.3221 11.5221 15.6838 11.5995C15.1037 14.3537 12.7501 16.0774 9.83427 16.3391C9.65952 15.8866 9.22942 15.5653 8.72424 15.5653C8.06445 15.5653 7.52943 16.1108 7.52943 16.7829C7.52943 17.455 8.06437 17.9998 8.72424 17.9998C9.25614 17.9998 9.7017 17.6431 9.8563 17.1531C13.2316 16.8666 15.9372 14.7727 16.502 11.5194C17.001 11.3017 17.3514 10.7908 17.3514 10.1943V7.35476C17.3514 6.56108 16.7306 5.91736 15.965 5.91736ZM14.7198 6.733C13.8395 4.24419 11.5583 2.46623 8.87481 2.46623C6.20247 2.46623 3.92954 4.2291 3.04107 6.70185C2.99681 6.64537 2.94502 6.59704 2.89412 6.54821C3.39715 3.53491 5.88183 1.24383 8.87783 1.24383C11.8595 1.24383 14.3364 3.51239 14.856 6.50468C14.8046 6.57668 14.7573 6.65187 14.7198 6.733ZM6.39171 14.9828H6.39147C6.39096 14.9841 6.39096 14.9842 6.39171 14.9828Z" fill="white"/>
</svg>
