<svg width="37" height="36" viewBox="0 0 37 36" fill="none" xmlns="http://www.w3.org/2000/svg">
<path d="M34.9571 14.3331C34.9571 14.628 34.7831 14.9494 34.4351 15.2974L27.1426 22.41L28.8706 32.454C28.8843 32.5483 28.8911 32.682 28.8911 32.8551C28.8911 33.1363 28.8208 33.3737 28.6803 33.5674C28.5397 33.7611 28.3357 33.858 28.0683 33.858C27.8146 33.858 27.5471 33.7774 27.266 33.6163L18.2454 28.8745L9.22484 33.6163C8.92998 33.7774 8.66255 33.858 8.42255 33.858C8.14141 33.858 7.93055 33.7611 7.78998 33.5674C7.64941 33.3737 7.57912 33.1363 7.57912 32.8551C7.57912 32.7746 7.59283 32.6408 7.62026 32.454L9.34826 22.41L2.03512 15.2974C1.70083 14.9357 1.53369 14.6143 1.53369 14.3331C1.53369 13.8377 1.90912 13.53 2.65998 13.41L12.7451 11.9443L17.2657 2.80284C17.5194 2.25427 17.8477 1.97998 18.2505 1.97998C18.6534 1.97998 18.9817 2.25427 19.2354 2.80284L23.756 11.9443L33.8411 13.41C34.592 13.53 34.9674 13.8377 34.9674 14.3331H34.9571Z" fill="#D9D9DA"/>
</svg>
