<svg width="140" height="140" viewBox="0 0 140 140" fill="none" xmlns="http://www.w3.org/2000/svg">
<g clip-path="url(#clip0_649_8522)">
<path d="M70.013 140.227C108.226 140.227 139.204 109.249 139.204 71.0364C139.204 32.8234 108.226 1.8457 70.013 1.8457C31.8 1.8457 0.822266 32.8234 0.822266 71.0364C0.822266 109.249 31.8 140.227 70.013 140.227Z" fill="url(#paint0_linear_649_8522)"/>
<path d="M138.825 79.8311C131.193 76.4954 121.287 74.9034 115.071 77.2282C109.258 79.4015 110.194 83.7228 104.23 85.517C94.6016 88.3978 87.9302 78.416 73.6018 78.8708C60.8401 79.3004 56.4178 87.5134 46.7897 85.517C40.7753 84.2535 39.6381 80.4629 35.3674 77.7842C28.1906 73.286 14.4434 73.3366 1.20166 75.9142C2.41465 93.2245 9.97054 108.791 21.595 120.264C34.6599 122.69 48.8872 123.979 62.7354 123.448C87.0962 122.538 111.76 116.019 128.54 108.235C133.897 99.8454 137.511 90.192 138.825 79.8311Z" fill="url(#paint1_linear_649_8522)"/>
<path d="M42.6704 29.8205H28.62C27.8114 29.8205 27.0532 29.5172 26.472 29.0371C25.7644 28.4306 25.3096 27.5208 25.3096 26.51C25.3096 25.6003 25.6886 24.7664 26.2951 24.1599C26.9016 23.5534 27.7355 23.1743 28.6453 23.1743H42.6957C43.6054 23.1743 44.4394 23.5534 45.0459 24.1599C45.6524 24.7664 46.0314 25.6003 46.0314 26.51C46.0314 27.4198 45.6524 28.2537 45.0459 28.8602C44.4141 29.4667 43.5802 29.8205 42.6704 29.8205Z" fill="#D8E2F4"/>
<path d="M39.3301 25.4222C39.9737 22.7204 38.3051 20.0085 35.6033 19.365C32.9015 18.7215 30.1896 20.39 29.546 23.0918C28.9025 25.7936 30.5711 28.5056 33.2729 29.1491C35.9747 29.7926 38.6866 28.124 39.3301 25.4222Z" fill="#D8E2F4"/>
<path d="M108.475 19.207H83.9372C82.3199 19.207 80.8795 18.5499 79.8181 17.5138C78.7568 16.4525 78.125 15.0121 78.125 13.3947C78.125 12.2576 78.4535 11.1709 79.0347 10.2865C80.0708 8.66915 81.8903 7.58252 83.9372 7.58252H108.475C110.092 7.58252 111.533 8.23955 112.594 9.27564C113.655 10.3117 114.287 11.7774 114.287 13.3947C114.287 14.8857 113.731 16.2503 112.796 17.2864C111.735 18.4741 110.193 19.207 108.475 19.207Z" fill="white"/>
<path d="M100.337 15.7089C103.781 12.2647 103.781 6.68061 100.337 3.23645C96.8924 -0.207713 91.3083 -0.207714 87.8641 3.23645C84.42 6.68061 84.42 12.2647 87.8641 15.7089C91.3083 19.153 96.8924 19.153 100.337 15.7089Z" fill="white"/>
<path d="M91.4902 114.08H48.6313V33.7999C48.6313 29.8324 51.8407 26.623 55.8082 26.623H84.2881C88.2556 26.623 91.4649 29.8324 91.4649 33.7999V114.08H91.4902Z" fill="white"/>
<path d="M91.4905 115.554C91.0609 115.554 90.7324 115.225 90.7324 114.796V33.8002C90.7324 30.2623 87.8515 27.3815 84.3137 27.3815H55.8085C52.2706 27.3815 49.3898 30.2623 49.3898 33.8002V112.117C49.3898 112.547 49.0613 112.875 48.6317 112.875C48.2021 112.875 47.8735 112.547 47.8735 112.117V33.8002C47.8735 29.4284 51.4367 25.8652 55.8085 25.8652H84.2884C88.6602 25.8652 92.2233 29.4284 92.2233 33.8002V114.796C92.2486 115.2 91.8948 115.554 91.4905 115.554Z" fill="#E0E9F3"/>
<path d="M56.0867 32.461C56.0867 33.2444 55.4549 33.8762 54.6715 33.8762C53.8881 33.8762 53.2563 33.2444 53.2563 32.461C53.2563 31.6777 53.8881 31.0459 54.6715 31.0459C55.4549 31.0712 56.0867 31.6777 56.0867 32.461Z" fill="#E0E9F3"/>
<path d="M100.678 61.6394H75.2673C74.1677 61.6394 73.2749 60.7544 73.2749 59.6644V39.9677C73.2749 38.8777 74.1677 37.9927 75.2673 37.9927H100.678C101.778 37.9927 102.671 38.8777 102.671 39.9677V59.6644C102.671 60.7436 101.778 61.6394 100.678 61.6394Z" fill="#2753CF"/>
<path d="M96.9225 58.7254H67.9078C66.6557 58.7254 65.6323 57.7109 65.6323 56.4698V33.9778C65.6323 32.7367 66.6557 31.7222 67.9078 31.7222H96.9225C98.1745 31.7222 99.1979 32.7367 99.1979 33.9778V56.4698C99.1979 57.7109 98.1745 58.7254 96.9225 58.7254Z" fill="white"/>
<path d="M83.0388 54.7277C88.6828 54.3302 92.933 49.4723 92.532 43.8774C92.131 38.2825 87.2305 34.0692 81.5865 34.4667C75.9425 34.8643 71.6923 39.7221 72.0933 45.317C72.4943 50.912 77.3948 55.1253 83.0388 54.7277Z" fill="#FFCCAB"/>
<path d="M82.7591 51.4123C86.5618 51.2512 89.5128 48.0647 89.3503 44.295C89.1878 40.5253 85.9734 37.6 82.1706 37.7611C78.3679 37.9221 75.4169 41.1087 75.5794 44.8783C75.7419 48.648 78.9564 51.5734 82.7591 51.4123Z" fill="#F9A56E"/>
<path d="M82.0943 47.9431C81.3649 47.8783 80.6245 47.5329 80.1455 47.0904L80.5701 46.4429C81.0709 46.853 81.648 47.1876 82.3447 47.1876C83.194 47.1768 83.6077 46.7127 83.5968 46.0112C83.575 44.1764 80.3959 44.6081 80.3741 42.3956C80.3633 41.3919 81.0165 40.658 82.0072 40.4961L81.9964 39.3521L82.6823 39.3413L82.6931 40.4637C83.4226 40.5393 83.9125 40.8847 84.3262 41.3056L83.8254 41.8668C83.4008 41.4675 83.0415 41.23 82.421 41.2408C81.7242 41.2516 81.2887 41.6833 81.2887 42.3417C81.3105 43.9822 84.4896 43.4965 84.5113 45.9356C84.5222 47.0149 83.8472 47.7704 82.7585 47.9215L82.7694 49.0655L82.0834 49.0763L82.0943 47.9431Z" fill="white"/>
<path fill-rule="evenodd" clip-rule="evenodd" d="M76.3784 39.0822C76.2042 39.611 75.9212 40.2046 75.4966 40.5392C75.3115 40.6795 75.3441 40.9601 75.5401 41.0788C75.9321 41.3055 76.4438 41.6724 76.8248 42.1797C76.9881 42.3955 77.3256 42.3416 77.4127 42.0826C77.5434 41.6724 77.7938 41.176 78.2293 40.7119C78.3817 40.5608 78.3382 40.3018 78.1422 40.2046C77.8047 40.0212 77.3365 39.665 76.9881 39.0282C76.8575 38.7692 76.4764 38.8016 76.3784 39.0822Z" fill="white"/>
<path d="M65.756 44.6089C51.4765 46.199 38.8533 56.0421 34.5206 70.5604C33.4832 74.0344 32.9863 77.543 32.9863 80.9911" stroke="#4A476B" stroke-width="0.649656" stroke-miterlimit="10" stroke-linecap="round" stroke-linejoin="round"/>
<path d="M36.22 76.9756L33.1715 81.7567L29.644 77.0727" stroke="#4A476B" stroke-width="0.811343" stroke-miterlimit="10" stroke-linecap="round" stroke-linejoin="round"/>
<path d="M49.0478 120.355H24.6166C20.8169 120.355 17.7358 117.301 17.7358 113.534V96.05C17.7358 92.2833 20.8169 89.229 24.6166 89.229H49.0478C52.8474 89.229 55.9285 92.2833 55.9285 96.05V113.534C55.9285 117.301 52.8474 120.355 49.0478 120.355Z" fill="#14336D"/>
<path d="M43.2994 120.355H20.9042C16.5384 120.355 13 116.858 13 112.53V97.0533C13 92.7254 16.5384 89.2178 20.9042 89.2178H43.2994C47.6652 89.2178 51.2036 92.7254 51.2036 97.0533V112.519C51.1927 116.858 47.6543 120.355 43.2994 120.355Z" fill="url(#paint2_linear_649_8522)"/>
<path d="M55.9723 108.602H49.0371C47.8721 108.602 46.9141 107.652 46.9141 106.497V104.759C46.9141 103.605 47.8721 102.655 49.0371 102.655H55.9832C57.1481 102.655 58.1062 103.605 58.1062 104.759V106.497C58.0953 107.663 57.1373 108.602 55.9723 108.602Z" fill="#6F87DB"/>
<path d="M49.2114 106.573C49.7345 106.573 50.1586 106.152 50.1586 105.634C50.1586 105.115 49.7345 104.695 49.2114 104.695C48.6882 104.695 48.2642 105.115 48.2642 105.634C48.2642 106.152 48.6882 106.573 49.2114 106.573Z" fill="#3A4266"/>
<path d="M114.277 65.6001H71.8597C70.2919 65.6001 69.0181 66.8628 69.0181 68.417V92.1501C69.0181 93.7042 70.2919 94.967 71.8597 94.967H114.277C115.844 94.967 117.118 93.7042 117.118 92.1501V68.417C117.118 66.8736 115.844 65.6001 114.277 65.6001Z" fill="#14336D"/>
<path d="M112.448 94.967H70.0306C68.4628 94.967 67.189 93.7042 67.189 92.1501V68.417C67.189 66.8628 68.4628 65.6001 70.0306 65.6001H112.448C114.015 65.6001 115.289 66.8628 115.289 68.417V92.1501C115.289 93.7042 114.015 94.967 112.448 94.967Z" fill="#C2DAFF"/>
<path d="M75.1148 77.6559C77.3035 77.6559 79.0778 75.897 79.0778 73.7274C79.0778 71.5577 77.3035 69.7988 75.1148 69.7988C72.9261 69.7988 71.1519 71.5577 71.1519 73.7274C71.1519 75.897 72.9261 77.6559 75.1148 77.6559Z" fill="#2753CF"/>
<path d="M108.071 81.6596H100.297C98.8817 81.6596 97.7168 80.5048 97.7168 79.1018V76.2957C97.7168 74.8926 98.8817 73.7378 100.297 73.7378H108.071C109.486 73.7378 110.651 74.8926 110.651 76.2957V79.1018C110.651 80.5048 109.497 81.6596 108.071 81.6596Z" fill="#2753CF"/>
<path d="M83.9008 91.7614H71.6199C71.3695 91.7614 71.1626 91.5563 71.1626 91.3081V90.9303C71.1626 90.6821 71.3695 90.4771 71.6199 90.4771H83.9008C84.1512 90.4771 84.358 90.6821 84.358 90.9303V91.3081C84.358 91.5563 84.1512 91.7614 83.9008 91.7614Z" fill="white"/>
<path d="M110.194 91.7619H97.9128C97.6624 91.7619 97.4556 91.5568 97.4556 91.3086V90.9308C97.4556 90.6826 97.6624 90.4775 97.9128 90.4775H110.194C110.444 90.4775 110.651 90.6826 110.651 90.9308V91.3086C110.651 91.5568 110.444 91.7619 110.194 91.7619Z" fill="white"/>
<path d="M110.194 71.007H97.9128C97.6624 71.007 97.4556 70.8019 97.4556 70.5537V70.1759C97.4556 69.9277 97.6624 69.7227 97.9128 69.7227H110.194C110.444 69.7227 110.651 69.9277 110.651 70.1759V70.5537C110.651 70.8019 110.444 71.007 110.194 71.007Z" fill="white"/>
<path d="M78.1524 87.5634H72.0773C71.5656 87.5634 71.1519 87.1533 71.1519 86.646V85.8905C71.1519 85.3833 71.5656 84.9731 72.0773 84.9731H78.1524C78.6641 84.9731 79.0778 85.3833 79.0778 85.8905V86.646C79.0778 87.1533 78.6532 87.5634 78.1524 87.5634Z" fill="white"/>
<path d="M88.7237 87.5634H82.6486C82.1369 87.5634 81.7231 87.1533 81.7231 86.646V85.8905C81.7231 85.3833 82.1369 84.9731 82.6486 84.9731H88.7237C89.2354 84.9731 89.6491 85.3833 89.6491 85.8905V86.646C89.6491 87.1533 89.2245 87.5634 88.7237 87.5634Z" fill="white"/>
<path d="M99.2955 87.5634H93.2203C92.7086 87.5634 92.2949 87.1533 92.2949 86.646V85.8905C92.2949 85.3833 92.7086 84.9731 93.2203 84.9731H99.2955C99.8072 84.9731 100.221 85.3833 100.221 85.8905V86.646C100.221 87.1533 99.8072 87.5634 99.2955 87.5634Z" fill="white"/>
<path d="M109.867 87.5634H103.792C103.28 87.5634 102.867 87.1533 102.867 86.646V85.8905C102.867 85.3833 103.28 84.9731 103.792 84.9731H109.867C110.379 84.9731 110.793 85.3833 110.793 85.8905V86.646C110.793 87.1533 110.379 87.5634 109.867 87.5634Z" fill="white"/>
<path d="M125.162 115.329H106.327V119.581H125.162V115.329Z" fill="#FFAB66"/>
<path d="M124.476 115.329H117.486V119.581H124.476V115.329Z" fill="#EB9149"/>
<path d="M116.833 115.329H113.904V119.581H116.833V115.329Z" fill="#F79F59"/>
<path d="M109.571 115.329H107.96V119.581H109.571V115.329Z" fill="#FFC18F"/>
<path d="M125.162 118.955H106.327V119.581H125.162V118.955Z" fill="#D67B2F"/>
<path d="M125.162 111.195H106.327V115.447H125.162V111.195Z" fill="#FFAB66"/>
<path d="M124.476 111.195H117.486V115.447H124.476V111.195Z" fill="#EB9149"/>
<path d="M116.833 111.195H113.904V115.447H116.833V111.195Z" fill="#F79F59"/>
<path d="M109.571 111.195H107.96V115.447H109.571V111.195Z" fill="#FFC18F"/>
<path d="M125.162 114.821H106.327V115.447H125.162V114.821Z" fill="#D67B2F"/>
<path d="M123.91 107.061H105.075V111.313H123.91V107.061Z" fill="#FFAB66"/>
<path d="M123.213 107.061H116.223V111.313H123.213V107.061Z" fill="#EB9149"/>
<path d="M115.57 107.061H112.642V111.313H115.57V107.061Z" fill="#F79F59"/>
<path d="M108.319 107.061H106.708V111.313H108.319V107.061Z" fill="#FFC18F"/>
<path d="M123.91 110.688H105.075V111.313H123.91V110.688Z" fill="#D67B2F"/>
<path d="M112.839 73.2305C115.689 73.2305 118 70.9401 118 68.1148C118 65.2894 115.689 62.999 112.839 62.999C109.989 62.999 107.679 65.2894 107.679 68.1148C107.679 70.9401 109.989 73.2305 112.839 73.2305Z" fill="#F9A56E"/>
<path d="M110.607 67.4241L112.839 69.8956L115.616 66.0103" stroke="white" stroke-width="0.520555" stroke-miterlimit="10" stroke-linecap="round" stroke-linejoin="round"/>
<path d="M99.5307 117.98C99.5307 118.489 96.7634 118.885 93.3398 118.885C89.9163 118.885 87.1489 118.489 87.1489 117.98C87.1489 117.471 89.9163 117.075 93.3398 117.075C96.7634 117.075 99.5307 117.471 99.5307 117.98Z" fill="#D0DFF3"/>
<path d="M84.9523 90.5756C84.7241 91.6503 86.0364 91.8765 86.2647 93.3755C86.4929 94.8744 85.8367 95.2986 86.0364 96.1753C86.2361 97.0521 87.5485 97.25 87.7767 99.3994C88.005 101.549 87.1206 101.323 87.3488 102.624C87.577 103.924 88.8609 103.924 89.0891 104.999C89.3173 106.074 89.3173 107.573 89.7453 108.874C90.1732 110.175 91.4856 112.098 92.1417 112.098C92.7979 112.098 94.5382 108.45 94.0818 107.375C93.6538 106.3 92.9976 106.074 92.9976 105.225C92.9976 104.377 93.8535 102.228 93.6538 100.729C93.4256 99.2297 91.4856 98.5793 91.2573 97.5046C91.0291 96.4299 91.6853 93.63 90.1732 92.3573C88.6326 90.9998 85.1806 89.5009 84.9523 90.5756Z" fill="#3FB790"/>
<path d="M91.9987 111.674C91.9416 111.674 91.8846 111.617 91.8846 111.561C91.8846 111.532 91.8561 108.732 91.0287 107.912C90.2013 107.092 89.7163 104.547 89.4881 99.6823C89.2884 95.2704 86.0931 91.6221 86.036 91.5938C86.0075 91.5372 86.0075 91.4806 86.036 91.4524C86.0931 91.4241 86.1502 91.4241 86.1787 91.4524C86.2072 91.4806 89.4596 95.1855 89.6593 99.6823C89.8875 104.434 90.3725 107.007 91.1428 107.771C92.0272 108.648 92.0558 111.447 92.0558 111.561C92.1128 111.645 92.0558 111.674 91.9987 111.674Z" fill="#34916F"/>
<path d="M104.78 93.828C105.55 94.5916 103.04 94.9027 102.84 96.4016C102.612 97.9005 102.612 98.551 101.756 99.3994C100.9 100.248 99.5876 100.474 99.8158 101.775C100.044 103.076 100.472 104.349 99.8158 104.999C99.1596 105.65 97.6476 105.65 97.2196 106.724C96.7917 107.799 96.9914 109.1 96.1355 110.146C95.2796 111.221 93.9672 113.371 92.8831 112.946C91.799 112.522 92.4552 107.573 92.8831 106.724C93.3111 105.876 93.739 105.225 93.739 104.575C93.739 103.924 93.5108 102.85 93.9672 101.775C94.3952 100.7 96.7917 100.276 96.9914 99.6257C97.1911 98.9752 97.4193 95.5531 98.7317 94.6764C100.015 93.828 103.496 92.5553 104.78 93.828Z" fill="#4FC7A0"/>
<path d="M93.1976 112.578C93.1691 112.578 93.1691 112.578 93.1405 112.55C93.0835 112.522 93.0835 112.465 93.112 112.409C93.112 112.38 93.9964 110.966 94.1676 110.231C94.2247 110.033 94.2817 109.75 94.3388 109.439C94.567 108.251 94.9379 106.441 95.5085 105.904C96.3073 105.112 97.6197 102.652 98.5041 99.5124C99.6167 95.6378 103.297 94.5065 103.354 94.5065C103.411 94.4783 103.468 94.5348 103.497 94.5914C103.525 94.648 103.468 94.7045 103.411 94.7328C103.383 94.7328 99.7879 95.8358 98.7323 99.5972C97.8194 102.765 96.507 105.254 95.6797 106.074C95.1661 106.583 94.7952 108.421 94.567 109.496C94.5099 109.835 94.4529 110.118 94.3958 110.316C94.1961 111.08 93.3402 112.494 93.3117 112.55C93.2832 112.55 93.2547 112.578 93.1976 112.578Z" fill="#3FB690"/>
<path d="M92.9409 96.2882C90.3447 96.5145 91.2006 104.235 91.2006 104.235C91.8567 110.881 92.7126 113.908 93.3688 114.106C94.025 114.332 95.3088 104.66 95.3088 102.284C95.3088 102.312 95.537 96.062 92.9409 96.2882Z" fill="#90DAD8"/>
<path d="M93.2545 113.031C93.1689 113.031 93.1403 112.975 93.1403 112.918C93.9962 105.932 92.9406 97.1369 92.9121 97.0521C92.9121 96.9955 92.9406 96.939 92.9977 96.939C93.0548 96.939 93.1118 96.9673 93.1118 97.0238C93.1118 97.1087 94.1959 105.932 93.3401 112.946C93.3686 113.003 93.3115 113.031 93.2545 113.031Z" fill="white"/>
<path d="M96.4782 117.924H89.8879C89.6596 117.924 89.4884 117.783 89.4599 117.613L88.4899 110.825C88.4329 110.514 88.6896 110.26 89.0034 110.26H97.3626C97.6764 110.26 97.9046 110.543 97.8761 110.825L96.9061 117.613C96.8776 117.783 96.7064 117.924 96.4782 117.924Z" fill="#D0DAED"/>
</g>
<defs>
<linearGradient id="paint0_linear_649_8522" x1="70.0025" y1="126.472" x2="70.0025" y2="-11.8885" gradientUnits="userSpaceOnUse">
<stop stop-color="#FEFEFD"/>
<stop offset="1" stop-color="#EBF3FF"/>
</linearGradient>
<linearGradient id="paint1_linear_649_8522" x1="70.0029" y1="121.113" x2="70.0029" y2="81.5517" gradientUnits="userSpaceOnUse">
<stop stop-color="#FEFEFD"/>
<stop offset="0.8395" stop-color="#EBF3FF"/>
</linearGradient>
<linearGradient id="paint2_linear_649_8522" x1="12.9992" y1="104.772" x2="51.2016" y2="104.772" gradientUnits="userSpaceOnUse">
<stop stop-color="#3162DF"/>
<stop offset="0.9649" stop-color="#173DB8"/>
</linearGradient>
<clipPath id="clip0_649_8522">
<rect width="140" height="140" fill="white"/>
</clipPath>
</defs>
</svg>
