<svg width="140" height="140" viewBox="0 0 140 140" fill="none" xmlns="http://www.w3.org/2000/svg">
<g clip-path="url(#clip0_521_7285)">
<path d="M70.0128 140.026C108.68 140.026 140.026 108.68 140.026 70.0128C140.026 31.3458 108.68 0 70.0128 0C31.3458 0 0 31.3458 0 70.0128C0 108.68 31.3458 140.026 70.0128 140.026Z" fill="url(#paint0_linear_521_7285)"/>
<path d="M139.642 78.9113C131.92 75.5359 121.896 73.925 115.606 76.2775C109.724 78.4766 110.671 82.8492 104.636 84.6647C94.8934 87.5798 88.1427 77.4793 73.6441 77.9396C60.7308 78.3743 56.2559 86.6848 46.5135 84.6647C40.4276 83.3862 39.2769 79.5506 34.9555 76.8401C27.6934 72.2885 13.7829 72.3396 0.383789 74.9478C1.61119 92.4638 9.25685 108.215 21.0194 119.825C34.2395 122.279 48.6358 123.583 62.6486 123.046C87.2989 122.126 112.256 115.529 129.235 107.653C134.656 99.1378 138.313 89.3953 139.642 78.9113Z" fill="url(#paint1_linear_521_7285)"/>
<path d="M119.058 39.8134H102.13C101.132 39.8134 100.237 39.4554 99.547 38.8673C98.6776 38.1257 98.1406 37.0262 98.1406 35.7988C98.1406 34.6992 98.6009 33.702 99.3169 32.9604C100.033 32.2445 101.056 31.7842 102.155 31.7842H119.083C120.183 31.7842 121.18 32.2445 121.921 32.9604C122.637 33.6764 123.098 34.6992 123.098 35.7988C123.098 36.8983 122.637 37.8956 121.921 38.6371C121.18 39.3531 120.183 39.8134 119.058 39.8134Z" fill="#D8E2F4"/>
<path d="M115.068 34.5162C115.855 31.2485 113.845 27.9612 110.577 27.1736C107.309 26.3861 104.022 28.3967 103.235 31.6644C102.447 34.9321 104.458 38.2195 107.725 39.007C110.993 39.7945 114.28 37.7839 115.068 34.5162Z" fill="#D8E2F4"/>
<path d="M40.4786 30.0965H15.6493C14.0128 30.0965 12.5553 29.4317 11.4813 28.3833C10.4073 27.3093 9.76807 25.8518 9.76807 24.2153C9.76807 23.0646 10.1005 21.965 10.6886 21.0701C11.7114 19.4335 13.5525 18.334 15.6493 18.334H40.4786C42.1151 18.334 43.5726 18.9988 44.6466 20.0472C45.7206 21.1212 46.3599 22.5787 46.3599 24.2153C46.3599 25.7239 45.7973 27.1048 44.8512 28.1532C43.7772 29.355 42.2174 30.0965 40.4786 30.0965Z" fill="white"/>
<path d="M25.9286 29.1506C30.8573 29.1506 34.8528 25.1551 34.8528 20.2264C34.8528 15.2977 30.8573 11.3022 25.9286 11.3022C20.9999 11.3022 17.0044 15.2977 17.0044 20.2264C17.0044 25.1551 20.9999 29.1506 25.9286 29.1506Z" fill="white"/>
<path d="M116.091 124.223C116.091 124.836 95.4555 125.322 70.0126 125.322C44.5697 125.322 23.9341 124.836 23.9341 124.223C23.9341 123.609 44.5697 123.123 70.0126 123.123C95.4811 123.123 116.091 123.609 116.091 124.223Z" fill="url(#paint2_radial_521_7285)"/>
<path d="M103.357 99.2403C103.153 100.212 104.329 100.417 104.534 101.772C104.738 103.127 104.15 103.511 104.329 104.303C104.534 105.07 105.684 105.275 105.889 107.218C106.093 109.162 105.301 108.957 105.505 110.133C105.71 111.31 106.86 111.31 107.065 112.281C107.27 113.253 107.27 114.608 107.653 115.785C108.037 116.961 109.213 118.7 109.801 118.7C110.389 118.7 111.949 115.401 111.54 114.429C111.156 113.458 110.568 113.253 110.568 112.486C110.568 111.719 111.335 109.775 111.156 108.42C110.952 107.065 109.213 106.477 109.008 105.505C108.804 104.533 109.392 102.002 108.037 100.851C106.656 99.6494 103.562 98.2686 103.357 99.2403Z" fill="#3FB790"/>
<path d="M109.673 118.342C109.622 118.342 109.571 118.291 109.571 118.24C109.571 118.214 109.545 115.682 108.804 114.941C108.062 114.199 107.627 111.898 107.423 107.5C107.244 103.511 104.38 100.212 104.329 100.187C104.303 100.135 104.303 100.084 104.329 100.059C104.38 100.033 104.431 100.033 104.457 100.059C104.482 100.084 107.397 103.434 107.576 107.5C107.781 111.796 108.216 114.123 108.906 114.813C109.699 115.606 109.724 118.137 109.724 118.24C109.775 118.291 109.724 118.342 109.673 118.342Z" fill="#34916F"/>
<path d="M121.129 102.181C121.819 102.871 119.569 103.152 119.39 104.508C119.185 105.863 119.185 106.451 118.418 107.218C117.651 107.985 116.475 108.19 116.68 109.366C116.884 110.542 117.268 111.693 116.68 112.281C116.091 112.869 114.736 112.869 114.353 113.841C113.969 114.813 114.148 115.989 113.381 116.935C112.614 117.907 111.438 119.85 110.466 119.466C109.494 119.083 110.082 114.608 110.466 113.841C110.849 113.074 111.233 112.486 111.233 111.898C111.233 111.309 111.028 110.338 111.438 109.366C111.821 108.394 113.969 108.011 114.148 107.423C114.353 106.835 114.532 103.74 115.708 102.948C116.859 102.181 119.978 101.03 121.129 102.181Z" fill="#4FC7A0"/>
<path d="M110.747 119.134C110.722 119.134 110.722 119.134 110.696 119.109C110.645 119.083 110.645 119.032 110.671 118.981C110.671 118.955 111.463 117.677 111.617 117.012C111.668 116.833 111.719 116.577 111.77 116.296C111.975 115.222 112.307 113.585 112.819 113.099C113.535 112.383 114.711 110.159 115.503 107.32C116.501 103.817 119.799 102.794 119.851 102.794C119.902 102.769 119.953 102.82 119.978 102.871C120.004 102.922 119.953 102.973 119.902 102.999C119.876 102.999 116.654 103.996 115.708 107.397C114.89 110.261 113.714 112.511 112.972 113.253C112.512 113.713 112.179 115.375 111.975 116.347C111.924 116.654 111.872 116.909 111.821 117.088C111.642 117.779 110.875 119.057 110.85 119.109C110.824 119.109 110.798 119.134 110.747 119.134Z" fill="#3FB690"/>
<path d="M110.517 104.406C108.19 104.61 108.957 111.591 108.957 111.591C109.545 117.6 110.312 120.336 110.9 120.515C111.489 120.694 112.639 111.975 112.639 109.827C112.639 109.852 112.844 104.227 110.517 104.406Z" fill="#90DAD8"/>
<path d="M110.798 119.543C110.721 119.543 110.696 119.492 110.696 119.441C111.463 113.125 110.517 105.173 110.491 105.096C110.491 105.045 110.517 104.994 110.568 104.994C110.619 104.994 110.67 105.019 110.67 105.07C110.67 105.147 111.642 113.125 110.875 119.467C110.9 119.518 110.849 119.543 110.798 119.543Z" fill="white"/>
<path d="M113.688 123.967H107.781C107.577 123.967 107.423 123.839 107.398 123.686L106.528 117.549C106.477 117.268 106.707 117.038 106.988 117.038H114.481C114.762 117.038 114.967 117.293 114.941 117.549L114.072 123.686C114.072 123.865 113.893 123.967 113.688 123.967Z" fill="#D0DAED"/>
<path d="M44.1032 59.298C44.1032 59.298 42.4411 57.8916 42.3133 57.9684C42.1854 58.0706 42.39 58.8633 42.39 58.8633C42.39 58.8633 41.2649 58.0195 40.779 58.4798C40.2932 58.9656 41.7507 62.1108 43.1571 62.4944L44.1032 59.298Z" fill="#FFAA9D"/>
<path d="M100.845 57.6618C100.845 57.6618 102.507 56.2554 102.635 56.3321C102.763 56.4344 102.558 57.2271 102.558 57.2271C102.558 57.2271 103.683 56.3833 104.169 56.8435C104.655 57.3294 103.197 60.4746 101.791 60.8582L100.845 57.6618Z" fill="#FFAA9D"/>
<path d="M60.8774 118.853V121.41H69.5971L69.9295 118.469L60.8774 118.853Z" fill="url(#paint3_linear_521_7285)"/>
<path d="M60.8777 121.41L59.2412 123.251C59.1133 123.404 59.1133 123.609 59.19 123.762C59.2668 123.89 59.3946 123.992 59.5736 123.992H68.9837C69.0604 123.992 69.1371 123.967 69.2138 123.916C69.2905 123.864 69.3161 123.788 69.3161 123.711L69.5974 121.435H60.8777V121.41Z" fill="#0B2252"/>
<path d="M84.9398 118.827L85.17 121.41H76.4503L76.0156 118.443L84.9398 118.827Z" fill="url(#paint4_linear_521_7285)"/>
<path d="M85.1698 121.41L86.8064 123.251C86.9342 123.404 86.9342 123.609 86.8575 123.762C86.7808 123.89 86.6529 123.992 86.4739 123.992H77.0639C76.9872 123.992 76.9105 123.967 76.8338 123.916C76.7826 123.864 76.7315 123.788 76.7315 123.711L76.4502 121.435H85.1698V121.41Z" fill="#0B2252"/>
<path d="M65.2505 74.334C65.2505 74.334 61.9007 85.713 61.287 94.3815C60.6733 103.05 60.6989 119.134 60.6989 119.134H70.0322C70.0322 119.134 72.2057 97.1687 73.0751 97.092C73.9445 97.0153 75.6834 119.134 75.6834 119.134H85.4514C85.4514 119.134 83.2523 81.3404 79.7747 74.334H65.2505Z" fill="#14336D"/>
<path d="M102.967 60.4233L100.845 57.3293C97.1371 59.4517 91.9206 59.5539 85.5535 57.8151C80.8996 56.5366 77.6266 55.1558 72.4101 55.1558C67.1937 55.1558 62.0795 58.838 59.4713 59.5539C53.1042 61.2927 47.8878 61.1905 44.18 59.0681L42.0576 62.1622C42.0576 62.1622 50.7517 69.501 63.5882 67.532C63.2814 71.8535 62.5654 78.4252 62.7699 79.448C63.2814 81.8261 81.1809 81.9539 82.0503 79.2179C82.306 78.4252 81.1042 70.0635 80.9252 65.7165C94.043 67.9412 102.967 60.4233 102.967 60.4233Z" fill="url(#paint5_linear_521_7285)"/>
<path d="M77.1406 51.0898L77.1918 53.7747H76.7826C76.7826 53.7747 76.4502 55.9994 74.8904 55.6414C74.4301 55.5391 73.8676 55.1555 73.6886 55.2322C73.484 55.3345 73.4073 55.9226 73.3562 56.1016C73.1772 56.7665 70.8247 56.1016 71.2082 55.4112C71.5662 54.7464 72.1032 53.8514 72.0009 53.6213C71.5918 52.7519 71.4895 50.6039 73.663 49.8879C75.3763 49.2998 77.1151 50.1692 77.1406 51.0898Z" fill="#FFAA9D"/>
<path d="M71.2083 55.4115C71.5663 54.7467 72.1033 53.8517 72.001 53.6216C72.001 53.6216 72.9216 55.028 73.7398 55.2325C73.7143 55.2325 73.6887 55.2325 73.6631 55.2325C73.4585 55.3348 73.3818 55.923 73.3307 56.1019C73.2028 56.7924 70.8248 56.1019 71.2083 55.4115Z" fill="#FF9F91"/>
<path d="M73.5094 52.4197C72.4866 52.2407 73.1259 54.491 72.0008 54.4143C70.8757 54.3375 70.1085 51.9083 70.9268 50.0161C71.7451 48.1238 73.3049 48.2517 74.788 48.5074C76.2711 48.7631 78.0866 49.4279 78.0866 50.5531C78.0866 53.2636 74.8903 50.9878 74.6857 51.806C74.5323 52.4453 74.2766 54.2608 74.9158 54.2864C75.5551 54.312 76.2199 53.8005 76.7314 53.9284C77.0382 54.0051 77.8309 57.5595 75.7085 57.6617C73.6117 57.7896 73.0747 55.9229 73.5094 54.4143C73.9441 52.9823 73.9953 52.4964 73.5094 52.4197Z" fill="#14336A"/>
<path d="M117.492 68.2994C117.338 68.2994 117.185 68.1971 117.134 68.0181C116.162 64.8729 114.858 63.083 113.273 62.725C112.224 62.4949 111.329 62.9551 110.383 63.441C109.437 63.9268 108.465 64.4382 107.315 64.2337C105.013 63.8245 103.249 60.8072 101.97 55.0282C101.919 54.8236 102.047 54.6191 102.252 54.5679C102.456 54.5168 102.661 54.6446 102.712 54.8492C103.914 60.2191 105.499 63.1086 107.442 63.4665C108.337 63.62 109.156 63.2108 110.025 62.7506C110.997 62.2392 112.122 61.6766 113.452 61.9834C115.318 62.4181 116.801 64.3615 117.875 67.8136C117.926 68.0182 117.824 68.2227 117.62 68.2994C117.568 68.2994 117.517 68.2994 117.492 68.2994Z" fill="#4FC7A0"/>
<path d="M104.527 53.9288C103.862 55.5397 102.021 56.3324 100.385 55.6676C99.004 55.105 98.2369 53.6731 98.4414 52.2411C98.467 52.011 103.735 50.3489 104.067 50.7836C104.757 51.653 104.988 52.8548 104.527 53.9288Z" fill="#3FB790"/>
<path d="M102.098 47.9195H102.149C102.353 47.8683 102.558 47.9962 102.609 48.2008L103.453 51.2948C103.504 51.4994 103.376 51.704 103.172 51.7551H103.121C102.916 51.8062 102.711 51.6784 102.66 51.4738L101.816 48.3798C101.765 48.2008 101.893 47.9706 102.098 47.9195Z" fill="#14336A"/>
<path d="M98.7993 48.8145H98.8504C99.055 48.7634 99.2596 48.8912 99.3107 49.0958L100.155 52.1898C100.206 52.3944 100.078 52.599 99.8733 52.6501H99.8221C99.6176 52.7013 99.413 52.5734 99.3619 52.3688L98.518 49.2748C98.4925 49.0702 98.5947 48.8656 98.7993 48.8145Z" fill="#14336A"/>
<path d="M103.351 52.9315L100.257 53.7498C99.0294 54.0822 97.7509 53.3151 97.4185 52.0877L97.3673 51.9087C97.2906 51.6018 97.4696 51.2694 97.7765 51.1927L104.246 49.505C104.553 49.4283 104.885 49.6073 104.962 49.9142L105.013 50.0931C105.32 51.3461 104.578 52.6247 103.351 52.9315Z" fill="#4FC7A0"/>
<path d="M40.6254 82.8748C40.5486 82.8748 40.4719 82.8492 40.3952 82.7981C37.4034 80.4967 35.9971 78.2721 36.1505 76.1753C36.3039 74.0529 38.0171 72.6721 39.6537 71.3424C41.3413 69.9616 42.9523 68.6575 43.029 66.6118C43.0802 65.4355 42.5943 64.6684 42.0829 63.8502C41.5459 62.9552 40.9578 62.0602 41.0856 60.6538C41.2902 58.1734 43.5149 55.8976 47.6829 53.8775C47.8619 53.7753 48.092 53.8775 48.1943 54.0565C48.2966 54.2355 48.1943 54.4657 48.0153 54.568C44.103 56.4602 42.0318 58.5314 41.8528 60.7049C41.7505 61.8556 42.2363 62.6228 42.7477 63.441C43.2592 64.2849 43.8473 65.231 43.7961 66.6374C43.6939 69.041 41.8783 70.4986 40.1395 71.9305C38.5541 73.2091 37.071 74.4365 36.9176 76.2264C36.7897 78.0419 38.1194 80.0365 40.8811 82.1844C41.0601 82.3123 41.0856 82.5424 40.9578 82.7214C40.8555 82.8237 40.7276 82.8748 40.6254 82.8748Z" fill="#4FC7A0"/>
<path d="M50.1635 56.8182C48.527 57.1762 46.916 56.1789 46.558 54.5424C46.2 52.9059 47.1973 51.2949 48.8338 50.9369C50.4703 50.5789 52.0813 51.5762 52.4393 53.2127C52.8229 54.8237 51.8 56.4346 50.1635 56.8182Z" fill="#3FB790"/>
<path d="M53.5133 56.8693C52.874 57.0228 51.979 55.463 51.4932 53.3917C51.0329 51.3205 51.1608 49.5305 51.8001 49.3771C52.4393 49.2237 53.3343 50.7835 53.8201 52.8547C54.306 54.926 54.1526 56.7415 53.5133 56.8693Z" fill="#4FC7A0"/>
<path d="M49.2686 54.2101L49.1407 53.6476C48.706 51.7553 49.9078 49.8375 51.8001 49.4028L53.5133 56.8695C51.6211 57.3042 49.7033 56.1024 49.2686 54.2101Z" fill="#4FC7A0"/>
<path d="M53.334 56.1022C52.8226 56.2301 52.1066 54.9771 51.723 53.3406C51.3395 51.7041 51.4673 50.2721 51.9787 50.1442C52.4901 50.0164 53.2061 51.2693 53.5897 52.9059C53.9732 54.568 53.8454 55.9999 53.334 56.1022Z" fill="#3FB790"/>
<path d="M52.516 52.2924C52.4393 52.318 52.3115 52.1134 52.2348 51.8321C52.1836 51.5508 52.1836 51.3207 52.2859 51.2951C52.3626 51.2696 52.4905 51.4741 52.5672 51.7554C52.6183 52.0367 52.5928 52.2668 52.516 52.2924Z" fill="#14336A"/>
<path d="M53.1298 54.9774C53.0531 55.003 52.9252 54.7984 52.8485 54.5172C52.7974 54.2359 52.7974 54.0058 52.8997 53.9802C52.9764 53.9546 53.1042 54.1592 53.181 54.4405C53.2321 54.7217 53.2065 54.9519 53.1298 54.9774Z" fill="#14336A"/>
</g>
<defs>
<linearGradient id="paint0_linear_521_7285" x1="70.0022" y1="126.096" x2="70.0022" y2="-13.9086" gradientUnits="userSpaceOnUse">
<stop stop-color="#FEFEFD"/>
<stop offset="1" stop-color="#EBF3FF"/>
</linearGradient>
<linearGradient id="paint1_linear_521_7285" x1="70.0024" y1="120.672" x2="70.0024" y2="80.6411" gradientUnits="userSpaceOnUse">
<stop stop-color="#FEFEFD"/>
<stop offset="0.8395" stop-color="#EBF3FF"/>
</linearGradient>
<radialGradient id="paint2_radial_521_7285" cx="0" cy="0" r="1" gradientUnits="userSpaceOnUse" gradientTransform="translate(70.0321 124.223) scale(47.7302 48.5589)">
<stop stop-color="#D0DFF3"/>
<stop offset="0.9872" stop-color="#D0DFF3"/>
</radialGradient>
<linearGradient id="paint3_linear_521_7285" x1="60.8723" y1="119.928" x2="69.9184" y2="119.928" gradientUnits="userSpaceOnUse">
<stop stop-color="#FFAA9D"/>
<stop offset="0.9662" stop-color="#FF9F91"/>
</linearGradient>
<linearGradient id="paint4_linear_521_7285" x1="85.1779" y1="119.925" x2="76.0123" y2="119.925" gradientUnits="userSpaceOnUse">
<stop stop-color="#FFAA9D"/>
<stop offset="0.9662" stop-color="#FF9F91"/>
</linearGradient>
<linearGradient id="paint5_linear_521_7285" x1="42.0563" y1="68.1917" x2="102.964" y2="68.1917" gradientUnits="userSpaceOnUse">
<stop stop-color="#3162DF"/>
<stop offset="0.9649" stop-color="#173DB8"/>
</linearGradient>
<clipPath id="clip0_521_7285">
<rect width="140" height="140" fill="white"/>
</clipPath>
</defs>
</svg>
