<svg width="42" height="22" viewBox="0 0 42 22" fill="none" xmlns="http://www.w3.org/2000/svg">
<path d="M12.6693 1H2.44911C1.29443 1 0.604296 2.29006 1.24529 3.25145L13.0133 20.9232C13.585 21.784 14.8492 21.784 15.4209 20.9232L21.4534 11.866L15.077 2.29006C14.5409 1.48517 13.6364 1 12.6693 1Z" fill="#FF831A"/>
<path d="M40.4576 1H30.2374C29.2704 1 28.3658 1.48517 27.8298 2.29006L23.861 8.24847C22.7152 9.9678 20.1892 9.9678 19.0435 8.24847L21.4511 11.866L27.4836 20.9232C28.0554 21.784 29.3195 21.784 29.8913 20.9232L41.6637 3.25145C42.3047 2.28782 41.6146 1 40.4599 1H40.4576Z" fill="#0080FF"/>
</svg>
