<svg fill="none" height="160" viewBox="0 0 160 160" width="160" xmlns="http://www.w3.org/2000/svg" xmlns:xlink="http://www.w3.org/1999/xlink"><linearGradient id="a" gradientUnits="userSpaceOnUse" x1="80.0146" x2="80.0146" y1="160.029" y2="0"><stop offset="0" stop-color="#fff" stop-opacity="0"/><stop offset="1" stop-color="#fff"/></linearGradient><linearGradient id="b" gradientUnits="userSpaceOnUse" x1="79.7817" x2="79.7817" y1="137.912" y2="92.1618"><stop offset="0" stop-color="#fefefd"/><stop offset=".8395" stop-color="#ebf3ff"/></linearGradient><radialGradient id="c" cx="0" cy="0" gradientTransform="matrix(61.6944 0 0 41.5366 75.6392 147.038)" gradientUnits="userSpaceOnUse" r="1"><stop offset="0" stop-color="#d0dff3" stop-opacity=".42"/><stop offset=".9872" stop-color="#d0dff3" stop-opacity=".19"/></radialGradient><linearGradient id="d" gradientUnits="userSpaceOnUse" x1="80.3138" x2="79.4671" y1="73.6545" y2="113.01"><stop offset="0" stop-color="#3162df"/><stop offset=".9649" stop-color="#173db8"/></linearGradient><linearGradient id="e" gradientUnits="userSpaceOnUse" x1="80.119" x2="80.1442" y1="114.086" y2="143.107"><stop offset="0" stop-color="#ff8e00"/><stop offset="1" stop-color="#ffcf01"/></linearGradient><clipPath id="f"><path d="m0 0h160v160h-160z"/></clipPath><g clip-path="url(#f)"><path d="m80.0146 160.029c44.1904 0 80.0144-35.824 80.0144-80.0144 0-44.1908-35.824-80.0146-80.0144-80.0146-44.1908 0-80.0146 35.8238-80.0146 80.0146 0 44.1904 35.8238 80.0144 80.0146 80.0144z" fill="url(#a)"/><path d="m159.357 90.1849c-8.826-3.8575-20.282-5.6986-27.471-3.0101-6.721 2.5133-5.64 7.5105-12.537 9.5854-11.134 3.3318-18.849-8.2118-35.4189-7.6858-14.758.4968-19.8721 9.9945-31.0064 7.6858-6.9552-1.4612-8.2703-5.8447-13.2091-8.9424-8.2995-5.2019-24.2265-5.1434-39.510498-2.1918 1.402738 20.018 10.140598 38.02 23.583598 51.288 15.1086 2.805 31.5616 4.296 47.5762 3.682 28.1717-1.052 56.6941-8.592 76.0991-17.593 6.224-9.702 10.374-20.836 11.894-32.8181z" fill="url(#b)"/><path d="m130.28 52.7195h-28.903c-1.6946 0-3.2435-.6137-4.4417-1.6365-1.4904-1.2566-2.4255-3.1269-2.4255-5.231 0-1.8996.7598-3.5946 2.0164-4.8512 1.2274-1.2274 2.9516-2.0164 4.8508-2.0164h28.903c1.899 0 3.594.7598 4.851 2.0164 1.227 1.2274 2.016 2.9516 2.016 4.8512 0 1.8995-.76 3.5945-2.016 4.8511-1.257 1.2566-2.952 2.0164-4.851 2.0164z" fill="#d8e2f4"/><path d="m123.405 43.6914c1.35-5.568-2.069-11.1766-7.637-12.5271s-11.176 2.0686-12.527 7.6366c-1.35 5.5681 2.069 11.1767 7.637 12.5272 5.568 1.3504 11.176-2.0686 12.527-7.6367z" fill="#d8e2f4"/><path d="m42.3164 34.396h-28.4055c-1.8703 0-3.5361-.7598-4.76346-1.9579-1.22739-1.2274-1.95799-2.8932-1.95799-4.7635 0-1.3151.37991-2.5717 1.05206-3.5945 1.19817-1.8704 3.30229-3.127 5.66939-3.127h28.3763c1.8703 0 3.536.7598 4.7634 1.958 1.2274 1.2274 1.958 2.8932 1.958 4.7635 0 1.7242-.6429 3.3023-1.7242 4.5004-1.1981 1.3736-2.9808 2.221-4.968 2.221z" fill="#fff"/><path d="m25.659 33.3152c5.6328 0 10.1991-4.5663 10.1991-10.1991s-4.5663-10.1991-10.1991-10.1991-10.199 4.5663-10.199 10.1991 4.5662 10.1991 10.199 10.1991z" fill="#fff"/><path d="m135.189 147.025c0 .526-26.652.935-59.5578.935-32.9059 0-59.558-.409-59.558-.935s26.6521-.935 59.558-.935c32.9058 0 59.5578.438 59.5578.935z" fill="url(#c)"/><path d="m132.004 126.627c1.257.409.322 2.163.322 3.39s.614 4.617-.614 5.26c-1.227.614-3.098 1.841-3.098 3.098 0 1.227-.321 2.776-1.548 3.39-1.228.614-2.484.614-2.484 1.549s.613 1.227.321 2.162c-.321.935-.935 1.228-.614 1.549h-8.036s-1.549-2.484-1.228-4.004c.322-1.548 1.841-1.548 2.163-2.776.321-1.227 1.841-1.549 1.841-2.776s.614-3.098 1.549-3.711c.935-.614 2.776 0 3.39-1.228.614-1.227 0-2.484.935-3.098.935-.613 2.776.322 3.711-.613.936-.935 2.484-2.484 3.39-2.192z" fill="#3fb790"/><path d="m130.777 132.91c-.029-.088-.117-.117-.205-.117-.029 0-1.432.409-2.425.38.701-2.63 2.192-3.185 2.221-3.185.087-.029.117-.117.087-.205-.029-.087-.116-.117-.204-.087-.088.029-1.958.672-2.572 4.12-.146.789-.672 1.549-1.373 2.28-.585-.585-.789-2.484-.789-3.186 0-.088-.059-.146-.146-.146-.088 0-.147.088-.147.146 0 .117.088 2.572.906 3.39-.789.76-1.753 1.491-2.688 2.221-1.023.76-2.017 1.52-2.776 2.28-.117-.322-.147-1.286-.059-2.338 0-.088-.058-.146-.146-.176-.088 0-.146.059-.175.146-.059.643-.147 2.105.146 2.572-.497.555-.877 1.111-1.052 1.695-.03.088.029.175.117.205h.058c.058 0 .117-.03.146-.117.38-1.257 1.783-2.426 3.332-3.624.847.818 3.185.935 3.302.935.088 0 .146-.058.146-.146s-.058-.146-.146-.175c-.029 0-2.25-.117-3.069-.819.117-.087.234-.175.351-.263 1.987-1.519 4.062-3.068 4.413-4.909.029-.146.058-.263.088-.409h.146c1.023 0 2.396-.38 2.454-.409.03.116.088.029.059-.059z" fill="#34916f"/><path d="m113.505 127.241c-1.607.818 0 4.325-.321 5.552-.322 1.227-1.228 2.163-.935 3.39.321 1.227.935 2.163.935 3.39s-1.841 2.484-1.549 4.617c.321 2.163 1.227 2.777 1.227 2.777h6.78s.614-.614.614-1.842c0-1.227-1.549-2.484-1.227-3.097.321-.614 1.548-1.841 1.227-4.004-.321-2.162-1.227-2.162-1.549-3.39-.321-1.227.322-1.841 0-2.776-.321-.935-1.841-1.841-2.162-2.484-.263-.585-1.169-3.039-3.04-2.133z" fill="#90dad8"/><path d="m118.707 138.083c-.059-.058-.175-.058-.205.029-.321.38-1.081 1.257-1.607 1.666 0-.205.029-.438.029-.643 0-.964 0-1.929-.058-2.864 0 0 0 0 0-.029-.029-.848-.117-1.637-.263-2.396-.322-1.549-1.812-3.683-1.871-3.77-.058-.059-.146-.088-.204-.029-.059.058-.088.146-.029.204.029.029 1.519 2.163 1.841 3.653.117.585.175 1.198.234 1.841-.556-.584-1.491-1.052-1.549-1.081-.088-.029-.176 0-.205.058-.029.088 0 .176.059.205 0 0 1.373.701 1.724 1.344.029.935.058 1.9.058 2.835 0 .818-.117 1.695-.234 2.484-.116.73-.175 1.373-.146 1.812-.526-.322-1.432-.672-1.549-.731-.087-.029-.175 0-.204.088s0 .175.088.204c.409.176 1.519.643 1.782.877.351.701.906 2.163.935 3.156 0 .088.059.146.146.146.088 0 .147-.087.147-.175-.059-1.052-.643-2.601-.994-3.302-.146-.292-.029-1.14.088-2.046.058-.467.146-.964.175-1.49.614-.38 1.812-1.812 1.87-1.871.03 0 0-.117-.058-.175z" fill="#fff"/><path d="m96.3799 69.1723s1.1982-3.6238 1.3735-3.5945c.1753.0292.4676.9059.4676.9059s.5845-1.4904 1.3443-1.3151c.7597.1754 1.2277 4.1206.0584 5.348z" fill="#ffaa9d"/><path d="m64.8186 68.9388s-1.0813-3.5069-1.2567-3.4776c-.1753 0-.4968.8767-.4968.8767s-.526-1.5197-1.2858-1.4028c-.7598.1461-1.432 4.0621-.3215 5.3187z" fill="#ffaa9d"/><path d="m100.793 69.6399-4.8512-1.4612s-4.0621 7.6566-6.9261 12.3324c-1.3442 2.1918-2.7762 3.8868-4.0328 5.2895-1.5489-.4968-3.2731-.789-4.9388-.789-1.4612 0-2.8932.263-4.2959.6721-1.2567-1.4027-2.6302-3.0392-3.9452-5.1726-2.864-4.6465-6.9261-12.3324-6.9261-12.3324l-4.8511 1.4612s-.1169 3.5068 3.653 14.5534c2.221 6.5461 4.5881 10.4329 6.1954 12.5662-.4676 6.1375-.2922 13.0045.0292 13.8225.9644 2.397 18.8786 2.397 20.3105-.233.4384-.819.3215-6.722-.2045-12.3913 1.4904-1.695 4.4127-5.7278 7.1305-13.7644 3.7701-11.0466 3.6531-14.5534 3.6531-14.5534z" fill="url(#d)"/><g fill="#ffc400"><path d="m48.1022 86.3265.9936.5261-.9936.5552-.5553 1.0229-.5552-1.0229-.9937-.5552.9937-.5261.5552-1.0228z"/><path d="m77.4139 63.7954.9644.5261-.9644.4968-.526.9644-.5261-.9644-.9643-.4968.9643-.5261.5261-.9643z"/><path d="m113.096 87.847 1.023.5552-1.023.5845-.584 1.0521-.556-1.0521-1.052-.5845 1.052-.5552.556-1.0521z"/></g><path d="m104.007 147.171h-47.7514c-1.8119 0-3.2439-1.461-3.2439-3.244v-40.796c0-1.812 1.4612-3.2443 3.2439-3.2443h47.7514c1.812 0 3.244 1.4613 3.244 3.2443v40.767c0 1.812-1.432 3.273-3.244 3.273z" fill="url(#e)"/><path d="m106.257 118.473h-52.2809c-1.4904 0-2.6301-1.257-2.484-2.747l1.2859-13.589c.1169-1.286 1.1981-2.2796 2.484-2.2796h49.71c1.285 0 2.367.9936 2.484 2.2796l1.285 13.589c.147 1.49-.993 2.747-2.484 2.747z" fill="#ffc400"/><path d="m84.2518 147.171h-8.2704v-7.861c0-.994.8183-1.812 1.8119-1.812h4.6758c.9936 0 1.8119.818 1.8119 1.812v7.861z" fill="#fff2a6"/><path d="m78.8465 85.5078c.1753-.8767.1461-1.7826.2338-2.3087l2.2502-.0292c.0292.2923.1753 2.1041.2045 2.3379.0585.8183-2.8639.9352-2.6885 0z" fill="#ff9f91"/><path d="m83.0538 78.8451c-.2923-.263-1.958-.4091-2.7763-.4091-.3215 0-.8475-.2923-1.3151-.263-.6721.0584-1.2566.526-1.4319.6721-.2923.263-.0293 3.2731.1461 3.8283.1753.5553.9644 2.0457 2.6301 2.0457 1.6366 0 2.4548-1.4612 2.6302-2.0457.1461-.5552.4091-3.5653.1169-3.8283z" fill="#ffaa9d"/><path d="m83.1711 78.553c.2338-.1169.6137-1.3735-.6429-1.5781 0 0 .3799-1.1689-1.0228-1.1105-1.3735.0292-3.8576.7891-4.1498 2.9224-.2922 2.1041.0584 3.8283.3215 4.705.1461.4384.9059 1.695 2.5717 1.695 1.6365 0 2.3086-1.2858 2.4547-1.7242.2338-.7014.7014-1.958.5553-3.5361.0877-.0292.1753-.0292.263-.0876.9644-.4968-.5845-1.169-.3507-1.2859zm-1.3735 4.6174c-.6429-.2923-.8767-.4384-1.5196-.4384s-.8475.0584-1.4904.3507c-.7014.3214-1.4028-2.484-.8183-3.3023s.789-.8475.9936-1.4904c0 0 1.0521.9352 2.1333.8183 0 0 .3507-.0585.3215-.4968 0 0 .3799.6137 1.169 1.1689.4383.3507-.0877 3.7114-.7891 3.39z" fill="#14336a"/></g></svg>