<svg fill="none" height="200" viewBox="0 0 201 200" width="201" xmlns="http://www.w3.org/2000/svg" xmlns:xlink="http://www.w3.org/1999/xlink"><clipPath id="a"><path d="m.5 0h200v200h-200z"/></clipPath><g clip-path="url(#a)"><path d="m200.5 0h-200v200h200z" fill="#fff"/><g fill="#000"><path d="m67.1671 12.1201h-6.0607v6.0606h6.0607z"/><path d="m73.2281 12.1201h-6.0606v6.0606h6.0606z"/><path d="m79.2881 12.1201h-6.0606v6.0606h6.0606z"/><path d="m97.4703 12.1201h-6.0606v6.0606h6.0606z"/><path d="m103.531 12.1201h-6.0608v6.0606h6.0608z"/><path d="m109.591 12.1201h-6.061v6.0606h6.061z"/><path d="m127.773 12.1201h-6.061v6.0606h6.061z"/><path d="m67.1671 18.1816h-6.0607v6.0606h6.0607z"/><path d="m73.2276 18.1816h-6.0606v6.0606h6.0606z"/><path d="m79.2881 18.1816h-6.0606v6.0606h6.0606z"/><path d="m85.3487 18.1816h-6.0606v6.0606h6.0606z"/><path d="m91.4097 18.1816h-6.0606v6.0606h6.0606z"/><path d="m97.4703 18.1816h-6.0606v6.0606h6.0606z"/><path d="m103.53 18.1816h-6.0603v6.0606h6.0603z"/><path d="m109.591 18.1816h-6.06v6.0606h6.06z"/><path d="m121.713 18.1816h-6.061v6.0606h6.061z"/><path d="m127.773 18.1816h-6.061v6.0606h6.061z"/><path d="m133.834 18.1816h-6.061v6.0606h6.061z"/><path d="m139.894 18.1816h-6.061v6.0606h6.061z"/><path d="m67.1671 24.2432h-6.0607v6.0606h6.0607z"/><path d="m73.2281 24.2432h-6.0606v6.0606h6.0606z"/><path d="m79.2881 24.2432h-6.0606v6.0606h6.0606z"/><path d="m85.3487 24.2432h-6.0606v6.0606h6.0606z"/><path d="m97.4703 24.2432h-6.0606v6.0606h6.0606z"/><path d="m103.531 24.2432h-6.0608v6.0606h6.0608z"/><path d="m139.894 24.2432h-6.061v6.0606h6.061z"/><path d="m73.2281 30.3018h-6.0606v6.0606h6.0606z"/><path d="m79.2881 30.3018h-6.0606v6.0606h6.0606z"/><path d="m85.3487 30.3018h-6.0606v6.0606h6.0606z"/><path d="m91.4097 30.3018h-6.0606v6.0606h6.0606z"/><path d="m103.531 30.3018h-6.0608v6.0606h6.0608z"/><path d="m109.591 30.3018h-6.06v6.0606h6.06z"/><path d="m121.713 30.3018h-6.061v6.0606h6.061z"/><path d="m133.834 30.3018h-6.061v6.0606h6.061z"/><path d="m139.894 30.3018h-6.061v6.0606h6.061z"/><path d="m67.1671 36.3623h-6.0607v6.0606h6.0607z"/><path d="m73.2276 36.3623h-6.0606v6.0606h6.0606z"/><path d="m79.2886 36.3623h-6.0606v6.0606h6.0606z"/><path d="m91.4097 36.3623h-6.0606v6.0606h6.0606z"/><path d="m97.4703 36.3623h-6.0606v6.0606h6.0606z"/><path d="m109.591 36.3623h-6.061v6.0606h6.061z"/><path d="m121.713 36.3623h-6.061v6.0606h6.061z"/><path d="m127.773 36.3623h-6.061v6.0606h6.061z"/><path d="m133.834 36.3623h-6.061v6.0606h6.061z"/><path d="m73.2276 42.4238h-6.0606v6.0606h6.0606z"/><path d="m97.4703 42.4238h-6.0606v6.0606h6.0606z"/><path d="m103.53 42.4238h-6.0603v6.0606h6.0603z"/><path d="m121.713 42.4238h-6.061v6.0606h6.061z"/><path d="m139.894 42.4238h-6.061v6.0606h6.061z"/><path d="m67.1671 48.4854h-6.0607v6.0606h6.0607z"/><path d="m79.2881 48.4854h-6.0606v6.0606h6.0606z"/><path d="m91.4097 48.4854h-6.0606v6.0606h6.0606z"/><path d="m103.531 48.4854h-6.0608v6.0606h6.0608z"/><path d="m115.652 48.4854h-6.061v6.0606h6.061z"/><path d="m127.773 48.4854h-6.061v6.0606h6.061z"/><path d="m139.894 48.4854h-6.061v6.0606h6.061z"/><path d="m73.2281 54.5459h-6.0606v6.0606h6.0606z"/><path d="m91.4097 54.5459h-6.0606v6.0606h6.0606z"/><path d="m103.531 54.5459h-6.0608v6.0606h6.0608z"/><path d="m18.6822 60.6074h-6.0606v6.0606h6.0606z"/><path d="m36.8643 60.6074h-6.0606v6.0606h6.0606z"/><path d="m42.9249 60.6074h-6.0606v6.0606h6.0606z"/><path d="m48.9854 60.6074h-6.0606v6.0606h6.0606z"/><path d="m55.0455 60.6074h-6.0606v6.0606h6.0606z"/><path d="m61.1065 60.6074h-6.0606v6.0606h6.0606z"/><path d="m67.1671 60.6074h-6.0607v6.0606h6.0607z"/><path d="m73.2276 60.6074h-6.0606v6.0606h6.0606z"/><path d="m91.4097 60.6074h-6.0606v6.0606h6.0606z"/><path d="m97.4703 60.6074h-6.0606v6.0606h6.0606z"/><path d="m103.53 60.6074h-6.0603v6.0606h6.0603z"/><path d="m109.591 60.6074h-6.061v6.0606h6.061z"/><path d="m115.652 60.6074h-6.061v6.0606h6.061z"/><path d="m121.713 60.6074h-6.061v6.0606h6.061z"/><path d="m145.955 60.6074h-6.06v6.0606h6.06z"/><path d="m164.137 60.6074h-6.061v6.0606h6.061z"/><path d="m176.258 60.6074h-6.061v6.0606h6.061z"/><path d="m182.319 60.6074h-6.061v6.0606h6.061z"/><path d="m188.379 60.6074h-6.061v6.0606h6.061z"/><path d="m18.6827 66.668h-6.0606v6.0606h6.0606z"/><path d="m30.8038 66.668h-6.0606v6.0606h6.0606z"/><path d="m67.1671 66.668h-6.0607v6.0606h6.0607z"/><path d="m91.4097 66.668h-6.0606v6.0606h6.0606z"/><path d="m103.531 66.668h-6.0608v6.0606h6.0608z"/><path d="m121.713 66.668h-6.061v6.0606h6.061z"/><path d="m133.834 66.668h-6.061v6.0606h6.061z"/><path d="m145.955 66.668h-6.06v6.0606h6.06z"/><path d="m158.076 66.668h-6.06v6.0606h6.06z"/><path d="m164.136 66.668h-6.06v6.0606h6.06z"/><path d="m176.258 66.668h-6.061v6.0606h6.061z"/><path d="m182.319 66.668h-6.061v6.0606h6.061z"/><path d="m24.7422 72.7256h-6.0606v6.0606h6.0606z"/><path d="m30.8033 72.7256h-6.0606v6.0606h6.0606z"/><path d="m42.9249 72.7256h-6.0606v6.0606h6.0606z"/><path d="m48.9854 72.7256h-6.0606v6.0606h6.0606z"/><path d="m55.0455 72.7256h-6.0606v6.0606h6.0606z"/><path d="m73.2281 72.7256h-6.0606v6.0606h6.0606z"/><path d="m79.2881 72.7256h-6.0606v6.0606h6.0606z"/><path d="m103.531 72.7256h-6.0608v6.0606h6.0608z"/><path d="m121.713 72.7256h-6.061v6.0606h6.061z"/><path d="m127.773 72.7256h-6.061v6.0606h6.061z"/><path d="m145.955 72.7256h-6.061v6.0606h6.061z"/><path d="m158.076 72.7256h-6.06v6.0606h6.06z"/><path d="m176.258 72.7256h-6.061v6.0606h6.061z"/><path d="m36.8643 78.7871h-6.0606v6.0606h6.0606z"/><path d="m42.9249 78.7871h-6.0606v6.0606h6.0606z"/><path d="m67.1671 78.7871h-6.0607v6.0606h6.0607z"/><path d="m73.2276 78.7871h-6.0606v6.0606h6.0606z"/><path d="m79.2881 78.7871h-6.0606v6.0606h6.0606z"/><path d="m103.53 78.7871h-6.0603v6.0606h6.0603z"/><path d="m109.591 78.7871h-6.06v6.0606h6.06z"/><path d="m121.713 78.7871h-6.061v6.0606h6.061z"/><path d="m139.894 78.7871h-6.061v6.0606h6.061z"/><path d="m145.955 78.7871h-6.061v6.0606h6.061z"/><path d="m152.016 78.7871h-6.061v6.0606h6.061z"/><path d="m170.197 78.7871h-6.06v6.0606h6.06z"/><path d="m188.379 78.7871h-6.061v6.0606h6.061z"/><path d="m18.6827 84.8486h-6.0606v6.0606h6.0606z"/><path d="m24.7422 84.8486h-6.0606v6.0606h6.0606z"/><path d="m30.8033 84.8486h-6.0606v6.0606h6.0606z"/><path d="m36.8643 84.8486h-6.0606v6.0606h6.0606z"/><path d="m55.0455 84.8486h-6.0606v6.0606h6.0606z"/><path d="m79.2881 84.8486h-6.0606v6.0606h6.0606z"/><path d="m91.4097 84.8486h-6.0606v6.0606h6.0606z"/><path d="m97.4703 84.8486h-6.0606v6.0606h6.0606z"/><path d="m103.531 84.8486h-6.0608v6.0606h6.0608z"/><path d="m127.773 84.8486h-6.061v6.0606h6.061z"/><path d="m139.894 84.8486h-6.061v6.0606h6.061z"/><path d="m152.016 84.8486h-6.061v6.0606h6.061z"/><path d="m158.076 84.8486h-6.06v6.0606h6.06z"/><path d="m188.379 84.8486h-6.06v6.0606h6.06z"/><path d="m30.8038 90.9072h-6.0606v6.0606h6.0606z"/><path d="m85.3487 90.9072h-6.0606v6.0606h6.0606z"/><path d="m91.4097 90.9072h-6.0606v6.0606h6.0606z"/><path d="m121.713 90.9072h-6.061v6.0606h6.061z"/><path d="m127.773 90.9072h-6.061v6.0606h6.061z"/><path d="m145.955 90.9072h-6.06v6.0606h6.06z"/><path d="m152.016 90.9072h-6.061v6.0606h6.061z"/><path d="m164.136 90.9072h-6.06v6.0606h6.06z"/><path d="m170.197 90.9072h-6.06v6.0606h6.06z"/><path d="m176.257 90.9072h-6.06v6.0606h6.06z"/><path d="m182.319 90.9072h-6.061v6.0606h6.061z"/><path d="m188.379 90.9072h-6.06v6.0606h6.06z"/><path d="m24.7427 96.9697h-6.0606v6.0603h6.0606z"/><path d="m48.9854 96.9697h-6.0606v6.0603h6.0606z"/><path d="m55.0455 96.9697h-6.0606v6.0603h6.0606z"/><path d="m61.1065 96.9697h-6.0606v6.0603h6.0606z"/><path d="m67.1671 96.9697h-6.0607v6.0603h6.0607z"/><path d="m79.2881 96.9697h-6.0606v6.0603h6.0606z"/><path d="m103.53 96.9697h-6.0603v6.0603h6.0603z"/><path d="m109.591 96.9697h-6.06v6.0603h6.06z"/><path d="m121.713 96.9697h-6.061v6.0603h6.061z"/><path d="m133.834 96.9697h-6.061v6.0603h6.061z"/><path d="m139.894 96.9697h-6.061v6.0603h6.061z"/><path d="m145.955 96.9697h-6.061v6.0603h6.061z"/><path d="m152.016 96.9697h-6.061v6.0603h6.061z"/><path d="m158.076 96.9697h-6.06v6.0603h6.06z"/><path d="m176.258 96.9697h-6.061v6.0603h6.061z"/><path d="m188.379 96.9697h-6.061v6.0603h6.061z"/><path d="m18.6822 103.031h-6.0606v6.061h6.0606z"/><path d="m24.7427 103.031h-6.0606v6.061h6.0606z"/><path d="m42.9249 103.031h-6.0606v6.061h6.0606z"/><path d="m61.1065 103.031h-6.0606v6.061h6.0606z"/><path d="m73.2276 103.031h-6.0606v6.061h6.0606z"/><path d="m79.2881 103.031h-6.0606v6.061h6.0606z"/><path d="m97.4703 103.031h-6.0606v6.061h6.0606z"/><path d="m103.53 103.031h-6.0603v6.061h6.0603z"/><path d="m115.652 103.031h-6.061v6.061h6.061z"/><path d="m127.773 103.031h-6.061v6.061h6.061z"/><path d="m158.076 103.031h-6.06v6.061h6.06z"/><path d="m164.137 103.031h-6.061v6.061h6.061z"/><path d="m176.258 103.031h-6.061v6.061h6.061z"/><path d="m188.379 103.031h-6.061v6.061h6.061z"/><path d="m42.9249 109.09h-6.0606v6.06h6.0606z"/><path d="m55.0455 109.09h-6.0606v6.06h6.0606z"/><path d="m91.4097 109.09h-6.0606v6.06h6.0606z"/><path d="m109.591 109.09h-6.061v6.06h6.061z"/><path d="m133.834 109.09h-6.061v6.06h6.061z"/><path d="m139.894 109.09h-6.061v6.06h6.061z"/><path d="m170.197 109.09h-6.06v6.06h6.06z"/><path d="m18.6827 115.151h-6.0606v6.061h6.0606z"/><path d="m36.8643 115.151h-6.0606v6.061h6.0606z"/><path d="m67.1671 115.151h-6.0607v6.061h6.0607z"/><path d="m73.2281 115.151h-6.0606v6.061h6.0606z"/><path d="m121.713 115.151h-6.061v6.061h6.061z"/><path d="m127.773 115.151h-6.061v6.061h6.061z"/><path d="m133.834 115.151h-6.061v6.061h6.061z"/><path d="m164.136 115.151h-6.06v6.061h6.06z"/><path d="m176.257 115.151h-6.06v6.061h6.06z"/><path d="m182.319 115.151h-6.061v6.061h6.061z"/><path d="m18.6822 121.213h-6.0606v6.06h6.0606z"/><path d="m24.7422 121.213h-6.0606v6.06h6.0606z"/><path d="m30.8038 121.213h-6.0606v6.06h6.0606z"/><path d="m55.0455 121.213h-6.0606v6.06h6.0606z"/><path d="m61.1065 121.213h-6.0606v6.06h6.0606z"/><path d="m73.2276 121.213h-6.0606v6.06h6.0606z"/><path d="m79.2881 121.213h-6.0606v6.06h6.0606z"/><path d="m97.4703 121.213h-6.0606v6.06h6.0606z"/><path d="m103.53 121.213h-6.0603v6.06h6.0603z"/><path d="m115.652 121.213h-6.061v6.06h6.061z"/><path d="m127.773 121.213h-6.061v6.06h6.061z"/><path d="m133.834 121.213h-6.061v6.06h6.061z"/><path d="m145.955 121.213h-6.06v6.06h6.06z"/><path d="m152.016 121.213h-6.061v6.06h6.061z"/><path d="m170.197 121.213h-6.06v6.06h6.06z"/><path d="m188.379 121.213h-6.061v6.06h6.061z"/><path d="m18.6827 127.273h-6.0606v6.061h6.0606z"/><path d="m24.7422 127.273h-6.0606v6.061h6.0606z"/><path d="m42.9249 127.273h-6.0606v6.061h6.0606z"/><path d="m48.9854 127.273h-6.0606v6.061h6.0606z"/><path d="m61.1065 127.273h-6.0606v6.061h6.0606z"/><path d="m67.1671 127.273h-6.0607v6.061h6.0607z"/><path d="m73.2281 127.273h-6.0606v6.061h6.0606z"/><path d="m79.2881 127.273h-6.0606v6.061h6.0606z"/><path d="m85.3487 127.273h-6.0606v6.061h6.0606z"/><path d="m97.4703 127.273h-6.0606v6.061h6.0606z"/><path d="m109.591 127.273h-6.061v6.061h6.061z"/><path d="m115.652 127.273h-6.061v6.061h6.061z"/><path d="m133.834 127.273h-6.061v6.061h6.061z"/><path d="m145.955 127.273h-6.06v6.061h6.06z"/><path d="m152.016 127.273h-6.061v6.061h6.061z"/><path d="m158.076 127.273h-6.06v6.061h6.06z"/><path d="m164.136 127.273h-6.06v6.061h6.06z"/><path d="m170.197 127.273h-6.06v6.061h6.06z"/><path d="m176.258 127.273h-6.061v6.061h6.061z"/><path d="m18.6827 133.333h-6.0606v6.061h6.0606z"/><path d="m24.7422 133.333h-6.0606v6.061h6.0606z"/><path d="m30.8033 133.333h-6.0606v6.061h6.0606z"/><path d="m48.9854 133.333h-6.0606v6.061h6.0606z"/><path d="m55.0455 133.333h-6.0606v6.061h6.0606z"/><path d="m73.2281 133.333h-6.0606v6.061h6.0606z"/><path d="m79.2881 133.333h-6.0606v6.061h6.0606z"/><path d="m91.4097 133.333h-6.0606v6.061h6.0606z"/><path d="m97.4703 133.333h-6.0606v6.061h6.0606z"/><path d="m121.713 133.333h-6.061v6.061h6.061z"/><path d="m133.834 133.333h-6.061v6.061h6.061z"/><path d="m139.894 133.333h-6.061v6.061h6.061z"/><path d="m145.955 133.333h-6.061v6.061h6.061z"/><path d="m152.016 133.333h-6.061v6.061h6.061z"/><path d="m158.076 133.333h-6.06v6.061h6.06z"/><path d="m164.136 133.333h-6.06v6.061h6.06z"/><path d="m170.197 133.333h-6.06v6.061h6.06z"/><path d="m176.258 133.333h-6.061v6.061h6.061z"/><path d="m182.319 133.333h-6.061v6.061h6.061z"/><path d="m67.1671 139.394h-6.0607v6.06h6.0607z"/><path d="m85.3487 139.394h-6.0606v6.06h6.0606z"/><path d="m97.4703 139.394h-6.0606v6.06h6.0606z"/><path d="m115.652 139.394h-6.061v6.06h6.061z"/><path d="m121.713 139.394h-6.061v6.06h6.061z"/><path d="m127.773 139.394h-6.061v6.06h6.061z"/><path d="m139.894 139.394h-6.061v6.06h6.061z"/><path d="m164.137 139.394h-6.061v6.06h6.061z"/><path d="m170.197 139.394h-6.06v6.06h6.06z"/><path d="m67.1671 145.455h-6.0607v6.061h6.0607z"/><path d="m97.4703 145.455h-6.0606v6.061h6.0606z"/><path d="m109.591 145.455h-6.061v6.061h6.061z"/><path d="m115.652 145.455h-6.061v6.061h6.061z"/><path d="m133.834 145.455h-6.061v6.061h6.061z"/><path d="m139.894 145.455h-6.061v6.061h6.061z"/><path d="m152.016 145.455h-6.061v6.061h6.061z"/><path d="m164.136 145.455h-6.06v6.061h6.06z"/><path d="m170.197 145.455h-6.06v6.061h6.06z"/><path d="m67.1671 151.515h-6.0607v6.06h6.0607z"/><path d="m73.2281 151.515h-6.0606v6.06h6.0606z"/><path d="m79.2881 151.515h-6.0606v6.06h6.0606z"/><path d="m91.4097 151.515h-6.0606v6.06h6.0606z"/><path d="m97.4703 151.515h-6.0606v6.06h6.0606z"/><path d="m115.652 151.515h-6.061v6.06h6.061z"/><path d="m121.713 151.515h-6.061v6.06h6.061z"/><path d="m133.834 151.515h-6.061v6.06h6.061z"/><path d="m139.894 151.515h-6.061v6.06h6.061z"/><path d="m164.136 151.515h-6.06v6.06h6.06z"/><path d="m182.319 151.515h-6.061v6.06h6.061z"/><path d="m188.379 151.515h-6.06v6.06h6.06z"/><path d="m67.1671 157.575h-6.0607v6.061h6.0607z"/><path d="m85.3487 157.575h-6.0606v6.061h6.0606z"/><path d="m91.4097 157.575h-6.0606v6.061h6.0606z"/><path d="m97.4703 157.575h-6.0606v6.061h6.0606z"/><path d="m109.591 157.575h-6.06v6.061h6.06z"/><path d="m115.652 157.575h-6.061v6.061h6.061z"/><path d="m133.834 157.575h-6.061v6.061h6.061z"/><path d="m139.894 157.575h-6.061v6.061h6.061z"/><path d="m145.955 157.575h-6.061v6.061h6.061z"/><path d="m152.016 157.575h-6.061v6.061h6.061z"/><path d="m158.076 157.575h-6.06v6.061h6.06z"/><path d="m164.137 157.575h-6.061v6.061h6.061z"/><path d="m170.197 157.575h-6.06v6.061h6.06z"/><path d="m67.1671 163.637h-6.0607v6.06h6.0607z"/><path d="m91.4097 163.637h-6.0606v6.06h6.0606z"/><path d="m97.4703 163.637h-6.0606v6.06h6.0606z"/><path d="m103.53 163.637h-6.0603v6.06h6.0603z"/><path d="m115.652 163.637h-6.061v6.06h6.061z"/><path d="m121.713 163.637h-6.061v6.06h6.061z"/><path d="m127.773 163.637h-6.061v6.06h6.061z"/><path d="m133.834 163.637h-6.061v6.06h6.061z"/><path d="m139.894 163.637h-6.061v6.06h6.061z"/><path d="m145.955 163.637h-6.061v6.06h6.061z"/><path d="m158.076 163.637h-6.06v6.06h6.06z"/><path d="m182.319 163.637h-6.061v6.06h6.061z"/><path d="m79.2881 169.698h-6.0606v6.061h6.0606z"/><path d="m97.4703 169.698h-6.0606v6.061h6.0606z"/><path d="m115.652 169.698h-6.061v6.061h6.061z"/><path d="m145.955 169.698h-6.061v6.061h6.061z"/><path d="m158.076 169.698h-6.06v6.061h6.06z"/><path d="m164.136 169.698h-6.06v6.061h6.06z"/><path d="m176.258 169.698h-6.061v6.061h6.061z"/><path d="m182.319 169.698h-6.061v6.061h6.061z"/><path d="m188.379 169.698h-6.06v6.061h6.06z"/><path d="m85.3487 175.757h-6.0606v6.06h6.0606z"/><path d="m97.4703 175.757h-6.0606v6.06h6.0606z"/><path d="m109.591 175.757h-6.061v6.06h6.061z"/><path d="m145.955 175.757h-6.06v6.06h6.06z"/><path d="m158.076 175.757h-6.06v6.06h6.06z"/><path d="m170.197 175.757h-6.06v6.06h6.06z"/><path d="m176.258 175.757h-6.061v6.06h6.061z"/><path d="m188.379 175.757h-6.061v6.06h6.061z"/><path d="m67.1671 181.818h-6.0607v6.061h6.0607z"/><path d="m85.3487 181.818h-6.0606v6.061h6.0606z"/><path d="m91.4097 181.818h-6.0606v6.061h6.0606z"/><path d="m121.713 181.818h-6.061v6.061h6.061z"/><path d="m127.773 181.818h-6.061v6.061h6.061z"/><path d="m133.834 181.818h-6.061v6.061h6.061z"/><path d="m139.894 181.818h-6.061v6.061h6.061z"/><path d="m152.016 181.818h-6.061v6.061h6.061z"/><path d="m164.137 181.818h-6.061v6.061h6.061z"/><path d="m170.197 181.818h-6.06v6.061h6.06z"/><path d="m48.6827 12.1201h-29.697-6.3636v6.3637 29.6969 6.3637h6.3636 29.697 6.3636v-6.3637-29.6969-6.3637zm0 36.0606h-29.697v-29.6969h29.697z"/><path d="m182.016 12.1201h-29.697-6.364v6.3637 29.6969 6.3637h6.364 29.697 6.363v-6.3637-29.6969-6.3637zm0 36.0606h-29.697v-29.6969h29.697z"/><path d="m48.6827 145.457h-29.697-6.3636v6.364 29.697 6.363h6.3636 29.697 6.3636v-6.363-29.697-6.364zm0 36.061h-29.697v-29.697h29.697z"/><path d="m42.9245 24.2432h-18.1818v18.1818h18.1818z"/><path d="m176.258 24.2432h-18.182v18.1818h18.182z"/><path d="m42.9245 157.575h-18.1818v18.182h18.1818z"/></g></g></svg>