<svg width="16" height="16" viewBox="0 0 16 16" fill="none" xmlns="http://www.w3.org/2000/svg">
<g clip-path="url(#clip0_107_655)">
<rect x="0.5" y="0.5" width="15" height="15" rx="2.5" fill="#1677FF"/>
<path d="M4.55316 12.1336C2.21957 12.1336 1.52965 10.2798 2.68291 9.26556C3.06776 8.9228 3.771 8.75545 4.14593 8.7179C5.53214 8.57975 6.81534 9.11309 8.32965 9.85856C7.26523 11.2589 5.90948 12.1336 4.55316 12.1336ZM12.85 9.99912C12.2498 9.79635 11.4444 9.48632 10.5473 9.159C11.0861 8.21446 11.5164 7.13884 11.7992 5.96985H8.84245V4.89579H12.4645V4.29627H8.84245V2.5058H7.36427C7.10497 2.5058 7.10497 2.76397 7.10497 2.76397V4.29627H3.4417V4.89579H7.10497V5.96985H4.08046V6.56922H9.9464C9.73173 7.31511 9.44352 8.01537 9.10147 8.65159C7.19806 8.01821 5.16699 7.50484 3.89102 7.82082C3.07499 8.02359 2.54944 8.38548 2.24068 8.76466C0.823576 10.5036 1.83996 13.1448 4.83273 13.1448C6.60223 13.1448 8.30684 12.1498 9.62801 10.5101C11.5986 11.4654 15.5 13.1057 15.5 13.1057V10.768C15.5 10.768 15.0101 10.7286 12.85 9.99912Z" fill="white"/>
</g>
<defs>
<clipPath id="clip0_107_655">
<rect width="15" height="15" fill="white" transform="translate(0.5 0.5)"/>
</clipPath>
</defs>
</svg>
