<svg width="33" height="32" viewBox="0 0 33 32" fill="none" xmlns="http://www.w3.org/2000/svg">
<g clip-path="url(#clip0_575_3090)">
<rect x="0.773926" width="32" height="32" rx="16" fill="#1677FF"/>
<path d="M10.467 23.6916C6.09893 23.6916 4.80751 20.2216 6.96624 18.3231C7.68661 17.6815 9.00296 17.3682 9.70477 17.2979C12.2995 17.0393 14.7015 18.0377 17.536 19.4331C15.5436 22.0544 13.0059 23.6916 10.467 23.6916ZM25.9975 19.6962C24.874 19.3166 23.3664 18.7363 21.6872 18.1236C22.6956 16.3555 23.5011 14.3422 24.0305 12.154H18.4959V10.1435H25.2758V9.02131H18.4959V5.66982H15.729C15.2436 5.66982 15.2436 6.15308 15.2436 6.15308V9.02131H8.38656V10.1435H15.2436V12.154H9.58223V13.2759H20.5623C20.1605 14.6721 19.621 15.9829 18.9808 17.1738C15.4179 15.9882 11.616 15.0273 9.22761 15.6187C7.70014 15.9983 6.71639 16.6757 6.13845 17.3855C3.48585 20.6404 5.38837 25.5844 10.9904 25.5844C14.3026 25.5844 17.4933 23.7219 19.9664 20.6526C23.655 22.4408 30.9579 25.5111 30.9579 25.5111L31.9492 21.5C31.9492 21.5 30.0407 21.0616 25.9975 19.6962Z" fill="white"/>
</g>
<defs>
<clipPath id="clip0_575_3090">
<rect width="32" height="32" fill="white" transform="translate(0.773926)"/>
</clipPath>
</defs>
</svg>
