<svg width="18" height="19" viewBox="0 0 18 19" fill="none" xmlns="http://www.w3.org/2000/svg">
<path d="M9.1013 0.645508C4.29224 0.645508 0.373413 4.56433 0.373413 9.3734C0.373413 14.1825 4.29224 18.1013 9.1013 18.1013C13.9104 18.1013 17.8292 14.1825 17.8292 9.3734C17.8292 4.56433 13.9104 0.645508 9.1013 0.645508Z" fill="#929292" fill-opacity="0.9"/>
<path d="M12.0339 11.3808C12.287 11.6339 12.287 12.0528 12.0339 12.306C11.9029 12.4369 11.7371 12.498 11.5713 12.498C11.4055 12.498 11.2396 12.4369 11.1087 12.306L9.10129 10.2985L7.09387 12.306C6.96295 12.4369 6.79712 12.498 6.63129 12.498C6.46546 12.498 6.29963 12.4369 6.16871 12.306C5.9156 12.0528 5.9156 11.6339 6.16871 11.3808L8.17613 9.37338L6.16871 7.36596C5.9156 7.11286 5.9156 6.69392 6.16871 6.44081C6.42182 6.1877 6.84076 6.1877 7.09387 6.44081L9.10129 8.44822L11.1087 6.44081C11.3618 6.1877 11.7807 6.1877 12.0339 6.44081C12.287 6.69392 12.287 7.11286 12.0339 7.36596L10.0264 9.37338L12.0339 11.3808Z" fill="white"/>
</svg>
