<svg width="60" height="18" viewBox="0 0 60 18" fill="none" xmlns="http://www.w3.org/2000/svg">
<rect x="7.25" y="1.92261" width="52.5" height="14.5" rx="1.25" fill="#E5F8EB"/>
<path d="M19.04 8.57261V14.1926H19.75V7.39261C20.1 6.71261 20.39 5.99261 20.63 5.22261L19.96 4.91261C19.51 6.47261 18.8 7.86261 17.82 9.07261L18.05 9.84261C18.41 9.44261 18.74 9.01261 19.04 8.57261ZM20.59 6.32261V7.00261H27.1V6.32261H23.95L24.33 6.18261C24.21 5.81261 24.05 5.41261 23.84 4.97261L23.15 5.16261C23.35 5.54261 23.52 5.92261 23.67 6.32261H20.59ZM21.51 7.81261V8.46261H26.24V7.81261H21.51ZM21.51 9.22261V9.88261H26.24V9.22261H21.51ZM26.42 10.7026H21.32V14.1726H22.02V13.6326H25.72V14.1726H26.42V10.7026ZM22.02 12.9526V11.3726H25.72V12.9526H22.02ZM29.63 8.49261H32.17V10.2426H29.63V8.49261ZM29.59 10.9026H32.17V13.8326H32.91V10.9026H35.63V12.6426C35.63 13.0626 35.44 13.2726 35.08 13.2726C34.74 13.2726 34.37 13.2526 33.97 13.2326L34.16 13.9426H35.31C36.01 13.9426 36.36 13.5926 36.36 12.8926V5.40261H28.91V10.2026C28.89 11.5726 28.56 12.7026 27.92 13.5926L28.47 14.0826C29.11 13.2426 29.48 12.1826 29.59 10.9026ZM35.63 10.2426H32.91V8.49261H35.63V10.2426ZM35.63 7.82261H32.91V6.10261H35.63V7.82261ZM32.17 6.10261V7.82261H29.63V6.10261H32.17ZM39.82 8.41261H45.12V9.51261H39.82V8.41261ZM45.12 7.78261H39.82V6.71261H45.12V7.78261ZM42.46 4.92261L41.69 5.04261C41.85 5.34261 42 5.68261 42.14 6.05261H39.1V13.1926C39.1 13.3326 39.03 13.4326 38.9 13.4926L39.07 14.1426C40.48 13.8426 41.65 13.5226 42.59 13.2026L42.41 12.5226C41.56 12.8326 40.7 13.0826 39.82 13.2826V10.1626H41.6C42.6 12.2026 44.32 13.5326 46.75 14.1426L47.09 13.4726C45.97 13.2226 45.02 12.8126 44.22 12.2526C44.98 11.9326 45.65 11.4826 46.25 10.9026L45.74 10.3926C45.08 11.0526 44.39 11.5226 43.66 11.8226C43.13 11.3526 42.69 10.8026 42.34 10.1626H45.83V6.05261H42.88C42.75 5.63261 42.61 5.25261 42.46 4.92261ZM49.63 4.89261C49.52 5.58261 49.4 6.25261 49.26 6.91261H48.05V7.60261H49.11C48.87 8.62261 48.6 9.57261 48.29 10.4526C48.85 10.8626 49.37 11.2526 49.83 11.6226C49.36 12.4026 48.75 13.0626 47.99 13.6126L48.48 14.2126C49.25 13.6226 49.89 12.9126 50.39 12.0826C50.89 12.5026 51.32 12.8826 51.66 13.2426L52.15 12.6726C51.78 12.3126 51.31 11.9026 50.73 11.4526C51.29 10.2826 51.62 8.90261 51.71 7.32261V6.91261H49.98C50.1 6.31261 50.22 5.65261 50.34 4.95261L49.63 4.89261ZM50.15 11.0126C49.82 10.7726 49.46 10.5126 49.08 10.2426C49.34 9.54261 49.59 8.66261 49.83 7.60261H51C50.91 8.88261 50.63 10.0226 50.15 11.0126ZM52.05 9.20261V9.90261H54.31V12.8826C54.31 13.2226 54.19 13.3926 53.96 13.3926C53.48 13.3926 53.03 13.3826 52.62 13.3826L52.81 14.0626H54.25C54.77 14.0626 55.04 13.7426 55.04 13.1026V9.90261H57.08V9.20261H55.04V8.16261C55.64 7.56261 56.19 6.91261 56.67 6.22261V5.52261H52.34V6.22261H55.85C55.36 6.90261 54.85 7.47261 54.31 7.94261V9.20261H52.05Z" fill="#00B934"/>
<rect x="7.25" y="1.92261" width="52.5" height="14.5" rx="1.25" stroke="#00B934" stroke-width="0.5"/>
<path d="M15.0692 2.5931C11.663 2.5931 8.28062 0.656905 8.24476 0.633001C8.17305 0.597146 8.10134 0.573242 8.02963 0.573242C7.95792 0.573242 7.87426 0.597146 7.8145 0.633001C7.77864 0.656905 4.31262 2.5931 0.942216 2.5931C0.70318 2.5931 0.5 2.79628 0.5 3.03531V9.20244C0.5 11.9394 1.79079 14.2939 4.22896 16.003C6.04563 17.2819 7.8384 17.748 7.91011 17.7599C7.94597 17.7719 7.98182 17.7719 8.01768 17.7719C8.05353 17.7719 8.08939 17.7719 8.12524 17.7599C8.19695 17.736 9.97777 17.2699 11.7944 15.9791C14.2207 14.2581 15.4995 11.9155 15.4995 9.19049V3.03531C15.5115 2.79628 15.3083 2.5931 15.0692 2.5931Z" fill="#00B934"/>
<path d="M7.08579 13.7892C7.04232 13.7892 7.00018 13.7806 6.96126 13.7639C6.88621 13.7313 6.82649 13.6699 6.79165 13.5895C6.75681 13.509 6.74888 13.4142 6.76913 13.3202L7.40604 10.3243H5.19771C5.12958 10.3245 5.06515 10.3037 5.01132 10.2642C4.95749 10.2247 4.91631 10.168 4.89219 10.1003C4.86808 10.0325 4.86194 9.95619 4.87444 9.87953C4.88694 9.80287 4.9176 9.72877 4.96314 9.66517L8.50088 4.67913C8.55674 4.6011 8.63207 4.54292 8.71493 4.51383C8.79778 4.48474 8.88341 4.4864 8.95821 4.51856C9.03004 4.55015 9.08775 4.6083 9.1228 4.6844C9.15785 4.76051 9.16837 4.85051 9.1528 4.9411L8.51343 7.95808H10.7218C10.7899 7.95797 10.8543 7.97877 10.9082 8.01824C10.962 8.05772 11.0032 8.11439 11.0273 8.18216C11.0514 8.24992 11.0575 8.32624 11.045 8.40289C11.0325 8.47955 11.0019 8.55366 10.9563 8.61726L7.41859 13.6033C7.37753 13.6606 7.32571 13.7076 7.26768 13.74C7.20965 13.7724 7.14719 13.7893 7.08579 13.7892Z" fill="white"/>
</svg>
