<svg width="60" height="18" viewBox="0 0 60 18" fill="none" xmlns="http://www.w3.org/2000/svg">
<rect x="7.25" y="1.92261" width="52.5" height="14.5" rx="1.25" fill="#F6F6E5"/>
<path d="M19.04 8.57261V14.1926H19.75V7.39261C20.1 6.71261 20.39 5.99261 20.63 5.22261L19.96 4.91261C19.51 6.47261 18.8 7.86261 17.82 9.07261L18.05 9.84261C18.41 9.44261 18.74 9.01261 19.04 8.57261ZM20.59 6.32261V7.00261H27.1V6.32261H23.95L24.33 6.18261C24.21 5.81261 24.05 5.41261 23.84 4.97261L23.15 5.16261C23.35 5.54261 23.52 5.92261 23.67 6.32261H20.59ZM21.51 7.81261V8.46261H26.24V7.81261H21.51ZM21.51 9.22261V9.88261H26.24V9.22261H21.51ZM26.42 10.7026H21.32V14.1726H22.02V13.6326H25.72V14.1726H26.42V10.7026ZM22.02 12.9526V11.3726H25.72V12.9526H22.02ZM29.63 8.49261H32.17V10.2426H29.63V8.49261ZM29.59 10.9026H32.17V13.8326H32.91V10.9026H35.63V12.6426C35.63 13.0626 35.44 13.2726 35.08 13.2726C34.74 13.2726 34.37 13.2526 33.97 13.2326L34.16 13.9426H35.31C36.01 13.9426 36.36 13.5926 36.36 12.8926V5.40261H28.91V10.2026C28.89 11.5726 28.56 12.7026 27.92 13.5926L28.47 14.0826C29.11 13.2426 29.48 12.1826 29.59 10.9026ZM35.63 10.2426H32.91V8.49261H35.63V10.2426ZM35.63 7.82261H32.91V6.10261H35.63V7.82261ZM32.17 6.10261V7.82261H29.63V6.10261H32.17ZM42.13 4.96261V6.76261H38.55V11.4626H39.27V10.8326H42.13V14.2426H42.87V10.8326H45.74V11.4626H46.46V6.76261H42.87V4.96261H42.13ZM39.27 10.1326V7.46261H42.13V10.1326H39.27ZM42.87 10.1326V7.46261H45.74V10.1326H42.87ZM49.16 7.95261V8.58261H52.14V9.55261H48.05V10.1826H54.29V11.1426H48.64V11.7726H54.29V13.1726C54.29 13.4126 54.15 13.5426 53.87 13.5426C53.45 13.5426 53 13.5226 52.52 13.4926L52.67 14.1726H54.12C54.71 14.1726 55.01 13.8926 55.01 13.3426V11.7726H56.51V11.1426H55.01V10.1826H56.94V9.55261H52.86V8.58261H55.8V7.95261H52.86V7.32261H52.14V7.95261H49.16ZM50.33 12.0526L49.75 12.4126C50.27 12.9326 50.69 13.4026 51 13.8326L51.56 13.4426C51.28 13.0426 50.87 12.5726 50.33 12.0526ZM49.52 6.34261H49.92C50.2 6.73261 50.45 7.13261 50.65 7.55261L51.3 7.31261C51.14 7.01261 50.93 6.69261 50.67 6.34261H52.36V5.73261H49.8C49.88 5.53261 49.95 5.32261 50.03 5.10261L49.35 4.95261C49.08 5.77261 48.65 6.53261 48.07 7.22261L48.69 7.61261C49 7.23261 49.28 6.80261 49.52 6.34261ZM53.58 6.31261H54.17C54.47 6.70261 54.72 7.10261 54.93 7.52261L55.55 7.29261C55.4 6.99261 55.19 6.66261 54.92 6.31261H56.73V5.70261H53.85C53.92 5.50261 53.99 5.29261 54.05 5.08261L53.37 4.94261C53.17 5.64261 52.86 6.27261 52.42 6.85261L53.02 7.23261C53.22 6.95261 53.41 6.65261 53.58 6.31261Z" fill="#A4A700"/>
<rect x="7.25" y="1.92261" width="52.5" height="14.5" rx="1.25" stroke="#A4A700" stroke-width="0.5"/>
<path d="M15.0692 2.5931C11.663 2.5931 8.28062 0.656905 8.24476 0.633001C8.17305 0.597146 8.10134 0.573242 8.02963 0.573242C7.95792 0.573242 7.87426 0.597146 7.8145 0.633001C7.77864 0.656905 4.31262 2.5931 0.942216 2.5931C0.70318 2.5931 0.5 2.79628 0.5 3.03531V9.20244C0.5 11.9394 1.79079 14.2939 4.22896 16.003C6.04563 17.2819 7.8384 17.748 7.91011 17.7599C7.94597 17.7719 7.98182 17.7719 8.01768 17.7719C8.05353 17.7719 8.08939 17.7719 8.12524 17.7599C8.19695 17.736 9.97777 17.2699 11.7944 15.9791C14.2207 14.2581 15.4995 11.9155 15.4995 9.19049V3.03531C15.5115 2.79628 15.3083 2.5931 15.0692 2.5931Z" fill="#A4A700"/>
<path d="M7.08579 13.7892C7.04232 13.7892 7.00018 13.7806 6.96126 13.7639C6.88621 13.7313 6.82649 13.6699 6.79165 13.5895C6.75681 13.509 6.74888 13.4142 6.76913 13.3202L7.40604 10.3243H5.19771C5.12958 10.3245 5.06515 10.3037 5.01132 10.2642C4.95749 10.2247 4.91631 10.168 4.89219 10.1003C4.86808 10.0325 4.86194 9.95619 4.87444 9.87953C4.88694 9.80287 4.9176 9.72877 4.96314 9.66517L8.50088 4.67913C8.55674 4.6011 8.63207 4.54292 8.71493 4.51383C8.79778 4.48474 8.88341 4.4864 8.95821 4.51856C9.03004 4.55015 9.08775 4.6083 9.1228 4.6844C9.15785 4.76051 9.16837 4.85051 9.1528 4.9411L8.51343 7.95808H10.7218C10.7899 7.95797 10.8543 7.97877 10.9082 8.01824C10.962 8.05772 11.0032 8.11439 11.0273 8.18216C11.0514 8.24992 11.0575 8.32624 11.045 8.40289C11.0325 8.47955 11.0019 8.55366 10.9563 8.61726L7.41859 13.6033C7.37753 13.6606 7.32571 13.7076 7.26768 13.74C7.20965 13.7724 7.14719 13.7893 7.08579 13.7892Z" fill="white"/>
</svg>
