<svg width="60" height="18" viewBox="0 0 60 18" fill="none" xmlns="http://www.w3.org/2000/svg">
<rect x="7.25" y="1.92261" width="52.5" height="14.5" rx="1.25" fill="#E5F1FD"/>
<path d="M19.04 8.57261V14.1926H19.75V7.39261C20.1 6.71261 20.39 5.99261 20.63 5.22261L19.96 4.91261C19.51 6.47261 18.8 7.86261 17.82 9.07261L18.05 9.84261C18.41 9.44261 18.74 9.01261 19.04 8.57261ZM20.59 6.32261V7.00261H27.1V6.32261H23.95L24.33 6.18261C24.21 5.81261 24.05 5.41261 23.84 4.97261L23.15 5.16261C23.35 5.54261 23.52 5.92261 23.67 6.32261H20.59ZM21.51 7.81261V8.46261H26.24V7.81261H21.51ZM21.51 9.22261V9.88261H26.24V9.22261H21.51ZM26.42 10.7026H21.32V14.1726H22.02V13.6326H25.72V14.1726H26.42V10.7026ZM22.02 12.9526V11.3726H25.72V12.9526H22.02ZM29.63 8.49261H32.17V10.2426H29.63V8.49261ZM29.59 10.9026H32.17V13.8326H32.91V10.9026H35.63V12.6426C35.63 13.0626 35.44 13.2726 35.08 13.2726C34.74 13.2726 34.37 13.2526 33.97 13.2326L34.16 13.9426H35.31C36.01 13.9426 36.36 13.5926 36.36 12.8926V5.40261H28.91V10.2026C28.89 11.5726 28.56 12.7026 27.92 13.5926L28.47 14.0826C29.11 13.2426 29.48 12.1826 29.59 10.9026ZM35.63 10.2426H32.91V8.49261H35.63V10.2426ZM35.63 7.82261H32.91V6.10261H35.63V7.82261ZM32.17 6.10261V7.82261H29.63V6.10261H32.17ZM39.23 8.49261V14.1726H39.95V7.39261C40.31 6.74261 40.62 6.05261 40.86 5.33261L40.21 5.03261C39.72 6.57261 38.94 7.94261 37.86 9.14261L38.07 9.86261C38.49 9.43261 38.88 8.97261 39.23 8.49261ZM40.67 7.44261V8.14261H42.69C42.47 10.6226 41.69 12.4626 40.35 13.6826L40.88 14.1426C42.32 12.8126 43.16 10.8126 43.38 8.14261H44.01V13.1826C44.01 13.7326 44.27 14.0126 44.8 14.0126H46.04C46.3 14.0026 46.51 13.9026 46.65 13.7226C46.79 13.5026 46.9 12.8526 46.97 11.7926L46.32 11.5826C46.29 12.5026 46.23 13.0326 46.14 13.1826C46.06 13.2926 45.97 13.3526 45.86 13.3526H44.99C44.79 13.3526 44.7 13.2526 44.7 13.0526V8.14261H46.78V7.44261H43.42C43.43 7.24261 43.44 7.04261 43.44 6.84261V5.03261H42.75V6.84261C42.75 7.04261 42.74 7.24261 42.73 7.44261H40.67ZM44.75 5.21261L44.28 5.66261C44.94 6.13261 45.45 6.58261 45.83 7.01261L46.32 6.52261C45.9 6.08261 45.37 5.64261 44.75 5.21261ZM53.15 7.65261C53.84 8.57261 55 9.32261 56.63 9.89261L56.95 9.23261C55.59 8.85261 54.56 8.32261 53.88 7.65261H56.68V6.98261H52.92V6.07261C54.01 5.97261 54.97 5.84261 55.81 5.66261L55.46 5.05261C53.75 5.40261 51.6 5.58261 49.01 5.59261L49.22 6.20261C50.28 6.20261 51.26 6.17261 52.18 6.12261V6.98261H48.26V7.65261H51.21C50.63 8.25261 49.59 8.80261 48.08 9.28261L48.49 9.94261C50.17 9.30261 51.32 8.54261 51.94 7.65261H52.18V9.40261H52.92V7.65261H53.15ZM51.03 10.5226C50.89 11.9226 49.95 12.9226 48.21 13.5226L48.6 14.1526C50.52 13.3926 51.56 12.1826 51.7 10.5226H53.93L53.5 11.8626H55.48C55.38 12.6826 55.24 13.1726 55.04 13.3226C54.94 13.4026 54.79 13.4526 54.59 13.4526C54.19 13.4526 53.72 13.4426 53.19 13.4326L53.39 14.1026C54.1 14.0926 54.64 14.0726 55.01 14.0426C55.3 14.0026 55.52 13.8926 55.67 13.7026C55.93 13.4426 56.11 12.7126 56.19 11.5226V11.1926H54.39L54.73 10.1926V9.85261H49.62V10.5226H51.03Z" fill="#0076EB"/>
<rect x="7.25" y="1.92261" width="52.5" height="14.5" rx="1.25" stroke="#0076EB" stroke-width="0.5"/>
<path d="M15.0692 2.5931C11.663 2.5931 8.28062 0.656905 8.24476 0.633001C8.17305 0.597146 8.10134 0.573242 8.02963 0.573242C7.95792 0.573242 7.87426 0.597146 7.8145 0.633001C7.77864 0.656905 4.31262 2.5931 0.942216 2.5931C0.70318 2.5931 0.5 2.79628 0.5 3.03531V9.20244C0.5 11.9394 1.79079 14.2939 4.22896 16.003C6.04563 17.2819 7.8384 17.748 7.91011 17.7599C7.94597 17.7719 7.98182 17.7719 8.01768 17.7719C8.05353 17.7719 8.08939 17.7719 8.12524 17.7599C8.19695 17.736 9.97777 17.2699 11.7944 15.9791C14.2207 14.2581 15.4995 11.9155 15.4995 9.19049V3.03531C15.5115 2.79628 15.3083 2.5931 15.0692 2.5931Z" fill="#0076EB"/>
<path d="M7.08579 13.7892C7.04232 13.7892 7.00018 13.7806 6.96126 13.7639C6.88621 13.7313 6.82649 13.6699 6.79165 13.5895C6.75681 13.509 6.74888 13.4142 6.76913 13.3202L7.40604 10.3243H5.19771C5.12958 10.3245 5.06515 10.3037 5.01132 10.2642C4.95749 10.2247 4.91631 10.168 4.89219 10.1003C4.86808 10.0325 4.86194 9.95619 4.87444 9.87953C4.88694 9.80287 4.9176 9.72877 4.96314 9.66517L8.50088 4.67913C8.55674 4.6011 8.63207 4.54292 8.71493 4.51383C8.79778 4.48474 8.88341 4.4864 8.95821 4.51856C9.03004 4.55015 9.08775 4.6083 9.1228 4.6844C9.15785 4.76051 9.16837 4.85051 9.1528 4.9411L8.51343 7.95808H10.7218C10.7899 7.95797 10.8543 7.97877 10.9082 8.01824C10.962 8.05772 11.0032 8.11439 11.0273 8.18216C11.0514 8.24992 11.0575 8.32624 11.045 8.40289C11.0325 8.47955 11.0019 8.55366 10.9563 8.61726L7.41859 13.6033C7.37753 13.6606 7.32571 13.7076 7.26768 13.74C7.20965 13.7724 7.14719 13.7893 7.08579 13.7892Z" fill="white"/>
</svg>
