<svg width="22" height="22" viewBox="0 0 22 22" fill="none" xmlns="http://www.w3.org/2000/svg">
<g clip-path="url(#clip0_599_8693)">
<rect width="22" height="22" rx="2.5" fill="#17AB4C"/>
<path d="M14.3669 8.51556C12.762 8.59907 11.3671 9.08578 10.2338 10.1849C9.08859 11.2951 8.56609 12.6558 8.70924 14.3426C8.08176 14.2647 7.51075 14.1796 6.93655 14.1311C6.73773 14.1144 6.50233 14.1382 6.33452 14.2329C5.77703 14.5478 5.2418 14.9033 4.60796 15.2994C4.72407 14.7729 4.79962 14.3124 4.93323 13.8694C5.03105 13.5434 4.98572 13.3628 4.68589 13.1505C2.75971 11.7906 1.94773 9.75542 2.55532 7.65983C3.1168 5.72172 4.49741 4.54548 6.37349 3.93311C8.93431 3.09647 11.8117 3.94981 13.3688 5.98257C13.9303 6.71662 14.2754 7.54133 14.3669 8.51556ZM6.98109 7.86263C6.9962 7.4793 6.66377 7.13415 6.26931 7.12222C5.8653 7.11029 5.53367 7.41886 5.52174 7.8173C5.50981 8.22051 5.81838 8.54419 6.22477 8.55453C6.62798 8.56487 6.96598 8.2555 6.98109 7.86263ZM10.8342 7.12222C10.4382 7.12938 10.1042 7.46658 10.1105 7.8515C10.1177 8.24994 10.4461 8.56248 10.8533 8.55771C11.2613 8.55294 11.5715 8.23721 11.5675 7.83002C11.5643 7.43079 11.2375 7.11506 10.8342 7.12222Z" fill="white"/>
<path d="M17.9719 18.5196C17.4638 18.2938 16.9977 17.9542 16.5015 17.9025C16.0068 17.8508 15.4875 18.1363 14.9705 18.1888C13.3951 18.3502 11.9834 17.9112 10.8199 16.8344C8.60666 14.7873 8.92319 11.6483 11.4832 9.97027C13.7593 8.47911 17.0971 8.97616 18.7012 11.0455C20.1017 12.8508 19.9371 15.247 18.2272 16.7636C17.7326 17.2026 17.5544 17.5637 17.8717 18.1427C17.9314 18.25 17.9378 18.3852 17.9719 18.5196ZM12.1878 12.92C12.5115 12.92 12.7779 12.6671 12.7899 12.3474C12.8026 12.0094 12.5306 11.7255 12.1918 11.7239C11.8562 11.7223 11.5755 12.0102 11.5874 12.3434C11.5985 12.6623 11.8665 12.9192 12.1878 12.92ZM15.9161 11.7255C15.602 11.7231 15.3356 11.98 15.3229 12.2973C15.3093 12.6361 15.5726 12.9152 15.9082 12.916C16.2327 12.9168 16.4895 12.6719 16.5007 12.349C16.5142 12.0086 16.2502 11.7279 15.9161 11.7255Z" fill="white"/>
</g>
<defs>
<clipPath id="clip0_599_8693">
<rect width="22" height="22" fill="white"/>
</clipPath>
</defs>
</svg>
