<svg width="23" height="23" viewBox="0 0 23 23" fill="none" xmlns="http://www.w3.org/2000/svg">
<g clip-path="url(#clip0_599_8699)">
<rect x="0.5" y="0.5" width="22" height="22" rx="2.5" fill="#1677FF"/>
<path d="M6.44459 17.5626C3.02198 17.5626 2.0101 14.8437 3.70156 13.3561C4.266 12.8534 5.29742 12.608 5.84731 12.5529C7.88042 12.3503 9.76245 13.1325 11.9834 14.2259C10.4223 16.2798 8.43385 17.5626 6.44459 17.5626ZM18.6133 14.432C17.733 14.1346 16.5518 13.6799 15.236 13.1999C16.0262 11.8145 16.6573 10.2369 17.0721 8.52242H12.7355V6.94714H18.0479V6.06785H12.7355V3.44182H10.5676C10.1872 3.44182 10.1872 3.82047 10.1872 3.82047V6.06785H4.81444V6.94714H10.1872V8.52242H5.7513V9.40151H14.3547C14.0398 10.4955 13.6171 11.5225 13.1154 12.4556C10.3238 11.5267 7.34487 10.7738 5.47344 11.2372C4.2766 11.5346 3.50579 12.0654 3.05295 12.6215C0.974529 15.1719 2.46523 19.0457 6.85462 19.0457C9.44989 19.0457 11.95 17.5863 13.8877 15.1814C16.7779 16.5826 22.5 18.9883 22.5 18.9883V15.5597C22.5 15.5597 21.7814 15.5019 18.6133 14.432Z" fill="white"/>
</g>
<defs>
<clipPath id="clip0_599_8699">
<rect width="22" height="22" fill="white" transform="translate(0.5 0.5)"/>
</clipPath>
</defs>
</svg>
