<svg width="28" height="28" viewBox="0 0 28 28" fill="none" xmlns="http://www.w3.org/2000/svg">
<path d="M13.2235 1.64154C13.9111 1.24453 14.7583 1.24453 15.446 1.64154L24.7717 7.02577C25.4594 7.42278 25.883 8.15647 25.883 8.95048V19.719C25.883 20.513 25.4594 21.2467 24.7717 21.6437L15.446 27.0279C14.7583 27.4249 13.9111 27.4249 13.2235 27.0279L3.89774 21.6437C3.21011 21.2467 2.78652 20.513 2.78652 19.719V8.95048C2.78652 8.15647 3.21011 7.42278 3.89774 7.02577L13.2235 1.64154Z" fill="url(#paint0_linear_575_3905)"/>
<path fill-rule="evenodd" clip-rule="evenodd" d="M14.3346 6.55609C11.8798 6.55609 9.88971 8.54615 9.88971 11.001C9.88971 13.0722 11.3063 14.8125 13.2235 15.3059L13.2235 21.0022C13.2235 21.6159 13.721 22.1135 14.3347 22.1135C14.9484 22.1135 15.446 21.6159 15.446 21.0022L15.446 19.891H16.5572C17.1709 19.891 17.6684 19.3935 17.6684 18.7798C17.6684 18.166 17.1709 17.6685 16.5572 17.6685H15.446L15.446 15.3059C17.363 14.8124 18.7795 13.0721 18.7795 11.001C18.7795 8.54615 16.7895 6.55609 14.3346 6.55609ZM14.3348 8.77862C13.1073 8.77862 12.1123 9.77365 12.1123 11.0011C12.1123 12.2285 13.1073 13.2235 14.3348 13.2235C15.5622 13.2235 16.5572 12.2285 16.5572 11.0011C16.5572 9.77365 15.5622 8.77862 14.3348 8.77862Z" fill="white"/>
<defs>
<linearGradient id="paint0_linear_575_3905" x1="14.3347" y1="0.999969" x2="14.3347" y2="27.6695" gradientUnits="userSpaceOnUse">
<stop stop-color="#EA9A59"/>
<stop offset="1" stop-color="#E7792E"/>
</linearGradient>
</defs>
</svg>
