<svg width="28" height="28" viewBox="0 0 28 28" fill="none" xmlns="http://www.w3.org/2000/svg">
<path fill-rule="evenodd" clip-rule="evenodd" d="M25.7127 9.9748C25.7127 8.78424 24.7475 7.8191 23.557 7.8191H5.2336C4.63832 7.8191 4.15575 7.33654 4.15575 6.74126C4.15575 6.14598 4.63832 5.66341 5.23359 5.66341L23.557 5.66341C23.557 4.47286 22.5919 3.50772 21.4013 3.50772H4.15575C2.96519 3.50772 2.00006 4.47286 2.00006 5.66341V9.9748V22.9089C2.00006 24.0995 2.96519 25.0646 4.15575 25.0646H23.557C24.7475 25.0646 25.7127 24.0995 25.7127 22.9089V9.9748Z" fill="url(#paint0_linear_575_3193)"/>
<path d="M17.142 20.7533C17.142 20.158 17.6245 19.6754 18.2198 19.6754H21.4013C21.9965 19.6754 22.4791 20.158 22.4791 20.7533C22.4791 21.3485 21.9965 21.8311 21.4013 21.8311H18.2198C17.6245 21.8311 17.142 21.3485 17.142 20.7533Z" fill="white"/>
<defs>
<linearGradient id="paint0_linear_575_3193" x1="13.8564" y1="3.50772" x2="13.8564" y2="25.0646" gradientUnits="userSpaceOnUse">
<stop stop-color="#5ECAA2"/>
<stop offset="1" stop-color="#3CB78E"/>
</linearGradient>
</defs>
</svg>
