<svg width="33" height="32" viewBox="0 0 33 32" fill="none" xmlns="http://www.w3.org/2000/svg">
<g clip-path="url(#clip0_575_3676)">
<rect x="0.773926" width="32" height="32" rx="16" fill="#17AB4C"/>
<path d="M21.059 12.8502C19.0165 12.9565 17.2411 13.5759 15.7987 14.9748C14.3412 16.3878 13.6762 18.1196 13.8584 20.2665C13.0598 20.1673 12.333 20.059 11.6022 19.9972C11.3492 19.976 11.0496 20.0063 10.836 20.1268C10.1265 20.5276 9.44526 20.98 8.63855 21.4841C8.78633 20.8141 8.88249 20.228 9.05254 19.6642C9.17703 19.2492 9.11934 19.0194 8.73775 18.7492C6.28624 17.0184 5.2528 14.4282 6.02611 11.7611C6.74071 9.2944 8.49786 7.79738 10.8856 7.018C14.1448 5.95318 17.8069 7.03925 19.7887 9.62639C20.5033 10.5606 20.9426 11.6103 21.059 12.8502ZM11.6589 12.0192C11.6781 11.5313 11.255 11.092 10.753 11.0768C10.2388 11.0617 9.81673 11.4544 9.80155 11.9615C9.78637 12.4747 10.1791 12.8866 10.6963 12.8998C11.2095 12.913 11.6397 12.5192 11.6589 12.0192ZM16.5629 11.0768C16.0589 11.086 15.6337 11.5151 15.6418 12.005C15.6509 12.5121 16.069 12.9099 16.5872 12.9038C17.1065 12.8978 17.5012 12.4959 17.4962 11.9777C17.4921 11.4696 17.0761 11.0677 16.5629 11.0768Z" fill="white"/>
<path d="M25.6473 25.5825C25.0005 25.295 24.4073 24.8628 23.7757 24.797C23.1462 24.7312 22.4852 25.0946 21.8273 25.1614C19.8222 25.3669 18.0255 24.8081 16.5447 23.4376C13.7278 20.8323 14.1307 16.8372 17.3889 14.7015C20.2857 12.8036 24.5339 13.4363 26.5754 16.07C28.3579 18.3676 28.1484 21.4173 25.9722 23.3476C25.3426 23.9063 25.1159 24.3658 25.5197 25.1027C25.5956 25.2393 25.6037 25.4114 25.6473 25.5825ZM18.2857 18.4557C18.6976 18.4557 19.0367 18.1338 19.0519 17.7269C19.0681 17.2967 18.7219 16.9354 18.2907 16.9333C17.8636 16.9313 17.5063 17.2977 17.5215 17.7218C17.5356 18.1277 17.8767 18.4547 18.2857 18.4557ZM23.0308 16.9354C22.631 16.9323 22.2919 17.2593 22.2757 17.6631C22.2585 18.0943 22.5935 18.4496 23.0206 18.4506C23.4336 18.4516 23.7606 18.1399 23.7747 17.7289C23.7919 17.2957 23.4559 16.9384 23.0308 16.9354Z" fill="white"/>
</g>
<defs>
<clipPath id="clip0_575_3676">
<rect width="32" height="32" fill="white" transform="translate(0.773926)"/>
</clipPath>
</defs>
</svg>
