<svg width="16" height="16" viewBox="0 0 16 16" fill="none" xmlns="http://www.w3.org/2000/svg">
<g clip-path="url(#clip0_107_654)">
<rect x="0.5" y="0.5" width="15" height="15" rx="2.5" fill="#17AB4C"/>
<path d="M10.2956 6.30615C9.20139 6.36309 8.2503 6.69494 7.47761 7.44432C6.69678 8.20129 6.34053 9.12907 6.43813 10.2792C6.0103 10.226 5.62098 10.168 5.22948 10.1349C5.09392 10.1235 4.93342 10.1398 4.819 10.2043C4.43889 10.4191 4.07396 10.6614 3.6418 10.9315C3.72097 10.5725 3.77248 10.2586 3.86358 9.95653C3.93027 9.73421 3.89936 9.61112 3.69494 9.46634C2.38163 8.53911 1.82801 7.15151 2.24228 5.7227C2.6251 4.40126 3.56643 3.59928 4.84557 3.18176C6.59159 2.61132 8.55341 3.19314 9.61512 4.57911C9.99794 5.0796 10.2333 5.64191 10.2956 6.30615ZM5.25984 5.86097C5.27015 5.59961 5.04349 5.36428 4.77454 5.35615C4.49908 5.34801 4.27297 5.5584 4.26483 5.83007C4.2567 6.10498 4.46709 6.32568 4.74417 6.33272C5.01909 6.33977 5.24954 6.12884 5.25984 5.86097ZM7.887 5.35615C7.61696 5.36103 7.38922 5.59094 7.39356 5.85338C7.39844 6.12505 7.62238 6.33815 7.90001 6.33489C8.17818 6.33164 8.38965 6.11637 8.38694 5.83874C8.38477 5.56654 8.16191 5.35127 7.887 5.35615Z" fill="white"/>
<path d="M12.7536 13.1271C12.4072 12.9731 12.0894 12.7416 11.751 12.7063C11.4138 12.6711 11.0597 12.8658 10.7072 12.9015C9.63305 13.0116 8.67058 12.7123 7.87728 11.9781C6.36822 10.5824 6.58404 8.44214 8.32951 7.29801C9.8814 6.28131 12.1572 6.62021 13.2509 8.03112C14.2058 9.26201 14.0935 10.8958 12.9277 11.9298C12.5904 12.2292 12.469 12.4753 12.6853 12.8701C12.726 12.9433 12.7303 13.0355 12.7536 13.1271ZM8.80993 9.30919C9.03062 9.30919 9.21227 9.13675 9.22041 8.91877C9.22908 8.68832 9.04364 8.49474 8.81264 8.49366C8.58382 8.49257 8.39241 8.68886 8.40054 8.91606C8.40813 9.1335 8.59087 9.30865 8.80993 9.30919ZM11.352 8.49474C11.1378 8.49311 10.9561 8.66826 10.9474 8.88461C10.9382 9.11561 11.1177 9.30593 11.3465 9.30648C11.5678 9.30702 11.7429 9.14001 11.7505 8.91986C11.7597 8.68778 11.5797 8.49637 11.352 8.49474Z" fill="white"/>
</g>
<defs>
<clipPath id="clip0_107_654">
<rect width="15" height="15" fill="white" transform="translate(0.5 0.5)"/>
</clipPath>
</defs>
</svg>
