<svg width="150" height="150" viewBox="0 0 150 150" fill="none" xmlns="http://www.w3.org/2000/svg">
<g clip-path="url(#clip0_599_8928)">
<path d="M75.0137 150.027C116.443 150.027 150.027 116.443 150.027 75.0137C150.027 33.5848 116.443 0 75.0137 0C33.5848 0 0 33.5848 0 75.0137C0 116.443 33.5848 150.027 75.0137 150.027Z" fill="url(#paint0_linear_599_8928)"/>
<path d="M149.397 84.548C141.123 80.9315 130.384 79.2055 123.644 81.726C117.343 84.0822 118.356 88.7671 111.891 90.7124C101.452 93.8356 94.2193 83.0137 78.685 83.5069C64.8494 83.9726 60.0549 92.8767 49.6165 90.7124C43.096 89.3425 41.8631 85.2329 37.233 82.3288C29.4522 77.4521 14.5207 77.5069 0.191895 80.274C1.50696 99.0411 9.69874 115.918 22.3015 128.356C36.4659 130.986 51.8905 132.384 66.9042 131.808C93.3152 130.822 120.055 123.753 138.247 115.315C144.082 106.219 147.973 95.7808 149.397 84.548Z" fill="url(#paint1_linear_599_8928)"/>
<path d="M122.137 49.4248H95.0411C93.4521 49.4248 92 48.8495 90.8768 47.8906C89.4795 46.7125 88.6028 44.9591 88.6028 42.9865C88.6028 41.2056 89.3151 39.6166 90.4932 38.4385C91.6439 37.2878 93.2603 36.5481 95.0411 36.5481H122.137C123.918 36.5481 125.507 37.2604 126.685 38.4385C127.836 39.5892 128.575 41.2056 128.575 42.9865C128.575 44.7673 127.863 46.3563 126.685 47.5344C125.507 48.7125 123.918 49.4248 122.137 49.4248Z" fill="#D8E2F4"/>
<path d="M115.692 40.961C116.958 35.7409 113.752 30.4829 108.532 29.2168C103.312 27.9507 98.0541 31.1561 96.788 36.3761C95.522 41.5962 98.7273 46.8542 103.947 48.1203C109.167 49.3864 114.425 46.181 115.692 40.961Z" fill="#D8E2F4"/>
<path d="M39.6713 32.2465H13.0411C11.2877 32.2465 9.72605 31.5342 8.57536 30.4109C7.42468 29.2602 6.73975 27.6986 6.73975 25.9452C6.73975 24.7123 7.09591 23.5342 7.72605 22.5753C8.84934 20.8219 10.8219 19.6438 13.0411 19.6438H39.6439C41.3973 19.6438 42.9589 20.3561 44.1096 21.4794C45.2603 22.6301 45.9452 24.1917 45.9452 25.9452C45.9452 27.5616 45.3425 29.0411 44.3288 30.1643C43.2055 31.452 41.5343 32.2465 39.6713 32.2465Z" fill="white"/>
<path d="M24.0548 31.2329C29.3356 31.2329 33.6165 26.952 33.6165 21.6713C33.6165 16.3905 29.3356 12.1096 24.0548 12.1096C18.7741 12.1096 14.4932 16.3905 14.4932 21.6713C14.4932 26.952 18.7741 31.2329 24.0548 31.2329Z" fill="white"/>
<path d="M126.74 137.836C126.74 138.329 101.754 138.712 70.9042 138.712C40.0549 138.712 15.0686 138.329 15.0686 137.836C15.0686 137.343 40.0549 136.959 70.9042 136.959C101.754 136.959 126.74 137.37 126.74 137.836Z" fill="url(#paint2_radial_599_8928)"/>
<path d="M123.753 118.712C124.931 119.096 124.055 120.74 124.055 121.89C124.055 123.041 124.63 126.219 123.479 126.822C122.329 127.397 120.575 128.548 120.575 129.726C120.575 130.877 120.274 132.329 119.123 132.904C117.973 133.479 116.795 133.479 116.795 134.356C116.795 135.233 117.37 135.507 117.096 136.384C116.795 137.26 116.219 137.534 116.521 137.836H108.986C108.986 137.836 107.534 135.507 107.836 134.082C108.137 132.63 109.562 132.63 109.863 131.479C110.164 130.329 111.589 130.027 111.589 128.877C111.589 127.726 112.164 125.973 113.041 125.397C113.918 124.822 115.644 125.397 116.219 124.247C116.795 123.096 116.219 121.918 117.096 121.342C117.973 120.767 119.699 121.644 120.575 120.767C121.452 119.89 122.904 118.438 123.753 118.712Z" fill="#3FB790"/>
<path d="M122.603 124.603C122.575 124.521 122.493 124.493 122.411 124.493C122.384 124.493 121.068 124.877 120.137 124.849C120.794 122.384 122.192 121.863 122.219 121.863C122.301 121.836 122.329 121.754 122.301 121.671C122.274 121.589 122.192 121.562 122.11 121.589C122.027 121.617 120.274 122.219 119.699 125.452C119.562 126.192 119.068 126.904 118.411 127.589C117.863 127.041 117.671 125.26 117.671 124.603C117.671 124.521 117.616 124.466 117.534 124.466C117.452 124.466 117.397 124.548 117.397 124.603C117.397 124.712 117.479 127.014 118.247 127.781C117.507 128.493 116.603 129.178 115.726 129.863C114.767 130.575 113.836 131.288 113.123 132C113.014 131.699 112.986 130.795 113.068 129.808C113.068 129.726 113.014 129.671 112.931 129.644C112.849 129.644 112.794 129.699 112.767 129.781C112.712 130.384 112.63 131.754 112.904 132.192C112.438 132.712 112.082 133.233 111.918 133.781C111.89 133.863 111.945 133.945 112.027 133.973C112.055 133.973 112.055 133.973 112.082 133.973C112.137 133.973 112.192 133.945 112.219 133.863C112.575 132.685 113.89 131.589 115.342 130.466C116.137 131.233 118.329 131.343 118.438 131.343C118.521 131.343 118.575 131.288 118.575 131.206C118.575 131.123 118.521 131.069 118.438 131.041C118.411 131.041 116.329 130.932 115.562 130.274C115.671 130.192 115.781 130.11 115.89 130.027C117.753 128.603 119.699 127.151 120.027 125.425C120.055 125.288 120.082 125.178 120.11 125.041C120.164 125.041 120.192 125.041 120.247 125.041C121.205 125.041 122.493 124.685 122.548 124.658C122.575 124.767 122.63 124.685 122.603 124.603Z" fill="#34916F"/>
<path d="M106.411 119.288C104.904 120.055 106.411 123.342 106.109 124.493C105.808 125.644 104.959 126.521 105.233 127.671C105.534 128.822 106.109 129.699 106.109 130.849C106.109 132 104.383 133.178 104.657 135.178C104.959 137.206 105.808 137.781 105.808 137.781H112.164C112.164 137.781 112.74 137.206 112.74 136.055C112.74 134.904 111.288 133.726 111.589 133.151C111.89 132.575 113.041 131.425 112.74 129.397C112.438 127.37 111.589 127.37 111.288 126.219C110.986 125.069 111.589 124.493 111.288 123.616C110.986 122.74 109.562 121.89 109.26 121.288C109.014 120.74 108.164 118.438 106.411 119.288Z" fill="#90DAD8"/>
<path d="M111.288 129.452C111.233 129.397 111.123 129.397 111.096 129.479C110.794 129.836 110.082 130.658 109.589 131.041C109.589 130.849 109.616 130.63 109.616 130.438C109.616 129.534 109.616 128.63 109.562 127.753C109.562 127.753 109.562 127.753 109.562 127.726C109.534 126.932 109.452 126.192 109.315 125.479C109.014 124.027 107.616 122.027 107.562 121.945C107.507 121.89 107.425 121.863 107.37 121.918C107.315 121.973 107.288 122.055 107.342 122.11C107.37 122.137 108.767 124.137 109.068 125.534C109.178 126.082 109.233 126.658 109.288 127.26C108.767 126.712 107.89 126.274 107.836 126.247C107.753 126.219 107.671 126.247 107.644 126.301C107.616 126.384 107.644 126.466 107.699 126.493C107.699 126.493 108.986 127.151 109.315 127.753C109.342 128.63 109.37 129.534 109.37 130.411C109.37 131.178 109.26 132 109.151 132.74C109.041 133.425 108.986 134.027 109.014 134.438C108.52 134.137 107.671 133.808 107.562 133.753C107.479 133.726 107.397 133.753 107.37 133.836C107.342 133.918 107.37 134 107.452 134.027C107.836 134.192 108.877 134.63 109.123 134.849C109.452 135.507 109.973 136.877 110 137.808C110 137.89 110.055 137.945 110.137 137.945C110.219 137.945 110.274 137.863 110.274 137.781C110.219 136.795 109.671 135.342 109.342 134.685C109.205 134.411 109.315 133.616 109.425 132.767C109.479 132.329 109.562 131.863 109.589 131.37C110.164 131.014 111.288 129.671 111.342 129.616C111.37 129.616 111.342 129.507 111.288 129.452Z" fill="white"/>
<path d="M90.3562 64.8491C90.3562 64.8491 91.4795 61.4519 91.6439 61.4793C91.8083 61.5067 92.0822 62.3286 92.0822 62.3286C92.0822 62.3286 92.6302 60.9313 93.3425 61.0957C94.0548 61.2601 94.4932 64.9587 93.3973 66.1094L90.3562 64.8491Z" fill="#FFAA9D"/>
<path d="M60.7672 64.63C60.7672 64.63 59.7535 61.3424 59.5891 61.3698C59.4247 61.3698 59.1233 62.1917 59.1233 62.1917C59.1233 62.1917 58.6302 60.767 57.9178 60.8766C57.2055 61.0136 56.5754 64.6848 57.6165 65.8629L60.7672 64.63Z" fill="#FFAA9D"/>
<path d="M94.4932 65.2876L89.9453 63.9177C89.9453 63.9177 86.1371 71.0958 83.4521 75.4794C82.1919 77.5342 80.8494 79.1232 79.6713 80.4383C78.2193 79.9725 76.6028 79.6985 75.0412 79.6985C73.6713 79.6985 72.3289 79.9451 71.0138 80.3287C69.8357 79.0136 68.548 77.4794 67.3152 75.4794C64.6302 71.1232 60.822 63.9177 60.822 63.9177L56.2741 65.2876C56.2741 65.2876 56.1645 68.5753 59.6987 78.9314C61.7809 85.0684 64.0001 88.7122 65.5069 90.7122C65.0686 96.4657 65.233 102.904 65.5343 103.671C66.4384 105.918 83.233 105.918 84.5754 103.452C84.9864 102.685 84.8768 97.1506 84.3836 91.8355C85.7809 90.2465 88.5206 86.4657 91.0686 78.9314C94.6028 68.5753 94.4932 65.2876 94.4932 65.2876Z" fill="url(#paint3_linear_599_8928)"/>
<path d="M45.0959 80.9316L46.0274 81.4247L45.0959 81.9453L44.5753 82.9042L44.0548 81.9453L43.1233 81.4247L44.0548 80.9316L44.5753 79.9727L45.0959 80.9316Z" fill="#FFC400"/>
<path d="M72.5752 59.8082L73.4793 60.3013L72.5752 60.7671L72.0821 61.6712L71.5889 60.7671L70.6848 60.3013L71.5889 59.8082L72.0821 58.9041L72.5752 59.8082Z" fill="#FFC400"/>
<path d="M106.027 82.3562L106.986 82.8767L106.027 83.4247L105.48 84.411L104.959 83.4247L103.973 82.8767L104.959 82.3562L105.48 81.3699L106.027 82.3562Z" fill="#FFC400"/>
<path d="M97.5069 137.973H52.7398C51.0412 137.973 49.6987 136.603 49.6987 134.931V96.6849C49.6987 94.9863 51.0686 93.6438 52.7398 93.6438H97.5069C99.2056 93.6438 100.548 95.0137 100.548 96.6849V134.904C100.548 136.603 99.2056 137.973 97.5069 137.973Z" fill="url(#paint4_linear_599_8928)"/>
<path d="M99.6165 111.069H50.6028C49.2056 111.069 48.1371 109.89 48.274 108.493L49.4795 95.7534C49.5891 94.548 50.6028 93.6165 51.8083 93.6165H98.411C99.6165 93.6165 100.63 94.548 100.74 95.7534L101.945 108.493C102.082 109.89 101.014 111.069 99.6165 111.069Z" fill="#FFC400"/>
<path d="M78.9863 137.973H71.2329V130.603C71.2329 129.671 72 128.904 72.9315 128.904H77.3151C78.2466 128.904 79.0137 129.671 79.0137 130.603V137.973H78.9863Z" fill="#FFF2A6"/>
<path d="M73.9178 80.1644C74.0821 79.3425 74.0547 78.4932 74.1369 78.0001L76.2465 77.9727C76.2739 78.2466 76.4109 79.9453 76.4383 80.1644C76.4931 80.9316 73.7534 81.0411 73.9178 80.1644Z" fill="#FF9F91"/>
<path d="M77.863 73.9179C77.589 73.6714 76.0274 73.5344 75.2602 73.5344C74.9589 73.5344 74.4657 73.2604 74.0274 73.2878C73.3972 73.3426 72.8493 73.781 72.6849 73.9179C72.4109 74.1645 72.6575 76.9864 72.8219 77.507C72.9862 78.0275 73.726 79.4248 75.2876 79.4248C76.8219 79.4248 77.589 78.0549 77.7534 77.507C77.8904 76.9864 78.1369 74.1645 77.863 73.9179Z" fill="#FFAA9D"/>
<path d="M77.9726 73.6439C78.1918 73.5343 78.548 72.3562 77.3699 72.1644C77.3699 72.1644 77.7261 71.0685 76.411 71.1233C75.1233 71.1507 72.7946 71.8631 72.5206 73.8631C72.2466 75.8357 72.5754 77.4521 72.8219 78.274C72.9589 78.685 73.6713 79.8631 75.2329 79.8631C76.7672 79.8631 77.3973 78.6576 77.5343 78.2466C77.7535 77.5891 78.1918 76.411 78.0548 74.9315C78.137 74.9041 78.2192 74.9041 78.3014 74.8494C79.2055 74.3836 77.7535 73.7535 77.9726 73.6439ZM76.685 77.9726C76.0822 77.6987 75.863 77.5617 75.2603 77.5617C74.6576 77.5617 74.4658 77.6165 73.863 77.8904C73.2055 78.1918 72.548 75.5617 73.0959 74.7946C73.6439 74.0274 73.8356 74 74.0274 73.3973C74.0274 73.3973 75.0137 74.274 76.0274 74.1644C76.0274 74.1644 76.3562 74.1096 76.3288 73.6987C76.3288 73.6987 76.685 74.274 77.4247 74.7946C77.8356 75.1233 77.3425 78.274 76.685 77.9726Z" fill="#14336A"/>
</g>
<defs>
<linearGradient id="paint0_linear_599_8928" x1="75.0137" y1="150.027" x2="75.0137" y2="3.10922e-07" gradientUnits="userSpaceOnUse">
<stop stop-color="white" stop-opacity="0"/>
<stop offset="1" stop-color="white"/>
</linearGradient>
<linearGradient id="paint1_linear_599_8928" x1="74.7959" y1="129.292" x2="74.7959" y2="86.4013" gradientUnits="userSpaceOnUse">
<stop stop-color="#FEFEFD"/>
<stop offset="0.8395" stop-color="#EBF3FF"/>
</linearGradient>
<radialGradient id="paint2_radial_599_8928" cx="0" cy="0" r="1" gradientUnits="userSpaceOnUse" gradientTransform="translate(70.9117 137.847) scale(57.8385 38.9406)">
<stop stop-color="#D0DFF3" stop-opacity="0.42"/>
<stop offset="0.9872" stop-color="#D0DFF3" stop-opacity="0.19"/>
</radialGradient>
<linearGradient id="paint3_linear_599_8928" x1="75.294" y1="69.0512" x2="74.5002" y2="105.947" gradientUnits="userSpaceOnUse">
<stop stop-color="#3162DF"/>
<stop offset="0.9649" stop-color="#173DB8"/>
</linearGradient>
<linearGradient id="paint4_linear_599_8928" x1="75.1118" y1="106.956" x2="75.1354" y2="134.163" gradientUnits="userSpaceOnUse">
<stop stop-color="#FF8E00"/>
<stop offset="1" stop-color="#FFCF01"/>
</linearGradient>
<clipPath id="clip0_599_8928">
<rect width="150" height="150" fill="white"/>
</clipPath>
</defs>
</svg>
