<svg width="150" height="150" viewBox="0 0 150 150" fill="none" xmlns="http://www.w3.org/2000/svg">
<g clip-path="url(#clip0_330_10195)">
<path d="M75 150C116.421 150 150 116.421 150 75C150 33.5786 116.421 0 75 0C33.5786 0 0 33.5786 0 75C0 116.421 33.5786 150 75 150Z" fill="url(#paint0_linear_330_10195)"/>
<path d="M149.397 84.5366C141.132 80.9258 130.371 79.1971 123.65 81.7148C117.344 84.0791 118.357 88.7694 111.886 90.7063C101.443 93.8322 94.2075 82.997 78.6683 83.512C64.8414 83.9695 60.0498 92.8952 49.6036 90.7063C43.0888 89.342 41.856 85.2216 37.2178 82.3148C29.4482 77.4438 14.531 77.4958 0.189026 80.282C1.49583 99.0484 9.70374 115.914 22.2951 128.354C36.4589 130.973 51.8693 132.373 66.9044 131.814C93.3226 130.834 120.042 123.76 138.242 115.336C144.063 106.221 147.973 95.7664 149.397 84.5366Z" fill="url(#paint1_linear_330_10195)"/>
<path d="M45.434 47.9955H24.5772C23.358 47.9955 22.243 47.5544 21.38 46.8202C20.3143 45.9134 19.6376 44.5627 19.6376 43.0559C19.6376 41.6916 20.191 40.456 21.0842 39.5629C21.9773 38.6698 23.2128 38.1164 24.5772 38.1164H45.434C46.7983 38.1164 48.0339 38.6698 48.927 39.5629C49.8201 40.456 50.3735 41.6916 50.3735 43.0559C50.3735 44.4203 49.8201 45.6558 48.927 46.549C48.0311 47.4448 46.7983 47.9955 45.434 47.9955Z" fill="#D8E2F4"/>
<path d="M33.2097 47.1983C37.3434 47.1983 40.6944 43.8473 40.6944 39.7136C40.6944 35.5799 37.3434 32.2289 33.2097 32.2289C29.0761 32.2289 25.7251 35.5799 25.7251 39.7136C25.7251 43.8473 29.0761 47.1983 33.2097 47.1983Z" fill="#D8E2F4"/>
<path d="M134.236 33.2481H107.621C105.881 33.2481 104.303 32.5413 103.163 31.4016C102.024 30.2619 101.317 28.6839 101.317 26.9442C101.317 25.7031 101.676 24.5443 102.295 23.569C103.413 21.8074 105.38 20.6403 107.621 20.6403H134.236C135.976 20.6403 137.554 21.3471 138.694 22.4868C139.833 23.6265 140.54 25.2045 140.54 26.9442C140.54 28.5688 139.926 30.0482 138.918 31.166C137.765 32.4454 136.094 33.2481 134.236 33.2481Z" fill="#E3ECFC"/>
<path d="M128.067 24.209C128.912 19.0026 125.376 14.0969 120.17 13.2519C114.963 12.4069 110.057 15.9426 109.212 21.1491C108.367 26.3556 111.903 31.2612 117.11 32.1062C122.316 32.9512 127.222 29.4155 128.067 24.209Z" fill="#E3ECFC"/>
<path d="M114.24 133.091C114.24 133.74 95.328 134.266 72.0001 134.266C48.6722 134.266 29.7606 133.74 29.7606 133.091C29.7606 132.442 48.6722 131.916 72.0001 131.916C95.328 131.916 114.24 132.442 114.24 133.091Z" fill="url(#paint2_radial_330_10195)"/>
<path d="M62.1648 61.6525C62.1648 61.6525 58.417 58.0335 58.2664 58.1211C58.1184 58.2115 58.2527 59.1348 58.2527 59.1348C58.2527 59.1348 57.0664 58.0636 56.4692 58.5513C55.8747 59.0362 58.2691 63.6798 59.8334 64.2552L62.1648 61.6525Z" fill="#FFAA9D"/>
<path d="M61.2991 60.2224L58.3622 63.5757C58.3622 63.5757 62.7813 72.2494 71.7398 72.5315C80.6957 72.8137 88.4187 68.0988 88.2653 62.4826C88.142 58.0444 80.4272 61.3594 77.6383 62.7073C74.8466 64.0579 69.507 66.1893 61.2991 60.2224Z" fill="url(#paint3_linear_330_10195)"/>
<path d="M87.7393 127.176L88.2488 129.943H79.1505L78.0876 127.176H87.7393Z" fill="#FFAA9D"/>
<path d="M79.1505 129.943H88.4899L88.92 132.825H76.326L79.1505 129.943Z" fill="#0B2252"/>
<path d="M88.2488 127.176C88.2488 127.176 86.6242 113.64 86.5667 112.585C86.5092 111.527 86.4681 108.004 88.2488 106.539C90.0296 105.07 94.2404 99.621 94.7856 94.665C95.3308 89.709 94.7856 81.4052 94.7856 81.4052H83.4216C83.4216 81.4052 74.6822 95.1444 74.6822 103.07C74.6822 113.111 76.5397 126.297 77.0657 127.176H88.2488Z" fill="url(#paint4_linear_330_10195)"/>
<path d="M98.1745 81.4052L106.284 127.176H95.6403L81.9915 85.0927L98.1745 81.4052Z" fill="#14336D"/>
<path d="M97.1992 129.943H106.297L106.98 132.825H95.4376L97.1992 129.943Z" fill="#0B2252"/>
<path d="M105.791 127.176L106.297 129.943H97.1992L96.1362 127.176H105.791Z" fill="#FFAA9D"/>
<path d="M95.8622 62.4141C95.8622 62.4141 99.8073 83.2325 99.2183 84.3695C97.2348 88.2022 79.5697 87.3529 80.2902 85.3147C82.2627 79.7477 81.9121 64.6551 83.8517 62.0744C85.6489 59.6855 88.1036 59.3896 90.183 59.3896C94.6349 59.3923 95.5143 60.3759 95.8622 62.4141Z" fill="url(#paint5_linear_330_10195)"/>
<path d="M85.2955 54.2254L84.8572 57.0719L85.2846 57.1184C85.2846 57.1184 85.2983 59.5266 87.0187 59.3841C87.5119 59.343 88.1803 59.0225 88.3447 59.1266C88.5392 59.2526 88.542 59.9101 88.5639 60.1046C88.6461 60.8443 91.246 60.469 90.9419 59.68C90.6542 58.9321 90.2104 57.902 90.3693 57.6554C90.92 56.7952 91.3556 54.5295 89.1639 53.4473C87.4187 52.5844 85.4517 53.2528 85.2955 54.2254Z" fill="#FFAA9D"/>
<path d="M90.9419 59.6772C90.6542 58.9293 90.2104 57.8992 90.3693 57.6526C90.3693 57.6526 89.1995 59.0033 88.2762 59.1047C88.2735 59.1047 88.2735 59.1047 88.2708 59.1047C88.3009 59.1074 88.3255 59.1101 88.3447 59.1238C88.5392 59.2498 88.542 59.9074 88.5639 60.1019C88.6461 60.8416 91.246 60.4662 90.9419 59.6772Z" fill="#FF9F91"/>
<path d="M88.9611 56.1568C90.0597 56.1212 89.0625 58.4225 90.257 58.5074C91.4515 58.5924 92.635 56.1185 92.0432 54.0035C91.4515 51.8885 89.783 51.7707 88.1721 51.8255C86.5612 51.8803 84.5312 52.3241 84.3668 53.5158C83.9723 56.3815 87.6954 54.4473 87.7995 55.3404C87.8817 56.0308 87.8817 57.9951 87.1831 57.9431C86.4873 57.891 85.8626 57.2253 85.2955 57.2965C84.9695 57.3376 83.586 60.9758 85.827 61.4142C88.0461 61.847 88.8844 59.954 88.6351 58.2773C88.3995 56.6774 88.4242 56.1733 88.9611 56.1568Z" fill="#14336A"/>
<path d="M91.2706 86.1558C91.2706 86.1558 87.331 89.5693 87.4078 89.7255C87.4845 89.8817 88.4159 89.8296 88.4159 89.8296C88.4159 89.8296 87.2461 90.9172 87.6762 91.5528C88.1064 92.1884 92.9418 90.2159 93.6568 88.7091L91.2706 86.1558Z" fill="#FFAA9D"/>
<path d="M89.7693 86.8899L92.8487 90.1117C92.8487 90.1117 101.881 86.479 102.958 77.5834C104.035 68.6878 100.024 60.5758 94.4157 60.2306C89.983 59.9594 92.6021 67.9372 93.6952 70.8357C94.791 73.737 96.443 79.2436 89.7693 86.8899Z" fill="url(#paint6_linear_330_10195)"/>
<path d="M29.4044 106.336C29.1962 107.377 30.4455 107.585 30.6537 109.04C30.8619 110.495 30.2373 110.911 30.4455 111.744C30.6537 112.577 31.903 112.785 32.1084 114.864C32.3166 116.944 31.4838 116.735 31.692 117.985C31.9002 119.234 33.1495 119.234 33.355 120.272C33.5604 121.311 33.5632 122.768 33.9796 124.017C34.396 125.267 35.6425 127.138 36.2672 127.138C36.8918 127.138 38.5548 123.601 38.1383 122.563C37.7219 121.522 37.0973 121.313 37.0973 120.483C37.0973 119.653 37.9301 117.571 37.7219 116.114C37.5137 114.656 35.6425 114.034 35.4343 112.993C35.2261 111.952 35.8508 109.248 34.3933 108.002C32.9413 106.752 29.6126 105.295 29.4044 106.336Z" fill="#3FB790"/>
<path d="M36.174 126.782C36.1165 126.782 36.0699 126.735 36.0699 126.678C36.0699 126.65 36.0507 123.946 35.259 123.154C34.4563 122.352 33.996 119.891 33.7714 115.182C33.5686 110.903 30.5003 107.377 30.4701 107.341C30.4318 107.297 30.4372 107.232 30.4783 107.193C30.5222 107.155 30.5879 107.16 30.6263 107.202C30.6564 107.237 33.7741 110.815 33.9796 115.171C34.1987 119.763 34.6508 122.253 35.4042 123.006C36.2562 123.858 36.2754 126.56 36.2754 126.675C36.2781 126.732 36.2315 126.782 36.174 126.782Z" fill="#34916F"/>
<path d="M48.4448 109.484C49.179 110.218 46.7819 110.525 46.5737 111.979C46.3654 113.437 46.3654 114.059 45.5326 114.892C44.6997 115.725 43.4532 115.933 43.6614 117.179C43.8696 118.429 44.2861 119.675 43.6614 120.3C43.0368 120.924 41.5821 120.924 41.1656 121.963C40.7492 123.004 40.9574 124.25 40.1246 125.291C39.2917 126.332 38.0452 128.412 37.0041 127.995C35.9631 127.579 36.5877 122.796 37.0041 121.963C37.4206 121.13 37.837 120.505 37.837 119.883C37.837 119.261 37.6288 118.22 38.0452 117.179C38.4616 116.138 40.7492 115.722 40.9574 115.1C41.1656 114.475 41.3738 111.147 42.6204 110.317C43.8669 109.486 47.1983 108.234 48.4448 109.484Z" fill="#4FC7A0"/>
<path d="M37.3274 127.642C37.3082 127.642 37.2918 127.636 37.2726 127.628C37.2233 127.598 37.2069 127.535 37.237 127.486C37.2452 127.472 38.0781 126.078 38.2534 125.373C38.3 125.193 38.3548 124.916 38.4178 124.598C38.6479 123.442 38.9959 121.7 39.5301 121.163C40.3054 120.387 41.5465 118.009 42.4149 114.968C43.4861 111.221 47.0257 110.125 47.0613 110.114C47.1161 110.097 47.1736 110.127 47.1901 110.185C47.2065 110.24 47.1764 110.297 47.1216 110.314C47.086 110.325 43.6532 111.39 42.6149 115.026C41.7355 118.103 40.4725 120.516 39.6753 121.311C39.1849 121.801 38.8315 123.576 38.6205 124.639C38.5575 124.96 38.5027 125.237 38.4562 125.423C38.2726 126.157 37.4507 127.532 37.4151 127.59C37.3959 127.623 37.363 127.642 37.3274 127.642Z" fill="#3FB690"/>
<path d="M37.0617 111.864C34.5659 112.073 35.3987 119.56 35.3987 119.56C36.0234 126.009 36.8562 128.921 37.4781 129.13C38.1 129.338 39.3493 119.976 39.3493 117.689C39.3493 117.689 39.5575 111.659 37.0617 111.864Z" fill="#90DAD8"/>
<path d="M37.374 128.091C37.3685 128.091 37.3658 128.091 37.3603 128.091C37.3028 128.083 37.2617 128.034 37.2699 127.976C38.0918 121.201 37.0726 112.692 37.0617 112.607C37.0535 112.549 37.0946 112.497 37.1521 112.492C37.2069 112.484 37.2617 112.525 37.2672 112.582C37.2781 112.667 38.3 121.201 37.4754 128.001C37.4699 128.053 37.4261 128.091 37.374 128.091Z" fill="white"/>
<path d="M40.4752 132.825H34.1467C33.9357 132.825 33.7577 132.697 33.733 132.527L32.8125 125.963C32.7714 125.667 33.0015 125.404 33.3002 125.404H41.3245C41.6231 125.404 41.8533 125.667 41.8122 125.963L40.8917 132.527C40.8643 132.697 40.6862 132.825 40.4752 132.825Z" fill="#D0DAED"/>
<path d="M59.691 84.3531H53.9706C53.7925 84.3531 53.6473 84.2079 53.6473 84.0298C53.6473 83.8517 53.7925 83.7065 53.9706 83.7065H59.6882C59.8663 83.7065 60.0115 83.8517 60.0115 84.0298C60.0115 84.2106 59.869 84.3531 59.691 84.3531Z" fill="#50C6A1"/>
<path d="M57.8006 87.6242C57.7376 87.6242 57.6856 87.5722 57.6856 87.5092V61.9402C57.6856 61.469 57.302 61.0855 56.8308 61.0855C56.3596 61.0855 55.976 61.469 55.976 61.9402V87.5092C55.976 87.5722 55.924 87.6242 55.861 87.6242C55.798 87.6242 55.7459 87.5722 55.7459 87.5092V61.9402C55.7459 61.3403 56.2336 60.8526 56.8335 60.8526C57.4335 60.8526 57.9212 61.3403 57.9212 61.9402V87.5092C57.9184 87.5722 57.8664 87.6242 57.8006 87.6242Z" fill="#14336A"/>
<path d="M59.8855 87.6242C59.8225 87.6242 59.7704 87.5722 59.7704 87.5092V64.0251C59.7704 62.4032 58.4526 61.0855 56.8308 61.0855C55.2089 61.0855 53.8912 62.4032 53.8912 64.0251V87.5092C53.8912 87.5722 53.8391 87.6242 53.7761 87.6242C53.7131 87.6242 53.661 87.5722 53.661 87.5092V64.0251C53.661 62.2772 55.0829 60.8553 56.8308 60.8553C58.5787 60.8553 60.0005 62.2772 60.0005 64.0251V87.5092C60.0005 87.5722 59.9485 87.6242 59.8855 87.6242Z" fill="#14336A"/>
<path d="M62.0306 87.6242C61.9676 87.6242 61.9156 87.5722 61.9156 87.5092V66.1702C61.9156 63.3676 59.6334 61.0855 56.8308 61.0855C54.0282 61.0855 51.7461 63.3676 51.7461 66.1702V87.5092C51.7461 87.5722 51.694 87.6242 51.631 87.6242C51.568 87.6242 51.5159 87.5722 51.5159 87.5092V66.1702C51.5159 63.2388 53.8994 60.8553 56.8308 60.8553C59.7622 60.8553 62.1457 63.2388 62.1457 66.1702V87.5092C62.1457 87.5722 62.0936 87.6242 62.0306 87.6242Z" fill="#14336A"/>
<path d="M64.1922 87.6242C64.1291 87.6242 64.0771 87.5722 64.0771 87.5092V68.3318C64.0771 64.3374 60.8279 61.0855 56.8308 61.0855C52.8364 61.0855 49.5845 64.3347 49.5845 68.3318V87.5092C49.5845 87.5722 49.5324 87.6242 49.4694 87.6242C49.4064 87.6242 49.3543 87.5722 49.3543 87.5092V68.3318C49.3543 64.2086 52.7076 60.8553 56.8308 60.8553C60.9539 60.8553 64.3072 64.2086 64.3072 68.3318V87.5092C64.3072 87.5722 64.2552 87.6242 64.1922 87.6242Z" fill="#14336A"/>
<path d="M66.477 87.6242C66.414 87.6242 66.362 87.5722 66.362 87.5092V70.6166C66.362 65.362 62.0881 61.0855 56.8308 61.0855C51.5762 61.0855 47.2996 65.3593 47.2996 70.6166V87.5092C47.2996 87.5722 47.2476 87.6242 47.1846 87.6242C47.1216 87.6242 47.0695 87.5722 47.0695 87.5092V70.6166C47.0695 65.2333 51.4474 60.8553 56.8308 60.8553C62.2142 60.8553 66.5921 65.2333 66.5921 70.6166V87.5092C66.5921 87.5722 66.54 87.6242 66.477 87.6242Z" fill="#14336A"/>
<path d="M66.5839 88.0324H47.075C46.7846 88.0324 46.549 87.7968 46.549 87.5064C46.549 87.216 46.7846 86.9804 47.075 86.9804H66.5839C66.8743 86.9804 67.1099 87.216 67.1099 87.5064C67.1099 87.7996 66.8743 88.0324 66.5839 88.0324Z" fill="#50C6A1"/>
<path d="M68.4002 83.6052H64.1922C64.1292 83.6052 64.0771 83.5531 64.0771 83.4901C64.0771 83.4271 64.1292 83.3751 64.1922 83.3751H68.2852V75.5315H62.0333C61.9703 75.5315 61.9183 75.4795 61.9183 75.4165C61.9183 75.3534 61.9703 75.3014 62.0333 75.3014H68.403C68.466 75.3014 68.518 75.3534 68.518 75.4165V83.4901C68.5153 83.5559 68.4632 83.6052 68.4002 83.6052Z" fill="#14336A"/>
<path d="M66.477 70.7317H47.1846C47.1216 70.7317 47.0695 70.6796 47.0695 70.6166C47.0695 70.5536 47.1216 70.5015 47.1846 70.5015H66.477C66.54 70.5015 66.5921 70.5536 66.5921 70.6166C66.5921 70.6796 66.54 70.7317 66.477 70.7317Z" fill="#14336A"/>
<path d="M56.8308 66.4332C54.3021 66.4332 51.8502 65.5319 49.9269 63.8936C49.8776 63.8525 49.8721 63.7785 49.9132 63.7319C49.9543 63.6826 50.0283 63.6771 50.0776 63.7182C51.9597 65.3209 54.3569 66.2031 56.8308 66.2031C59.3047 66.2031 61.7046 65.3209 63.584 63.7182C63.6333 63.6771 63.7045 63.6826 63.7456 63.7319C63.7867 63.7812 63.7812 63.8525 63.7319 63.8936C61.8114 65.5291 59.3595 66.4332 56.8308 66.4332Z" fill="#14336A"/>
<path d="M56.8308 60.1841C56.3048 60.1841 55.8774 59.7567 55.8774 59.2307C55.8774 58.7047 56.3048 58.2773 56.8308 58.2773C57.3568 58.2773 57.7842 58.7047 57.7842 59.2307C57.7842 59.7567 57.3568 60.1841 56.8308 60.1841ZM56.8308 58.5075C56.4336 58.5075 56.1075 58.8307 56.1075 59.2307C56.1075 59.628 56.4308 59.954 56.8308 59.954C57.228 59.954 57.5541 59.6307 57.5541 59.2307C57.5541 58.8307 57.228 58.5075 56.8308 58.5075Z" fill="#14336A"/>
<path d="M56.8308 61.0854C56.7678 61.0854 56.7157 61.0334 56.7157 60.9704V60.069C56.7157 60.006 56.7678 59.954 56.8308 59.954C56.8938 59.954 56.9459 60.006 56.9459 60.069V60.9704C56.9459 61.0334 56.8938 61.0854 56.8308 61.0854Z" fill="#14336A"/>
<path d="M70.5234 90.5912C70.5234 90.5912 72.085 89.005 73.1014 88.9502C73.1014 88.9475 72.8686 91.2953 70.5234 90.5912Z" fill="#50C6A1"/>
<path d="M70.6467 90.594C70.6357 90.594 70.6275 90.5885 70.622 90.5776C70.6166 90.5639 70.6248 90.5502 70.6385 90.5447C70.6577 90.5365 72.6603 89.8297 73.2603 88.6297C73.2658 88.616 73.2822 88.6133 73.2932 88.6187C73.3069 88.6242 73.3096 88.6406 73.3041 88.6516C72.6932 89.8707 70.6741 90.5858 70.6549 90.5913C70.6522 90.594 70.6494 90.594 70.6467 90.594Z" fill="#14336A"/>
<path d="M66.4167 106.728C66.4167 106.728 66.8989 104.555 67.7318 103.969C67.7318 103.969 68.781 106.081 66.4167 106.728Z" fill="#50C6A1"/>
<path d="M66.5236 106.665C66.5154 106.67 66.5044 106.67 66.4935 106.662C66.4825 106.654 66.4798 106.637 66.4907 106.626C66.5044 106.61 67.8249 104.95 67.6989 103.613C67.6989 103.599 67.7071 103.588 67.7208 103.585C67.7345 103.585 67.7455 103.593 67.7482 103.607C67.877 104.963 66.5428 106.64 66.5291 106.656C66.5291 106.662 66.5263 106.662 66.5236 106.665Z" fill="#14336A"/>
<path d="M62.6607 95.4705C62.6607 95.4705 61.0991 93.8843 60.0827 93.8295C60.0827 93.8295 60.3156 96.1746 62.6607 95.4705Z" fill="#50C6A1"/>
<path d="M62.5347 95.4733C62.5456 95.4733 62.5539 95.4678 62.5593 95.4568C62.5648 95.4431 62.5566 95.4294 62.5429 95.424C62.5237 95.4157 60.5211 94.7089 59.9211 93.509C59.9156 93.4953 59.8992 93.4925 59.8882 93.498C59.8745 93.5035 59.8718 93.5199 59.8772 93.5309C60.4882 94.75 62.5073 95.4651 62.5265 95.4705C62.5292 95.4733 62.5319 95.4733 62.5347 95.4733Z" fill="#14336A"/>
</g>
<defs>
<linearGradient id="paint0_linear_330_10195" x1="75" y1="150" x2="75" y2="3.10865e-07" gradientUnits="userSpaceOnUse">
<stop stop-color="white" stop-opacity="0"/>
<stop offset="1" stop-color="white"/>
</linearGradient>
<linearGradient id="paint1_linear_330_10195" x1="74.793" y1="129.287" x2="74.793" y2="86.3982" gradientUnits="userSpaceOnUse">
<stop stop-color="#FEFEFD"/>
<stop offset="0.8395" stop-color="#EBF3FF"/>
</linearGradient>
<radialGradient id="paint2_radial_330_10195" cx="0" cy="0" r="1" gradientUnits="userSpaceOnUse" gradientTransform="translate(71.9993 133.091) scale(43.7628 52.0254)">
<stop stop-color="#D0DFF3"/>
<stop offset="0.9872" stop-color="#D0DFF3"/>
</radialGradient>
<linearGradient id="paint3_linear_330_10195" x1="62.4998" y1="60.3258" x2="104.709" y2="76.859" gradientUnits="userSpaceOnUse">
<stop stop-color="#3162DF"/>
<stop offset="0.9649" stop-color="#173DB8"/>
</linearGradient>
<linearGradient id="paint4_linear_330_10195" x1="74.767" y1="118.008" x2="87.5442" y2="102.175" gradientUnits="userSpaceOnUse">
<stop stop-color="#14336D"/>
<stop offset="0.9662" stop-color="#0E2253"/>
</linearGradient>
<linearGradient id="paint5_linear_330_10195" x1="83.1921" y1="69.0235" x2="100.813" y2="84.9668" gradientUnits="userSpaceOnUse">
<stop stop-color="#3162DF"/>
<stop offset="0.9649" stop-color="#173DB8"/>
</linearGradient>
<linearGradient id="paint6_linear_330_10195" x1="91.8288" y1="72.3286" x2="105.97" y2="86.0713" gradientUnits="userSpaceOnUse">
<stop stop-color="#3162DF"/>
<stop offset="0.9649" stop-color="#173DB8"/>
</linearGradient>
<clipPath id="clip0_330_10195">
<rect width="150" height="150" fill="white"/>
</clipPath>
</defs>
</svg>
