<svg width="106" height="30" viewBox="0 0 106 30" fill="none" xmlns="http://www.w3.org/2000/svg">
<path d="M0 30H98C102.418 30 106 26.4183 106 22V0H25.8113C20.4219 0 15.4468 2.89126 12.7786 7.57384L0 30Z" fill="url(#paint0_linear_575_7241)"/>
<circle cx="32" cy="14" r="8" fill="#647A93"/>
<path d="M29.1716 16.8284L34.8285 11.1716" stroke="white" stroke-width="1.2"/>
<path d="M29.1716 11.1716L34.8284 16.8285" stroke="white" stroke-width="1.2"/>
<path d="M45.944 12.368L45.356 13.232C46.196 13.568 47 14.036 47.78 14.636L48.428 13.652C47.684 13.148 46.856 12.728 45.944 12.368ZM47.024 10.736L46.436 11.612C47.3 11.936 48.128 12.38 48.944 12.956L49.592 11.972C48.812 11.492 47.96 11.084 47.024 10.736ZM50.072 10.928V13.46C50.036 14 49.952 14.504 49.808 14.972H44.804V16.196H49.256C49.148 16.364 49.028 16.532 48.908 16.688C48.212 17.456 46.856 18.104 44.852 18.608L45.56 19.712C47.528 19.208 48.956 18.476 49.832 17.54L49.856 17.516C51.38 18.188 52.856 18.956 54.296 19.832L55.172 18.872C53.756 18.056 52.196 17.288 50.492 16.592C50.564 16.46 50.624 16.328 50.696 16.196H55.388V14.972H51.104C51.212 14.504 51.284 14 51.308 13.46V10.928H50.072ZM45.224 9.236V10.388H53.252C53.108 10.904 52.916 11.372 52.7 11.78L53.864 12.116C54.14 11.42 54.368 10.712 54.548 10.016V9.236H45.224ZM63.812 15.2C64.376 16.796 65.288 18.128 66.56 19.196L67.448 18.152C66.236 17.312 65.36 16.208 64.808 14.852C65.504 14.576 66.164 14.24 66.776 13.856L65.936 13.016C65 13.616 64.016 14.06 62.972 14.36C62.756 13.952 62.48 13.568 62.144 13.208C62.408 13.052 62.66 12.884 62.924 12.704H65.552V11.552H58.448V12.704H60.944C60.728 12.8 60.5 12.896 60.272 12.992C59.3 13.388 58.268 13.7 57.176 13.916L57.812 14.96C59.252 14.528 60.368 14.12 61.136 13.748C61.136 13.736 61.16 13.724 61.184 13.724C61.28 13.844 61.388 13.964 61.484 14.108C60.404 14.852 58.892 15.476 56.948 15.968L57.572 17.036C59.408 16.508 60.884 15.824 62 15.008C62.084 15.2 62.156 15.404 62.228 15.632C60.944 16.64 59.132 17.468 56.792 18.128L57.416 19.196C59.468 18.572 61.136 17.78 62.432 16.82C62.432 16.892 62.444 16.976 62.444 17.072C62.444 17.708 62.336 18.14 62.144 18.368C61.976 18.536 61.568 18.632 60.92 18.632H60.296L60.716 19.736H61.088C62.192 19.736 62.912 19.508 63.236 19.076C63.5 18.716 63.644 18.056 63.644 17.072C63.632 16.448 63.548 15.872 63.38 15.32C63.524 15.284 63.668 15.248 63.812 15.2ZM62.324 8.564L61.04 8.78C61.172 9.02 61.292 9.284 61.412 9.572H56.828V11.852H58.064V10.724H65.924V11.852H67.172V9.572H62.684C62.564 9.2 62.444 8.864 62.324 8.564ZM74.636 16.196C74.324 16.268 74 16.352 73.664 16.436V10.184H74.312V10.88H74.792C74.96 12.8 75.452 14.564 76.268 16.196C75.668 17.192 74.9 18.044 73.988 18.752L74.84 19.736C75.656 19.088 76.364 18.32 76.964 17.42C77.48 18.236 78.092 19.004 78.8 19.736L79.64 18.752C78.848 18.008 78.176 17.18 77.636 16.28C78.404 14.756 78.92 12.932 79.172 10.82V9.68H74.444V9.008H68.636V10.184H69.464V17.204C69.14 17.252 68.816 17.288 68.48 17.324L68.792 18.56C70.04 18.368 71.264 18.164 72.44 17.924V19.712H73.664V17.672C73.976 17.6 74.3 17.516 74.636 17.444V16.196ZM75.944 10.88H77.996C77.804 12.38 77.444 13.724 76.928 14.912C76.4 13.688 76.064 12.344 75.944 10.88ZM72.44 16.7C71.864 16.82 71.288 16.928 70.688 17.024V15.392H72.44V16.7ZM70.688 14.264V12.788H72.44V14.264H70.688ZM70.688 11.66V10.184H72.44V11.66H70.688ZM86.96 8.684V11.864H84.476V19.676H85.736V17.168H89.492V17.948C89.492 18.296 89.312 18.476 88.976 18.476L87.764 18.44L88.088 19.652H89.396C90.284 19.652 90.74 19.172 90.74 18.224V11.864H88.232V8.684H86.96ZM85.736 15.128H89.492V16.112H85.736V15.128ZM89.492 14.072H85.736V13.076H89.492V14.072ZM84.908 8.948L83.876 9.44C84.344 10.04 84.776 10.7 85.172 11.432L86.156 10.94C85.748 10.22 85.34 9.548 84.908 8.948ZM90.2 8.948C89.888 9.644 89.468 10.352 88.94 11.072L89.9 11.576C90.44 10.88 90.884 10.172 91.22 9.428L90.2 8.948ZM82.592 14.852C82.04 16.304 81.392 17.72 80.648 19.112L81.8 19.628C82.496 18.272 83.12 16.82 83.696 15.284L82.592 14.852ZM81.752 8.744L80.864 9.608C81.776 10.256 82.472 10.856 82.964 11.42L83.852 10.52C83.276 9.932 82.58 9.344 81.752 8.744ZM81.416 11.552L80.528 12.416C81.38 13.076 82.04 13.688 82.508 14.24L83.396 13.352C82.856 12.752 82.196 12.152 81.416 11.552Z" fill="#727E95"/>
<defs>
<linearGradient id="paint0_linear_575_7241" x1="-1.10142" y1="15" x2="106" y2="15" gradientUnits="userSpaceOnUse">
<stop stop-color="#85A5C5" stop-opacity="0.35"/>
<stop offset="1" stop-color="#4F8FCE" stop-opacity="0.06"/>
</linearGradient>
</defs>
</svg>
