<svg width="106" height="30" viewBox="0 0 106 30" fill="none" xmlns="http://www.w3.org/2000/svg">
<path d="M0 30H98C102.418 30 106 26.4183 106 22V0H25.8113C20.4219 0 15.4468 2.89126 12.7786 7.57384L0 30Z" fill="url(#paint0_linear_575_7212)"/>
<circle cx="36" cy="14" r="8" fill="#F2731D"/>
<path d="M32.2792 14.5117L34.9944 17.2269L39.7209 12.3999" stroke="white" stroke-width="1.2" stroke-linecap="round" stroke-linejoin="round"/>
<path d="M58.164 14.312V9.176H49.008V10.376H56.892V13.112H50.76V11.528H49.512V17.744C49.512 18.824 50.016 19.364 51.048 19.364H57.72C58.2 19.34 58.596 19.196 58.884 18.932C59.124 18.668 59.328 17.768 59.484 16.232L58.26 15.848C58.188 17.072 58.08 17.78 57.912 17.948C57.744 18.092 57.564 18.164 57.372 18.164H51.408C50.976 18.164 50.76 17.948 50.76 17.516V14.312H58.164ZM69.108 8.54L68.316 9.296C68.784 9.656 69.168 10.016 69.468 10.352H67.776C67.752 9.8 67.74 9.224 67.74 8.612H66.468C66.468 9.212 66.468 9.8 66.492 10.352H61.548V14.348C61.512 16.292 61.128 17.816 60.384 18.908L61.332 19.76C62.256 18.404 62.748 16.616 62.808 14.384H64.5C64.476 15.608 64.44 16.364 64.368 16.64C64.308 16.88 64.176 17 63.984 17.012C63.648 17.012 63.252 16.988 62.772 16.952L63.156 18.092C63.516 18.128 63.84 18.152 64.128 18.152C64.776 18.14 65.196 17.888 65.388 17.384C65.592 16.832 65.712 15.44 65.748 13.208H62.808V11.54H66.552C66.648 12.98 66.816 14.192 67.08 15.152C67.212 15.644 67.356 16.1 67.524 16.52C66.732 17.48 65.772 18.212 64.644 18.716L65.364 19.772C66.396 19.316 67.308 18.656 68.1 17.792C68.244 18.056 68.412 18.296 68.58 18.512C69.168 19.22 69.72 19.58 70.248 19.58C70.848 19.58 71.292 18.728 71.604 17.036L70.476 16.424C70.32 17.576 70.176 18.152 70.056 18.152C69.876 18.152 69.612 17.888 69.276 17.372C69.156 17.192 69.036 16.976 68.928 16.736C69.66 15.668 70.26 14.372 70.728 12.848L69.588 12.356C69.276 13.436 68.88 14.408 68.4 15.248C68.352 15.08 68.304 14.924 68.268 14.756C68.076 14.012 67.932 12.932 67.836 11.54H71.364V10.352H69.936L70.488 9.788C70.104 9.368 69.648 8.948 69.108 8.54ZM72.648 9.944V11.132H83.364V9.944H78.732C78.528 9.44 78.312 8.972 78.096 8.552L76.692 8.792C76.932 9.152 77.148 9.536 77.34 9.944H72.648ZM80.016 11.204L79.164 12.02C80.58 13.16 81.684 14.216 82.452 15.2L83.376 14.264C82.464 13.244 81.336 12.224 80.016 11.204ZM79.836 13.472C79.356 14.384 78.744 15.188 78 15.896C77.22 15.212 76.596 14.432 76.116 13.544L75.036 14.156C75.564 15.104 76.236 15.956 77.028 16.7C75.804 17.564 74.304 18.224 72.528 18.656L73.308 19.808C75.156 19.328 76.728 18.584 78.048 17.552C79.332 18.512 80.904 19.256 82.752 19.772L83.532 18.596C81.756 18.152 80.244 17.516 79.02 16.688C79.788 15.92 80.448 15.02 80.988 13.988L79.836 13.472ZM75.9 11.216C75.012 12.308 73.908 13.256 72.612 14.072L73.416 15.128C74.76 14.24 75.9 13.208 76.812 12.008L75.9 11.216Z" fill="#F2731D"/>
<defs>
<linearGradient id="paint0_linear_575_7212" x1="-2.30435" y1="15" x2="106" y2="15" gradientUnits="userSpaceOnUse">
<stop stop-color="#FFD6B0"/>
<stop offset="1" stop-color="#FFD6B0" stop-opacity="0"/>
<stop offset="1" stop-color="#FFD6B0" stop-opacity="0.3"/>
</linearGradient>
</defs>
</svg>
