<svg width="123" height="30" viewBox="0 0 123 30" fill="none" xmlns="http://www.w3.org/2000/svg">
<path d="M0 30H115C119.418 30 123 26.4183 123 22V0H26.9076C21.7095 0 16.882 2.69117 14.1487 7.11261L0 30Z" fill="url(#paint0_linear_575_7371)"/>
<circle cx="30" cy="14" r="8" fill="#647A93"/>
<line x1="26" y1="14.3751" x2="34" y2="14.3751" stroke="white" stroke-width="1.2"/>
<path d="M47.376 10.652V17.828H42.636V19.04H53.376V17.828H48.648V10.652H52.644V9.452H43.392V10.652H47.376ZM55.692 10.424V15.644H59.376V16.532H54.624V17.708H59.376V19.808H60.624V17.708H65.376V16.532H60.624V15.644H64.308V10.424H62.172C62.484 9.992 62.784 9.5 63.048 8.96L61.836 8.528C61.56 9.2 61.236 9.824 60.864 10.424H58.536L59.244 10.064C58.884 9.524 58.5 9.032 58.092 8.588L57.048 9.092C57.408 9.488 57.756 9.932 58.092 10.424H55.692ZM63.096 14.54H60.624V13.544H63.096V14.54ZM59.376 14.54H56.904V13.544H59.376V14.54ZM56.904 12.488V11.516H59.376V12.488H56.904ZM60.624 11.516H63.096V12.488H60.624V11.516ZM67.92 9.212L66.84 9.572C67.128 10.292 67.38 11.06 67.572 11.852L68.7 11.552C68.46 10.676 68.208 9.896 67.92 9.212ZM71.436 9.068C71.22 10.052 70.968 10.868 70.68 11.516L71.748 11.924C72.072 11.192 72.336 10.34 72.54 9.38L71.436 9.068ZM66.876 12.224V13.4H69.072C69.048 13.904 69 14.396 68.928 14.864H66.6V16.052H68.628C68.232 17.228 67.572 18.164 66.636 18.86L67.644 19.736C68.748 18.848 69.504 17.612 69.924 16.052H72.792V14.864H70.164C70.224 14.408 70.26 13.916 70.284 13.4H72.48V12.224H70.296V8.696H69.084V12.224H66.876ZM73.464 9.776V17.072H74.688V9.776H73.464ZM75.78 19.64C76.692 19.64 77.148 19.172 77.148 18.26V8.684H75.9V17.936C75.9 18.32 75.708 18.524 75.348 18.524C74.916 18.524 74.448 18.5 73.944 18.452L74.232 19.64H75.78ZM80.436 12.08V13.256H83.436V17.948H83.424C82.584 17.684 81.888 17.108 81.336 16.208C81.552 15.608 81.72 14.972 81.864 14.288L80.652 14.072C80.268 16.016 79.512 17.564 78.396 18.716L79.2 19.724C79.86 19.076 80.412 18.284 80.868 17.336C81.36 18.008 81.984 18.524 82.728 18.872C83.832 19.328 85.656 19.556 88.224 19.556H89.268L89.52 18.32C88.884 18.38 88.272 18.416 87.672 18.416C86.496 18.404 85.5 18.344 84.684 18.224V16.112H88.092V14.936H84.684V13.256H87.588V12.08H80.436ZM89.076 9.74H84.696C84.54 9.296 84.384 8.888 84.216 8.528L82.872 8.744C83.064 9.044 83.232 9.38 83.4 9.74H78.924V12.584H80.148V10.892H87.852V12.524H89.076V9.74ZM91.68 8.744L90.816 9.56C91.68 10.256 92.34 10.904 92.796 11.504L93.696 10.616C93.144 9.992 92.472 9.368 91.68 8.744ZM98.496 19.556H101.256L101.568 18.32C101.232 18.344 100.764 18.368 100.14 18.392C99.516 18.392 98.916 18.404 98.316 18.404C97.392 18.404 96.576 18.392 95.88 18.38C95.172 18.356 94.644 18.26 94.296 18.08C94.02 17.924 93.744 17.684 93.468 17.372L93.336 17.24V12.68H90.588V13.832H92.172V17.12C91.692 17.384 91.164 17.996 90.564 18.956L91.488 19.808C92.088 18.728 92.496 18.2 92.736 18.2C92.868 18.2 93.012 18.296 93.18 18.5C93.54 18.908 93.96 19.184 94.44 19.328C94.944 19.448 95.58 19.52 96.348 19.532C97.116 19.544 97.836 19.556 98.496 19.556ZM97.344 13.964L96.636 14.816C98.256 15.752 99.588 16.748 100.632 17.816L101.412 16.88C100.956 16.448 100.464 16.04 99.936 15.644C100.26 15.356 100.584 15.02 100.896 14.66L99.996 13.964C99.72 14.324 99.396 14.66 99.036 14.996C98.508 14.636 97.944 14.3 97.344 13.964ZM95.868 11.912H99.42V12.668H95.868V11.912ZM99.42 10.88H95.868V10.124H99.42V10.88ZM95.868 13.772H100.644V9.02H94.656V16.292C94.656 16.508 94.512 16.676 94.224 16.784L94.5 17.84C95.964 17.6 97.188 17.348 98.148 17.096L97.86 15.968C97.212 16.16 96.54 16.328 95.868 16.448V13.772ZM111.396 18.308C112.176 18.308 112.572 17.876 112.572 17.012V12.116H108.66V10.496C110.34 10.328 111.816 10.088 113.088 9.776L112.452 8.684C109.788 9.26 106.548 9.56 102.72 9.56L103.116 10.736C104.652 10.736 106.068 10.688 107.388 10.604V12.116H103.464V18.332H104.712V13.316H107.388V19.772H108.66V13.316H111.324V16.736C111.324 16.976 111.204 17.108 110.976 17.108L109.932 17.048L110.256 18.308H111.396Z" fill="#727E95"/>
<defs>
<linearGradient id="paint0_linear_575_7371" x1="6.80506" y1="15" x2="123" y2="15" gradientUnits="userSpaceOnUse">
<stop stop-color="#85A5C5" stop-opacity="0.35"/>
<stop offset="1" stop-color="#4F8FCE" stop-opacity="0.06"/>
</linearGradient>
</defs>
</svg>
