<svg width="106" height="30" viewBox="0 0 106 30" fill="none" xmlns="http://www.w3.org/2000/svg">
<path d="M0 30H98C102.418 30 106 26.4183 106 22V0H25.8113C20.4219 0 15.4468 2.89126 12.7786 7.57384L0 30Z" fill="url(#paint0_linear_575_7274)"/>
<circle cx="32" cy="14" r="8" fill="#647A93"/>
<path d="M29.1716 16.8284L34.8285 11.1716" stroke="white" stroke-width="1.2"/>
<path d="M29.1716 11.1716L34.8284 16.8285" stroke="white" stroke-width="1.2"/>
<path d="M46.148 13.928L45.56 14.804C46.292 15.044 47.012 15.368 47.72 15.788H44.984V16.976H49.352L49.1 17.228C48.404 17.804 47.072 18.284 45.08 18.68L45.752 19.748C47.72 19.34 49.136 18.764 50 18.02C51.416 18.464 52.796 19.052 54.152 19.796L54.86 18.704C53.612 18.116 52.232 17.6 50.732 17.168C50.768 17.108 50.804 17.048 50.852 16.976H55.112V15.788H51.32C51.392 15.476 51.44 15.14 51.464 14.792V12.836H50.252V14.792C50.216 15.128 50.144 15.464 50.048 15.788H48.068L48.596 14.984C47.852 14.576 47.036 14.216 46.148 13.928ZM47.156 12.68L46.568 13.544C47.408 13.784 48.224 14.12 49.016 14.54L49.64 13.592C48.884 13.232 48.056 12.92 47.156 12.68ZM45.116 11.408V12.548H53.588C53.408 13.196 53.204 13.772 52.964 14.264L54.14 14.6C54.44 13.808 54.68 13.004 54.86 12.188V11.408H50.66V10.604H54.02V9.476H50.66V8.66H49.436V9.476H46.004V10.604H49.436V11.408H45.116ZM63.812 15.2C64.376 16.796 65.288 18.128 66.56 19.196L67.448 18.152C66.236 17.312 65.36 16.208 64.808 14.852C65.504 14.576 66.164 14.24 66.776 13.856L65.936 13.016C65 13.616 64.016 14.06 62.972 14.36C62.756 13.952 62.48 13.568 62.144 13.208C62.408 13.052 62.66 12.884 62.924 12.704H65.552V11.552H58.448V12.704H60.944C60.728 12.8 60.5 12.896 60.272 12.992C59.3 13.388 58.268 13.7 57.176 13.916L57.812 14.96C59.252 14.528 60.368 14.12 61.136 13.748C61.136 13.736 61.16 13.724 61.184 13.724C61.28 13.844 61.388 13.964 61.484 14.108C60.404 14.852 58.892 15.476 56.948 15.968L57.572 17.036C59.408 16.508 60.884 15.824 62 15.008C62.084 15.2 62.156 15.404 62.228 15.632C60.944 16.64 59.132 17.468 56.792 18.128L57.416 19.196C59.468 18.572 61.136 17.78 62.432 16.82C62.432 16.892 62.444 16.976 62.444 17.072C62.444 17.708 62.336 18.14 62.144 18.368C61.976 18.536 61.568 18.632 60.92 18.632H60.296L60.716 19.736H61.088C62.192 19.736 62.912 19.508 63.236 19.076C63.5 18.716 63.644 18.056 63.644 17.072C63.632 16.448 63.548 15.872 63.38 15.32C63.524 15.284 63.668 15.248 63.812 15.2ZM62.324 8.564L61.04 8.78C61.172 9.02 61.292 9.284 61.412 9.572H56.828V11.852H58.064V10.724H65.924V11.852H67.172V9.572H62.684C62.564 9.2 62.444 8.864 62.324 8.564ZM78.908 16.232V11.828H74.312V10.208H79.316V9.008H73.052V19.412H79.544V18.212H74.312V16.232H78.908ZM74.312 12.992H77.696V15.056H74.312V12.992ZM72.692 13.244C72.248 13.472 71.804 13.688 71.36 13.88V11.924H72.692V10.712H71.36V8.684H70.148V10.712H68.6V11.924H70.148V14.336C69.548 14.54 68.96 14.708 68.36 14.828L68.672 16.1C69.164 15.944 69.656 15.776 70.148 15.608V18.284C70.148 18.464 70.04 18.56 69.836 18.56C69.512 18.56 69.164 18.524 68.804 18.476L69.08 19.652H70.256C70.988 19.652 71.36 19.292 71.36 18.572V15.128C71.804 14.936 72.248 14.732 72.692 14.516V13.244ZM84.428 17.024C83.324 17.504 82.052 17.876 80.588 18.164L80.744 19.364C82.112 19.064 83.348 18.68 84.428 18.2V17.024ZM82.28 8.588C81.92 9.86 81.476 11.036 80.96 12.104C80.816 12.32 80.636 12.476 80.444 12.56L80.744 13.7L82.208 13.472C81.728 14.408 81.332 15.056 81.02 15.428C80.876 15.572 80.696 15.692 80.468 15.788L80.804 16.892C81.908 16.748 83.072 16.448 84.308 15.992V14.876C83.588 15.14 82.892 15.368 82.196 15.536C82.796 14.672 83.552 13.304 84.44 11.456L83.348 11.048C83.132 11.516 82.94 11.96 82.748 12.38L81.824 12.488C82.376 11.6 82.928 10.448 83.456 9.044L82.28 8.588ZM87.32 13.16V14.9H86.096V13.16H87.32ZM88.424 14.9V13.16H89.684V14.9H88.424ZM89.132 12.032C89.42 11.624 89.72 11.156 90.008 10.616V9.704H87.32L87.656 8.96L86.456 8.708C85.808 10.196 85.064 11.36 84.212 12.176L84.92 13.028V18.428C84.92 19.148 85.292 19.508 86.036 19.508H89.912C90.608 19.484 91.04 19.196 91.232 18.656C91.34 18.332 91.448 17.792 91.544 17.024L90.392 16.652C90.296 17.432 90.212 17.888 90.14 18.032C90.032 18.236 89.816 18.344 89.504 18.368H86.54C86.24 18.368 86.096 18.224 86.096 17.96V16.016H90.872V12.032H89.132ZM85.892 12.032C86.18 11.66 86.468 11.252 86.732 10.808H88.58C88.292 11.276 88.004 11.684 87.728 12.032H85.892Z" fill="#727E95"/>
<defs>
<linearGradient id="paint0_linear_575_7274" x1="-1.10142" y1="15" x2="106" y2="15" gradientUnits="userSpaceOnUse">
<stop stop-color="#85A5C5" stop-opacity="0.35"/>
<stop offset="1" stop-color="#4F8FCE" stop-opacity="0.06"/>
</linearGradient>
</defs>
</svg>
