<svg width="150" height="150" viewBox="0 0 150 150" fill="none" xmlns="http://www.w3.org/2000/svg">
<g clip-path="url(#clip0_371_5664)">
<path d="M31.5219 10.9851C-13.0464 27.7164 -6.99279 91.3348 28.6885 114.898C39.4442 122.001 54.4977 121.23 69.9873 111.903C85.2511 102.712 117.573 133.144 137.161 110.83C159.731 85.1202 152.46 48.0461 116.001 39.6503C79.5649 31.2587 70.0735 -3.48735 31.5219 10.9851Z" fill="url(#paint0_linear_371_5664)"/>
<path d="M76.9994 135.936C103.645 135.936 125.246 134.1 125.246 131.835C125.246 129.569 103.645 127.733 76.9994 127.733C50.3537 127.733 28.7532 129.569 28.7532 131.835C28.7532 134.1 50.3537 135.936 76.9994 135.936Z" fill="#1D2127"/>
<path d="M77.5556 130.696H116.936C118.563 130.696 119.881 129.385 119.881 127.766V60.4565C119.881 58.839 118.563 57.5269 116.936 57.5269H76.9768C75.0342 57.5269 73.459 59.0943 73.459 61.0273V126.62C73.459 128.87 75.2928 130.695 77.5546 130.695L77.5556 130.696Z" fill="#515CA3"/>
<path d="M114.365 130.696H103.098L103.098 57.5269H114.869C115.82 57.5269 116.593 58.2958 116.593 59.2424L116.593 128.479C116.593 129.702 115.594 130.696 114.365 130.696Z" fill="white"/>
<path d="M77.1873 130.696H105.023C106.412 130.696 107.537 129.576 107.537 128.194V60.0286C107.537 58.647 106.412 57.5269 105.023 57.5269H76.6927C75.0333 57.5269 73.689 58.8645 73.689 60.5157V127.215C73.689 129.137 75.255 130.695 77.1863 130.695L77.1873 130.696Z" fill="#515CA3"/>
<path d="M113.91 60.6311V127.392" stroke="#C9C1B8" stroke-width="2.46563" stroke-linecap="round" stroke-linejoin="round"/>
<path d="M65.7142 58.4449L67.2022 57.5269H102.126C103.618 57.5269 104.827 58.8727 104.827 60.5341V127.689C104.827 129.349 103.618 130.696 102.126 130.696H66.9344L65.7142 130.248V58.4449Z" fill="#687DC4"/>
<path d="M63.4155 57.679C63.709 57.581 64.021 57.5269 64.3432 57.5269H64.6141L65.7153 58.4449V130.235L64.8738 130.695C64.3566 130.695 63.864 130.579 63.4155 130.368V57.679Z" fill="#5E6BBD"/>
<path d="M110.724 60.7312V127.492" stroke="#C9C1B8" stroke-width="2.46563" stroke-linecap="round" stroke-linejoin="round"/>
<path d="M63.2154 79.2331C79.1516 79.2331 92.0704 77.9535 92.0704 76.375C92.0704 74.7965 79.1516 73.5168 63.2154 73.5168C47.2793 73.5168 34.3605 74.7965 34.3605 76.375C34.3605 77.9535 47.2793 79.2331 63.2154 79.2331Z" fill="#5962AB"/>
<path d="M71.0998 74.2939H41.7266V81.8503H71.0998V74.2939Z" fill="#F9A56E"/>
<path d="M70.015 74.2939H59.1167V81.8503H70.015V74.2939Z" fill="#D98753"/>
<path d="M58.0997 74.2939H53.5331V81.8503H58.0997V74.2939Z" fill="#E68F58"/>
<path d="M46.7796 74.2939H44.2736V81.8503H46.7796V74.2939Z" fill="#FFC18F"/>
<path d="M71.0998 80.7271H41.7266V81.8493H71.0998V80.7271Z" fill="#D67B2F"/>
<path d="M69.2947 66.9407H39.9215V74.497H69.2947V66.9407Z" fill="#F9A56E"/>
<path d="M68.21 66.9407H57.3116V74.497H68.21V66.9407Z" fill="#D98753"/>
<path d="M56.2947 66.9407H51.728V74.497H56.2947V66.9407Z" fill="#E68F58"/>
<path d="M44.9745 66.9407H42.4685V74.497H44.9745V66.9407Z" fill="#FFC18F"/>
<path d="M69.2947 73.3748H39.9215V74.497H69.2947V73.3748Z" fill="#A36136"/>
<path d="M71.2895 59.5886H41.9163V67.145H71.2895V59.5886Z" fill="#F9A56E"/>
<path d="M70.2047 59.5886H59.3064V67.145H70.2047V59.5886Z" fill="#D98753"/>
<path d="M58.2884 59.5886H53.7218V67.145H58.2884V59.5886Z" fill="#E68F58"/>
<path d="M46.9693 59.5886H44.4633V67.145H46.9693V59.5886Z" fill="#FFC18F"/>
<path d="M71.2895 66.0227H41.9163V67.1449H71.2895V66.0227Z" fill="#A36136"/>
<path d="M88.5288 72.7795H62.6232V80.3359H88.5288V72.7795Z" fill="#F9A56E"/>
<path d="M87.5734 72.7795H77.9609V80.3359H87.5734V72.7795Z" fill="#D98753"/>
<path d="M77.062 72.7795H73.0352V80.3359H77.062V72.7795Z" fill="#E68F58"/>
<path d="M67.08 72.7795H64.8695V80.3359H67.08V72.7795Z" fill="#FFC18F"/>
<path d="M88.5288 79.2136H62.6232V80.3358H88.5288V79.2136Z" fill="#D67B2F"/>
<path d="M69.3367 52.2007H39.9635V59.7571H69.3367V52.2007Z" fill="#F9A56E"/>
<path d="M68.252 52.2007H57.3536V59.7571H68.252V52.2007Z" fill="#D98753"/>
<path d="M56.3366 52.2007H51.77V59.7571H56.3366V52.2007Z" fill="#E68F58"/>
<path d="M45.0165 52.2007H42.5105V59.7571H45.0165V52.2007Z" fill="#FFC18F"/>
<path d="M69.3367 58.6348H39.9635V59.757H69.3367V58.6348Z" fill="#A36136"/>
<path d="M71.1869 44.634H41.8137V52.1904H71.1869V44.634Z" fill="#F9A56E"/>
<path d="M70.1022 44.634H59.2039V52.1904H70.1022V44.634Z" fill="#D98753"/>
<path d="M58.1859 44.634H53.6193V52.1904H58.1859V44.634Z" fill="#E68F58"/>
<path d="M46.8667 44.634H44.3607V52.1904H46.8667V44.634Z" fill="#FFC18F"/>
<path d="M71.1869 51.0671H41.8137V52.1894H71.1869V51.0671Z" fill="#A36136"/>
<path d="M68.9519 37.041H39.5787V44.5974H68.9519V37.041Z" fill="#F9A56E"/>
<path d="M67.8672 37.041H56.9689V44.5974H67.8672V37.041Z" fill="#D98753"/>
<path d="M55.9509 37.041H51.3843V44.5974H55.9509V37.041Z" fill="#E68F58"/>
<path d="M44.6317 37.041H42.1257V44.5974H44.6317V37.041Z" fill="#FFC18F"/>
<path d="M68.9519 43.4751H39.5787V44.5973H68.9519V43.4751Z" fill="#A36136"/>
<path d="M77.6922 114.704C78.2217 104.626 95.028 95.9121 92.0704 76.3953H92.0674C91.9565 77.9637 79.0817 79.233 63.2145 79.233C47.3472 79.233 34.4724 77.9647 34.3616 76.3953H34.34C34.4108 79.5403 34.9537 84.3652 34.0793 85.7601C31.3589 90.0999 29.1669 92.1227 28.4126 92.6363C26.4002 94.0057 26.3294 97.4316 29.6256 98.661C32.1983 99.6209 31.8935 99.2022 31.9048 101.128C31.912 102.318 31.6052 102.866 31.2511 103.521C30.7996 104.357 30.6169 104.487 31.0377 105.423C31.4676 106.38 32.9249 107.002 32.9249 107.002C32.9249 107.002 31.2562 108.172 32.9628 110.534C33.3384 111.053 34.0773 111.334 34.1758 111.748C34.7002 113.957 34.5401 113.866 34.5309 114.697C34.5186 115.762 34.6787 119.962 39.9564 120.872C40.9416 121.041 45.1111 121.013 49.2929 120.785C50.0318 126.145 49.9671 127.742 51.1586 132.3L78.8765 132.489C77.8667 125.076 77.4244 122.437 77.6902 114.705L77.6922 114.704Z" fill="#AAB7E6"/>
<path d="M19.6318 51.677C19.752 50.9406 19.2493 50.2466 18.5092 50.1271C17.7691 50.0075 17.0717 50.5077 16.9515 51.2441C16.8314 51.9806 17.334 52.6745 18.0741 52.7941C18.8143 52.9136 19.5117 52.4135 19.6318 51.677Z" stroke="#2D4E73" stroke-width="2.97188" stroke-miterlimit="10" stroke-linecap="round"/>
<path d="M99.0412 21.6721C99.734 21.3866 100.063 20.5963 99.776 19.907C99.4891 19.2177 98.6949 18.8904 98.0021 19.1759C97.3094 19.4614 96.9804 20.2517 97.2674 20.941C97.5543 21.6303 98.3485 21.9576 99.0412 21.6721Z" stroke="#2D4E73" stroke-width="2.97188" stroke-miterlimit="10" stroke-linecap="round"/>
<path d="M138.02 92.7862C138.14 92.0497 137.638 91.3558 136.898 91.2362C136.157 91.1167 135.46 91.6168 135.34 92.3533C135.22 93.0897 135.722 93.7837 136.462 93.9032C137.203 94.0228 137.9 93.5227 138.02 92.7862Z" stroke="#2D4E73" stroke-width="2.97188" stroke-miterlimit="10" stroke-linecap="round"/>
<path d="M86.1656 36.9727C86.1656 36.9727 87.3457 39.6491 90.7373 40.6713C94.129 41.6934 99.8829 45.9372 93.2033 50.5895C86.5237 55.2418 80.0483 48.0939 79.33 44.1472C78.6876 40.6192 81.5558 36.6858 81.5558 36.6858L86.1656 36.9717V36.9727Z" fill="#783A2F"/>
<path fill-rule="evenodd" clip-rule="evenodd" d="M87.789 72.4172L72.8176 72.5601L72.7089 68.7503L82.7698 63.6753L88.6408 62.4581L90.4777 61.5891C93.1674 64.9548 91.9287 72.3927 87.7911 72.4172H87.789Z" fill="#C95836"/>
<path fill-rule="evenodd" clip-rule="evenodd" d="M79.4039 71.0191L65.3776 71.8483L62.4971 67.4135L66.9683 64.9066L80.309 60.479L82.6405 63.186C85.3395 66.3189 83.5549 70.6362 79.4039 71.0191Z" fill="#C95836"/>
<path fill-rule="evenodd" clip-rule="evenodd" d="M70.1013 68.7677C70.1013 68.7677 67.6035 68.5206 63.7593 75.2518C61.6525 78.9412 52.978 86.7253 52.978 86.7253L51.9949 85.2528L62.2364 66.4691C63.0533 65.1181 64.5977 64.1624 66.1699 64.0337L70.5631 63.6753L70.1013 68.7666V68.7677Z" fill="#C95836"/>
<path fill-rule="evenodd" clip-rule="evenodd" d="M52.2914 84.7349L50.3611 85.5988C49.9517 85.8285 47.9711 86.0011 47.9711 86.0011C47.6981 86.3411 48.0111 86.625 48.3036 86.7455L53.7651 87.8841C53.7651 87.8841 55.0807 87.9137 54.5276 85.2496C53.4377 85.4558 52.3756 85.5426 52.2914 84.7339V84.7349Z" fill="#14284F"/>
<path fill-rule="evenodd" clip-rule="evenodd" d="M76.4238 68.9852C76.4238 68.9852 73.9168 69.1037 71.1029 76.323C69.5615 80.2789 62.1605 88.8778 62.1605 88.8778L61.2728 87.5269L68.3044 67.8569C68.914 66.4017 70.3014 65.2315 71.8377 64.8751L76.1313 63.8816L76.4228 68.9862L76.4238 68.9852Z" fill="#C95836"/>
<path fill-rule="evenodd" clip-rule="evenodd" d="M61.6433 86.3934L59.8115 87.4492C59.4287 87.7198 57.4748 88.0935 57.4748 88.0935C57.2388 88.4591 57.5785 88.7093 57.8822 88.7991L63.433 89.3751C63.433 89.3751 64.7445 89.2709 63.9194 86.6772C62.8563 86.9938 61.8085 87.1878 61.6423 86.3923L61.6433 86.3934Z" fill="#14284F"/>
<path fill-rule="evenodd" clip-rule="evenodd" d="M60.3113 83.6323L65.7122 85.0997C65.7122 85.0997 67.4927 83.1248 68.6533 81.6544C70.9787 78.7084 73.73 73.2025 73.8521 73.0973C73.9742 72.9931 87.9697 72.8522 88.6552 72.7746C90.4387 72.5724 94.2963 70.7732 90.9293 61.5432L74.0143 65.5654C74.0143 65.5654 69.9987 66.0495 69.1059 67.4311C68.5281 68.3245 67.9514 69.1772 67.1797 70.5189C63.1036 77.6005 60.3113 83.6313 60.3113 83.6313V83.6323Z" fill="#5662AD"/>
<path fill-rule="evenodd" clip-rule="evenodd" d="M53.0509 81.2244L57.5939 83.0002C57.5939 83.0002 65.664 74.7872 66.875 72.9196C68.0859 71.0529 88.1514 70.4607 88.1514 70.4607L87.0533 61.3655L75.334 61.5881C75.334 61.5881 68.7355 63.3363 68.1413 63.5078C67.5461 63.6794 63.7204 62.8094 61.2801 67.2533C58.8398 71.6973 53.0519 81.2234 53.0519 81.2234L53.0509 81.2244Z" fill="#5662AD"/>
<path fill-rule="evenodd" clip-rule="evenodd" d="M73.5761 54.6402L76.8487 46.0923C77.605 44.0204 79.6861 43.1811 81.2224 44.3288C81.8278 44.7812 81.9992 45.7533 81.6082 46.514L76.7389 55.9779L73.5751 54.6412L73.5761 54.6402Z" fill="#C95836"/>
<path fill-rule="evenodd" clip-rule="evenodd" d="M79.2274 43.8632L82.1316 42.8564L84.6242 42.5664L85.8464 42.6144L90.491 44.2268C92.055 44.9967 92.7815 46.8061 92.1833 48.444L91.0462 53.7345C92.2541 57.7251 92.916 58.7186 92.7066 62.8256C86.6387 63.8743 76.3027 62.8256 75.8193 62.2763C76.1703 54.0562 77.1308 48.007 79.2264 43.8632H79.2274Z" fill="#CCCFED"/>
<path fill-rule="evenodd" clip-rule="evenodd" d="M82.4292 40.2371C82.4292 40.2371 82.6632 41.9833 82.8561 43.4292C82.9074 43.8142 83.1619 44.1419 83.5211 44.2849C83.8803 44.4289 84.2887 44.3656 84.5883 44.1215C84.6869 44.0419 84.7823 43.9632 84.8736 43.8897C85.2862 43.5548 85.4688 43.0105 85.3447 42.4928C85.0245 41.1654 84.4416 38.7473 84.4416 38.7473L82.4292 40.2371Z" fill="#C95836"/>
<path fill-rule="evenodd" clip-rule="evenodd" d="M82.5503 41.4717L82.7709 42.5081C83.5149 42.259 83.9069 41.5656 84.2251 40.7783L82.5503 41.4706V41.4717Z" fill="#873B24"/>
<path d="M82.1911 42.8616C82.1911 42.8616 80.7308 46.459 83.2122 46.6173C85.6936 46.7756 87.0523 43.0362 87.0523 43.0362L85.24 42.2346L82.1911 42.8616Z" fill="#C95836"/>
<path fill-rule="evenodd" clip-rule="evenodd" d="M85.4072 38.0734C85.478 37.5618 85.123 37.09 84.615 37.0175C84.0721 36.9409 83.3887 36.8439 82.8458 36.7673C82.3378 36.6959 81.9458 37.0686 81.797 37.5628C81.6215 38.1459 81.5415 39.3957 81.5938 40.3096C81.6226 40.8253 81.953 41.343 82.462 41.4145C83.0049 41.4911 84.7022 41.2011 84.9937 40.2474C85.2163 39.5213 85.3025 38.8249 85.4062 38.0724L85.4072 38.0734Z" fill="#C95836"/>
<path fill-rule="evenodd" clip-rule="evenodd" d="M92.2643 57.0124L88.7547 48.8965C87.8773 46.9512 88.807 45.1071 90.7086 45.0193C91.4577 44.9845 92.251 45.5839 92.4911 46.3651L95.4743 56.0924L92.2643 57.0114V57.0124Z" fill="#C95836"/>
<path fill-rule="evenodd" clip-rule="evenodd" d="M95.4559 55.8667C95.8161 57.5271 95.1593 59.1027 93.2865 59.7378L83.6884 60.9233L84.2035 58.9852L91.1817 56.9511L95.4569 55.8667H95.4559Z" fill="#C95836"/>
<path fill-rule="evenodd" clip-rule="evenodd" d="M74.8188 53.5742C73.651 54.77 73.258 56.4232 74.2503 57.9263L76.6321 61.3675L78.4167 60.4801L76.4023 56.2281L74.8188 53.5752V53.5742Z" fill="#C95836"/>
<path d="M84.2025 58.9851L82.6345 59.7847C82.3215 59.945 82.0762 60.2105 81.9428 60.5352L81.4051 61.8494C81.2173 62.3079 81.5487 62.8103 82.0454 62.8236L83.9583 61.7075C84.38 61.4614 84.7156 61.0397 84.8972 60.5291L85.199 59.6765L84.2015 58.9841L84.2025 58.9851Z" fill="#C95836"/>
<path d="M76.9369 59.699L78.6332 60.1718C78.9718 60.2668 79.2663 60.4792 79.4613 60.7702L80.2515 61.9516C80.5265 62.3631 80.3038 62.9217 79.8195 63.033L77.7209 62.3182C77.2581 62.161 76.8445 61.8148 76.5643 61.3492L76.0974 60.5741L76.9369 59.698V59.699Z" fill="#C95836"/>
<path fill-rule="evenodd" clip-rule="evenodd" d="M85.8772 63.5088H71.6078V62.4346H84.7977C85.3939 62.4346 85.8772 62.9155 85.8772 63.5088Z" fill="white"/>
<path fill-rule="evenodd" clip-rule="evenodd" d="M78.7595 63.5089H65.2382L61.158 54.4617H74.3694C74.5582 54.4617 74.7286 54.572 74.8055 54.7425L78.7585 63.5089H78.7595Z" fill="white"/>
<path fill-rule="evenodd" clip-rule="evenodd" d="M78.234 63.5089H64.7127L60.8202 54.8783C60.732 54.6833 60.8757 54.4617 61.0912 54.4617H73.9619C74.0789 54.4617 74.1846 54.5301 74.2328 54.6363L78.234 63.5089Z" fill="#264178"/>
<path fill-rule="evenodd" clip-rule="evenodd" d="M69.9248 59.0424C70.0859 59.6071 69.6467 60.0646 68.9447 60.0646C68.2428 60.0646 67.5429 59.6071 67.3818 59.0424C67.2207 58.4777 67.6599 58.0203 68.3618 58.0203C69.0638 58.0203 69.7636 58.4777 69.9248 59.0424Z" fill="white"/>
<path d="M64.2869 75.7214L68.6544 67.8505C68.6544 67.8505 70.1691 64.9852 76.9021 64.7422" stroke="#2D4973" stroke-width="3.6375" stroke-miterlimit="10" stroke-linecap="round"/>
<path fill-rule="evenodd" clip-rule="evenodd" d="M87.8804 47.428L90.1514 53.5742L95.2352 51.7474C94.2593 50.6926 93.2505 45.6482 90.49 44.2268C87.4545 42.6634 87.8793 47.4291 87.8793 47.4291L87.8804 47.428Z" fill="#CCCFED"/>
<path fill-rule="evenodd" clip-rule="evenodd" d="M79.2274 43.8633C79.2274 43.8633 77.2674 43.9981 76.233 47.3678C75.1986 50.7375 74.2863 51.4237 74.2863 51.4237L77.9981 52.9197L80.8499 45.9352L79.2285 43.8633H79.2274Z" fill="#CCCFED"/>
<path d="M77.0641 52.3519C77.0641 52.3519 77.9364 49.2436 78.5449 48.0529C79.1534 46.8623 79.1411 46.2363 79.1411 46.2363" stroke="#8B939C" stroke-width="1.875" stroke-linecap="round" stroke-linejoin="round"/>
<path d="M89.6187 51.8678L87.6915 46.9031V46.2373" stroke="#8B939C" stroke-width="1.875" stroke-linecap="round" stroke-linejoin="round"/>
<path d="M83.6761 36.3108C83.6761 36.3108 82.1778 38.6727 81.2152 38.8044C81.2152 38.8044 80.971 37.1308 81.793 36.3925C83.1014 35.2162 83.6761 36.3108 83.6761 36.3108Z" fill="#783A2F"/>
<path d="M83.1958 36.844C83.1958 36.844 84.0763 39.0731 84.9403 39.2651C85.8044 39.4571 86.2446 37.6783 86.1892 37.1309C86.1338 36.5836 85.3447 35.8453 84.0896 35.7636C82.8346 35.6819 83.1948 36.844 83.1948 36.844H83.1958Z" fill="#783A2F"/>
<path fill-rule="evenodd" clip-rule="evenodd" d="M85.6905 40.183C85.4934 40.5577 85.0829 40.7283 84.7751 40.5628C84.4672 40.3984 84.3769 39.9614 84.5739 39.5866C84.771 39.2119 85.1815 39.0413 85.4893 39.2068C85.7972 39.3722 85.8875 39.8082 85.6905 40.183Z" fill="#C95836"/>
<path fill-rule="evenodd" clip-rule="evenodd" d="M82.0238 39.8748L82.9577 40.0249C82.9577 40.0249 82.8684 40.7713 82.3696 40.6335C81.8709 40.4956 82.0238 39.8748 82.0238 39.8748Z" fill="white"/>
<path d="M86.8309 133.87C94.2368 132.078 98.7802 124.651 96.979 117.282C95.1777 109.913 87.7139 105.392 80.308 107.184C72.9021 108.976 68.3586 116.403 70.1599 123.773C71.9611 131.142 79.425 135.663 86.8309 133.87Z" fill="#E68F58"/>
<path d="M83.8457 133.881C91.2645 132.143 95.8626 124.75 94.1157 117.367C92.3687 109.985 84.9384 105.41 77.5195 107.148C70.1006 108.887 65.5026 116.28 67.2495 123.662C68.9964 131.044 76.4268 135.62 83.8457 133.881Z" fill="#FFCCAB"/>
<path d="M83.1017 129.407C88.0777 128.176 91.1088 123.164 89.8719 118.213C88.6349 113.261 83.5982 110.245 78.6222 111.476C73.6462 112.707 70.6151 117.719 71.852 122.67C73.089 127.622 78.1257 130.638 83.1017 129.407Z" fill="#F9A56E"/>
<path d="M81.9559 124.868C81.0016 125.126 79.9066 125.011 79.0918 124.678L79.3309 123.657C80.1508 123.956 81.0467 124.112 81.9262 123.784C82.9914 123.387 83.3034 122.601 82.9688 121.711C82.0945 119.389 78.2647 121.39 77.2118 118.595C76.7315 117.319 77.22 116.09 78.4042 115.436L77.8593 113.988L78.7234 113.666L79.258 115.085C80.2175 114.841 80.9903 115.061 81.7138 115.412L81.3443 116.35C80.6167 116.034 80.0574 115.899 79.2796 116.189C78.4011 116.517 78.044 117.271 78.357 118.103C79.14 120.181 82.9432 118.109 84.1038 121.19C84.6169 122.552 84.1089 123.821 82.8108 124.517L83.3557 125.965L82.4916 126.288L81.957 124.869L81.9559 124.868Z" fill="white"/>
<path fill-rule="evenodd" clip-rule="evenodd" d="M70.6225 116.221C70.6451 116.969 70.5671 117.86 70.1782 118.482C70.0129 118.748 70.1782 119.093 70.487 119.15C71.0874 119.262 71.9022 119.491 72.6246 119.964C72.9335 120.166 73.3379 119.945 73.3255 119.577C73.305 118.994 73.3799 118.248 73.7206 117.461C73.8356 117.196 73.6662 116.893 73.3799 116.848C72.8689 116.768 72.1187 116.533 71.3747 115.872C71.0781 115.609 70.6112 115.824 70.6235 116.221H70.6225Z" fill="white"/>
</g>
<defs>
<linearGradient id="paint0_linear_371_5664" x1="74.9995" y1="119.643" x2="74.9995" y2="7.5" gradientUnits="userSpaceOnUse">
<stop stop-color="white" stop-opacity="0"/>
<stop offset="1" stop-color="white"/>
</linearGradient>
<clipPath id="clip0_371_5664">
<rect width="150" height="150" fill="white"/>
</clipPath>
</defs>
</svg>
