<svg width="106" height="30" viewBox="0 0 106 30" fill="none" xmlns="http://www.w3.org/2000/svg">
<path d="M0 30H98C102.418 30 106 26.4183 106 22V0H25.8113C20.4219 0 15.4468 2.89126 12.7786 7.57384L0 30Z" fill="url(#paint0_linear_575_7336)"/>
<circle cx="32" cy="14" r="8" fill="#647A93"/>
<path d="M29.1716 16.8284L34.8285 11.1716" stroke="white" stroke-width="1.2"/>
<path d="M29.1716 11.1716L34.8284 16.8285" stroke="white" stroke-width="1.2"/>
<path d="M44.612 9.164V10.388H49.052V19.748H50.312V13.196C51.296 13.7 52.52 14.432 53.996 15.368L54.752 14.24C53.252 13.352 51.776 12.548 50.312 11.852V10.388H55.376V9.164H44.612ZM57.692 10.424V15.644H61.376V16.532H56.624V17.708H61.376V19.808H62.624V17.708H67.376V16.532H62.624V15.644H66.308V10.424H64.172C64.484 9.992 64.784 9.5 65.048 8.96L63.836 8.528C63.56 9.2 63.236 9.824 62.864 10.424H60.536L61.244 10.064C60.884 9.524 60.5 9.032 60.092 8.588L59.048 9.092C59.408 9.488 59.756 9.932 60.092 10.424H57.692ZM65.096 14.54H62.624V13.544H65.096V14.54ZM61.376 14.54H58.904V13.544H61.376V14.54ZM58.904 12.488V11.516H61.376V12.488H58.904ZM62.624 11.516H65.096V12.488H62.624V11.516ZM70.784 8.9C70.28 10.436 69.5 11.66 68.444 12.596L69.512 13.532C69.992 13.076 70.424 12.512 70.82 11.864H73.376V12.356C73.352 12.872 73.292 13.364 73.208 13.832H68.708V15.044H72.908C72.74 15.5 72.536 15.932 72.296 16.316C71.648 17.264 70.388 18.056 68.516 18.68L69.2 19.748C71.072 19.148 72.416 18.296 73.244 17.168C73.58 16.688 73.868 16.124 74.096 15.5C74.78 17.264 76.34 18.68 78.764 19.76L79.46 18.644C77.108 17.768 75.644 16.568 75.08 15.044H79.304V13.832H74.504C74.576 13.364 74.624 12.872 74.648 12.356V11.864H78.524V10.64H74.648V8.648H73.376V10.64H71.456C71.624 10.244 71.792 9.824 71.96 9.368L70.784 8.9ZM86.888 13.556C87.152 14.732 87.548 15.776 88.076 16.712C87.524 17.504 86.828 18.152 85.964 18.668L86.66 19.784C87.5 19.232 88.208 18.572 88.796 17.804C89.372 18.572 90.08 19.232 90.92 19.796L91.604 18.62C90.788 18.068 90.08 17.42 89.504 16.676C90.248 15.284 90.656 13.592 90.728 11.6H91.364V10.388H88.088C88.196 9.884 88.292 9.356 88.388 8.78L87.14 8.624C86.924 10.664 86.396 12.248 85.568 13.376V9.02H80.816V16.712H81.968V10.172H84.44V16.712H85.568V13.472L86.276 14.372C86.492 14.144 86.696 13.868 86.888 13.556ZM88.748 15.512C88.172 14.468 87.812 13.268 87.656 11.9C87.68 11.804 87.716 11.696 87.752 11.6H89.564C89.504 13.088 89.228 14.396 88.748 15.512ZM84.212 16.952L83.384 17.744C84.056 18.464 84.584 19.136 84.944 19.76L85.856 18.848C85.412 18.224 84.86 17.6 84.212 16.952ZM82.664 10.88V14.612C82.628 15.656 82.472 16.508 82.184 17.18C81.884 17.792 81.32 18.308 80.48 18.716L81.164 19.784C82.052 19.364 82.688 18.764 83.096 17.972C83.504 17.132 83.72 16.004 83.756 14.612V10.88H82.664Z" fill="#727E95"/>
<defs>
<linearGradient id="paint0_linear_575_7336" x1="-1.10142" y1="15" x2="106" y2="15" gradientUnits="userSpaceOnUse">
<stop stop-color="#85A5C5" stop-opacity="0.35"/>
<stop offset="1" stop-color="#4F8FCE" stop-opacity="0.06"/>
</linearGradient>
</defs>
</svg>
