<svg width="115" height="30" viewBox="0 0 115 30" fill="none" xmlns="http://www.w3.org/2000/svg">
<path d="M0 30H107C111.418 30 115 26.4183 115 22V0H26.9076C21.7095 0 16.882 2.69117 14.1487 7.11261L0 30Z" fill="url(#paint0_linear_575_2742)"/>
<circle cx="32" cy="14" r="8" fill="#F2731D"/>
<path d="M28.2792 14.5118L30.9944 17.2271L35.7209 12.4" stroke="white" stroke-width="1.2" stroke-linecap="round" stroke-linejoin="round"/>
<path d="M48.968 9.92V11.108H51.26V12.524H48.428V13.724H55.376V12.524H52.496V11.108H54.836V9.92H52.496V8.648H51.26V9.92H48.968ZM48.86 15.32V16.508H51.236V18.14H48.104V19.34H55.52V18.14H52.472V16.508H54.884V15.32H52.472V14.108H51.236V15.32H48.86ZM45.896 19.616C46.7 19.616 47.108 19.196 47.108 18.368V15.188C47.468 15.02 47.84 14.852 48.212 14.66V13.436C47.852 13.628 47.48 13.82 47.108 13.988V11.924H48.392V10.712H47.108V8.66H45.86V10.712H44.636V11.924H45.86V14.468C45.404 14.612 44.936 14.744 44.468 14.852L44.78 16.088C45.14 15.968 45.5 15.848 45.86 15.704V18.068C45.86 18.368 45.728 18.524 45.476 18.524C45.212 18.524 44.924 18.5 44.624 18.452L44.888 19.616H45.896ZM57.692 10.424V15.644H61.376V16.532H56.624V17.708H61.376V19.808H62.624V17.708H67.376V16.532H62.624V15.644H66.308V10.424H64.172C64.484 9.992 64.784 9.5 65.048 8.96L63.836 8.528C63.56 9.2 63.236 9.824 62.864 10.424H60.536L61.244 10.064C60.884 9.524 60.5 9.032 60.092 8.588L59.048 9.092C59.408 9.488 59.756 9.932 60.092 10.424H57.692ZM65.096 14.54H62.624V13.544H65.096V14.54ZM61.376 14.54H58.904V13.544H61.376V14.54ZM58.904 12.488V11.516H61.376V12.488H58.904ZM62.624 11.516H65.096V12.488H62.624V11.516ZM78.164 14.312V9.176H69.008V10.376H76.892V13.112H70.76V11.528H69.512V17.744C69.512 18.824 70.016 19.364 71.048 19.364H77.72C78.2 19.34 78.596 19.196 78.884 18.932C79.124 18.668 79.328 17.768 79.484 16.232L78.26 15.848C78.188 17.072 78.08 17.78 77.912 17.948C77.744 18.092 77.564 18.164 77.372 18.164H71.408C70.976 18.164 70.76 17.948 70.76 17.516V14.312H78.164ZM91.184 9.788H86.636C86.516 9.368 86.384 8.984 86.252 8.636L84.824 8.876C84.968 9.152 85.1 9.452 85.22 9.788H80.792V12.68H82.052V11H89.924V12.68H91.184V9.788ZM82.556 12.056V13.256H89.396V12.056H82.556ZM80.732 14.276V15.488H83.84C83.792 16.316 83.552 16.988 83.108 17.516C82.664 17.996 81.8 18.392 80.516 18.716L81.236 19.844C82.556 19.484 83.504 18.968 84.092 18.32C84.692 17.612 85.028 16.664 85.088 15.488H86.804V18.116C86.804 19.1 87.236 19.592 88.1 19.592H90.2C90.596 19.592 90.896 19.472 91.088 19.256C91.304 19.028 91.448 18.296 91.532 17.072L90.344 16.7C90.32 17.516 90.272 18.008 90.224 18.164C90.164 18.32 90.08 18.404 89.96 18.404H88.484C88.196 18.404 88.052 18.224 88.052 17.864V15.488H91.28V14.276H80.732ZM101.108 8.54L100.316 9.296C100.784 9.656 101.168 10.016 101.468 10.352H99.776C99.752 9.8 99.74 9.224 99.74 8.612H98.468C98.468 9.212 98.468 9.8 98.492 10.352H93.548V14.348C93.512 16.292 93.128 17.816 92.384 18.908L93.332 19.76C94.256 18.404 94.748 16.616 94.808 14.384H96.5C96.476 15.608 96.44 16.364 96.368 16.64C96.308 16.88 96.176 17 95.984 17.012C95.648 17.012 95.252 16.988 94.772 16.952L95.156 18.092C95.516 18.128 95.84 18.152 96.128 18.152C96.776 18.14 97.196 17.888 97.388 17.384C97.592 16.832 97.712 15.44 97.748 13.208H94.808V11.54H98.552C98.648 12.98 98.816 14.192 99.08 15.152C99.212 15.644 99.356 16.1 99.524 16.52C98.732 17.48 97.772 18.212 96.644 18.716L97.364 19.772C98.396 19.316 99.308 18.656 100.1 17.792C100.244 18.056 100.412 18.296 100.58 18.512C101.168 19.22 101.72 19.58 102.248 19.58C102.848 19.58 103.292 18.728 103.604 17.036L102.476 16.424C102.32 17.576 102.176 18.152 102.056 18.152C101.876 18.152 101.612 17.888 101.276 17.372C101.156 17.192 101.036 16.976 100.928 16.736C101.66 15.668 102.26 14.372 102.728 12.848L101.588 12.356C101.276 13.436 100.88 14.408 100.4 15.248C100.352 15.08 100.304 14.924 100.268 14.756C100.076 14.012 99.932 12.932 99.836 11.54H103.364V10.352H101.936L102.488 9.788C102.104 9.368 101.648 8.948 101.108 8.54Z" fill="#F2731D"/>
<defs>
<linearGradient id="paint0_linear_575_2742" x1="-2.5" y1="15" x2="115" y2="15" gradientUnits="userSpaceOnUse">
<stop stop-color="#FFD6B0"/>
<stop offset="1" stop-color="#FFD6B0" stop-opacity="0"/>
<stop offset="1" stop-color="#FFD6B0" stop-opacity="0.3"/>
</linearGradient>
</defs>
</svg>
