<svg width="127" height="95" viewBox="0 0 127 95" fill="none" xmlns="http://www.w3.org/2000/svg">
<path fill-rule="evenodd" clip-rule="evenodd" d="M7.159 94.8186H119.841C124.414 86.0311 127 76.0399 127 65.4436C127 30.3064 98.5701 1.82208 63.5 1.82208C28.4299 1.82208 0 30.3064 0 65.4436C0 76.0399 2.58554 86.0311 7.159 94.8186Z" fill="url(#paint0_linear_371_4324)"/>
<g opacity="0.8">
<path d="M93.698 45.6132C93.3605 46.5447 92.9455 47.4317 92.4585 48.2578C91.2965 50.2481 89.7526 51.9169 87.9542 53.2087C83.7764 56.2136 78.2373 57.1672 73.0413 55.2711C66.8603 53.0202 62.8872 47.3707 62.4611 41.189C62.4058 40.374 62.4113 39.5535 62.4833 38.7274C62.5995 37.3414 62.9038 35.9443 63.3963 34.5749C63.8003 33.466 64.3093 32.4293 64.9125 31.4701C64.918 31.4591 64.9236 31.448 64.9346 31.4369C66.6058 28.7868 68.9852 26.7465 71.7188 25.4658C72.4935 25.0999 73.2958 24.8006 74.1259 24.5622C74.5187 24.4513 74.9172 24.3515 75.3211 24.2683C78.1432 23.6862 81.1535 23.858 84.0586 24.9114C84.4459 25.05 84.8222 25.2053 85.1874 25.3716C85.7076 25.6045 86.2056 25.865 86.687 26.1478C88.7178 27.3342 90.4166 28.9254 91.717 30.7771C92.5304 31.9303 93.1834 33.1833 93.6704 34.5083C93.9249 35.2014 94.1352 35.9165 94.2957 36.6373C94.3953 37.0864 94.4727 37.5465 94.5336 38.0067C94.6775 39.1155 94.7107 40.241 94.6166 41.3775C94.5059 42.7968 94.2071 44.2161 93.698 45.6132Z" fill="#D8E2F4"/>
<path d="M75.8689 31.4258C74.9172 32.1632 75.1717 34.1424 73.5227 33.028C71.8737 31.9137 70.8389 31.3094 70.3741 32.2796C69.9038 33.2554 71.3701 33.7876 70.9828 34.8465C70.5955 35.9055 69.8152 36.0163 68.9907 35.1459C68.1662 34.2755 68.1441 33.4383 66.805 33.466C65.4714 33.4938 64.8959 32.9449 64.9623 31.9359C64.9734 31.7584 64.9568 31.6032 64.918 31.4701C64.9236 31.4591 64.9291 31.448 64.9402 31.4369C66.6113 28.7868 68.9907 26.7465 71.7243 25.4658C72.499 25.0999 73.3014 24.8005 74.1314 24.5621C74.5243 24.4513 74.9227 24.3515 75.3266 24.2683C75.7915 24.4568 76.2895 24.8449 76.5551 25.6155C77.1361 27.312 78.0823 26.9129 77.28 28.3377C76.4776 29.7626 76.8096 30.1118 77.6839 30.3724C78.5582 30.633 79.5653 30.9989 79.427 31.6919C79.2831 32.3849 76.8207 30.6884 75.8689 31.4258Z" fill="#B8C8E6"/>
<path d="M93.698 45.6132C93.3605 46.5446 92.9455 47.4317 92.4585 48.2578C91.2965 50.2481 89.7526 51.9169 87.9542 53.2087C87.506 53.1921 87.0965 53.0424 86.7534 52.7374C85.1376 51.2904 87.2791 49.7547 88.4024 49.0118C89.5313 48.2633 87.4396 48.0194 86.3827 46.5613C85.3258 45.1032 87.7993 43.135 86.2111 43.0297C84.623 42.9243 82.6918 42.819 82.3708 41.1169C82.0499 39.4149 83.7155 39.7642 83.4222 38.3282C83.1289 36.8923 84.5123 36.6262 85.9898 37.0364C87.4672 37.4467 87.6499 36.3545 89.4815 36.8479C91.3131 37.3414 90.4498 39.6034 92.4696 40.1633C94.4893 40.7288 94.2348 41.1502 94.2348 41.1502C94.3787 41.2001 94.5059 41.2777 94.6111 41.3886C94.5059 42.7968 94.2071 44.2161 93.698 45.6132Z" fill="#B8C8E6"/>
<path d="M94.5391 38.0122C92.619 38.2118 92.7463 35.8112 91.1139 35.9498C89.4704 36.0939 90.1732 34.9186 89.3597 33.71C88.5463 32.5013 85.7961 33.1556 86.355 31.9303C86.9139 30.705 88.4467 31.6642 89.1661 30.7827C89.8854 29.9011 91.4072 30.7439 91.4072 30.7439C91.5123 30.7439 91.6174 30.7549 91.7226 30.7827C92.536 31.9358 93.189 33.1888 93.6759 34.5139C93.9305 35.2069 94.1407 35.9221 94.3012 36.6428C94.3953 37.0974 94.4783 37.5521 94.5391 38.0122Z" fill="#B8C8E6"/>
<path d="M82.3542 28.6482C82.3542 28.6482 83.6602 27.7223 82.4317 26.863C81.2033 26.0036 81.0539 26.4915 80.0412 25.9925C79.023 25.4936 78.3092 26.1644 78.7796 27.3509C79.2499 28.5373 79.2665 30.4888 80.3179 29.8346C81.3637 29.1693 81.4744 28.4264 82.3542 28.6482Z" fill="#B8C8E6"/>
</g>
<path d="M6.98728 93.3317H12.6094C12.9082 93.0766 12.3991 92.4945 11.8679 92.4557C11.6355 92.439 11.3422 92.4889 11.0102 92.5555C10.9327 91.5243 10.49 86.9005 8.82442 87.0834C6.95408 87.2941 8.82442 89.1237 9.35564 90.2048C9.74852 91.0087 10.1635 92.1563 10.3517 92.6996C10.2023 92.7329 10.0418 92.7661 9.88132 92.7939C9.63231 92.0288 8.70821 89.4618 7.5351 89.6115C6.15725 89.789 6.7106 90.8146 7.69004 91.43C8.4094 91.8791 9.28923 92.5167 9.70425 92.8271C9.3501 92.8826 8.97936 92.9269 8.60307 92.9158C7.64024 92.8937 7.16988 93.1764 6.98728 93.3317Z" fill="#A8D29F"/>
<path d="M96.4593 93.3316H91.2356C90.9534 93.0932 91.4293 92.5555 91.9218 92.5166C92.1376 92.5 92.4087 92.5444 92.7186 92.6109C92.7905 91.6573 93.2 87.3551 94.7494 87.5269C96.4869 87.721 94.7494 89.4175 94.2569 90.4265C93.8917 91.1694 93.5099 92.2394 93.3328 92.744C93.4767 92.7772 93.6205 92.8049 93.77 92.8327C94.0024 92.123 94.8601 89.739 95.9502 89.8776C97.2284 90.0384 96.7138 90.9976 95.8063 91.5631C95.1423 91.9789 94.3233 92.5721 93.936 92.8604C94.2624 92.9158 94.6111 92.9491 94.9597 92.9435C95.8561 92.9269 96.2933 93.1875 96.4593 93.3316Z" fill="#A8D29F"/>
<path d="M100.189 59.0356C100.189 59.0356 100.311 57.7992 99.6687 57.8381C99.0213 57.8824 98.8498 58.1762 98.9217 58.4146C98.9936 58.653 99.6245 59.4403 99.6245 59.4403L100.189 59.0356Z" fill="#FFB27D"/>
<path d="M110.26 61.5194C110.26 61.5194 109.546 62.3621 108.008 63.3323C107.864 63.4266 107.709 63.5153 107.548 63.6095C106.951 63.9588 106.248 64.3136 105.44 64.6463C105.352 64.6851 105.247 64.7239 105.13 64.7682C104.206 65.1009 102.513 65.5777 101.462 65.6165C101.368 65.622 101.285 65.622 101.202 65.6165C99.6023 65.55 99.4086 59.3294 99.4086 59.3294C99.4086 59.3294 99.5857 58.7085 100.41 58.8637C100.41 58.8637 101.661 62.3787 102.109 62.667C102.507 62.922 104.793 59.4514 106.757 59.2075C108.074 59.0467 110.26 61.5194 110.26 61.5194Z" fill="url(#paint1_linear_371_4324)"/>
<path d="M105.96 91.868C105.96 91.868 106.077 93.2374 105.789 93.3816L102.087 93.376C102.087 93.376 102.087 92.9491 102.679 92.8549C103.271 92.7606 104.317 92.4113 104.494 91.6352C104.677 90.8534 105.96 91.868 105.96 91.868Z" fill="#1C3154"/>
<path d="M103.249 75.2855C103.266 76.1836 103.31 77.104 103.393 77.9356C103.791 81.8775 103.935 86.6399 103.99 87.5547C104.09 89.1458 104.405 91.6961 104.405 91.6961C104.405 91.6961 105.031 92.2894 106.243 92.0066C106.243 92.0066 107.25 88.3419 107.477 84.4777C107.482 84.4167 107.482 84.3502 107.488 84.2892C107.515 83.7791 107.543 83.197 107.571 82.5649C107.753 78.3514 107.958 72.0865 107.958 72.0865L103.315 70.9943C103.31 70.9943 103.199 73.0512 103.249 75.2855Z" fill="url(#paint2_linear_371_4324)"/>
<path d="M103.249 75.2855C104.428 77.3202 106.669 81.068 107.565 82.5649C107.748 78.3514 107.952 72.0865 107.952 72.0865L103.31 70.9943C103.31 70.9943 103.199 73.0512 103.249 75.2855Z" fill="#233862"/>
<path d="M105.13 64.7683C104.206 65.1009 102.513 65.5777 101.462 65.6165C101.622 65.5888 102.795 65.356 103.227 64.8293C103.692 64.2638 104.477 62.7391 105.097 63.3601C105.385 63.6594 105.302 64.2416 105.13 64.7683Z" fill="#6385DB"/>
<path d="M112.927 74.6258C112.927 74.6258 113.215 75.7568 113.171 76.0118C113.121 76.2613 112.844 77.1151 112.667 77.3257C112.49 77.5364 112.484 76.4054 112.368 76.228C112.252 76.0506 112.313 76.6494 112.219 76.6993C112.125 76.7492 111.97 76.2446 111.898 76.0672C111.826 75.8898 112.147 75.2689 112.175 74.8253C112.208 74.3763 112.927 74.6258 112.927 74.6258Z" fill="#FFB27D"/>
<path d="M115.179 90.3101C115.179 90.3101 115.838 90.9144 115.71 91.3413C115.583 91.7682 114.986 92.0565 114.908 92.5776C114.825 93.0988 114.504 93.3871 114.216 93.3871C113.929 93.3871 112.839 93.3871 112.839 93.3871C112.839 93.3871 112.628 93.0212 113.137 92.9103C113.652 92.7994 113.846 92.184 113.812 91.613C113.779 91.0419 113.862 90.2824 113.862 90.2824L114.952 90.0273L115.179 90.3101Z" fill="#1C3154"/>
<path d="M104.04 72.1808C104.04 72.1808 108.384 81.4949 110.697 85.581C113.01 89.667 113.729 90.8091 113.729 90.8091C113.729 90.8091 115.052 90.2879 115.174 89.9276C115.174 89.9276 114.288 82.0382 112.739 80.1144C111.865 79.0278 110.835 75.7678 110.786 74.6257C110.736 73.4836 109.723 70.7615 109.723 70.7615L104.04 72.1808Z" fill="#14336D"/>
<path d="M103.227 71.6984C103.227 71.6984 104.643 73.223 107.045 73.6832C108.102 73.8883 110.243 74.0824 110.775 73.3284C110.902 73.151 110.902 72.8904 110.874 72.4801C110.802 71.4157 110.537 69.3643 111.737 65.2395C111.848 64.8569 111.926 64.4855 111.97 64.1362C112.23 62.0239 112.202 60.4327 110.376 59.5789C107.637 58.3038 106.514 59.3516 106.514 59.3516C106.514 59.3516 105.058 60.0335 104.394 62.0183C103.066 66.0046 103.227 71.6984 103.227 71.6984Z" fill="url(#paint3_linear_371_4324)"/>
<path d="M108.733 59.2352C108.273 59.5623 107.46 59.7563 106.685 59.3683C106.624 59.3405 106.635 58.9303 106.647 58.5255C106.663 58.1319 106.696 57.7438 106.696 57.7438L107.67 57.1007L108.6 56.4908C108.495 58.5921 108.943 59.0855 108.733 59.2352Z" fill="#FFB27D"/>
<path d="M108.445 57.3613C108.445 57.3613 107.814 58.3093 106.652 58.5255C106.669 58.1319 106.707 57.6939 106.707 57.6939L107.676 57.1007L108.445 57.3613Z" fill="#ED985F"/>
<path d="M105.833 57.4943C105.833 57.4943 108.19 58.3758 108.716 56.9233C109.242 55.4707 109.9 54.6003 108.417 53.9793C106.934 53.3529 106.442 53.8075 106.143 54.251C105.844 54.689 105.23 57.2282 105.833 57.4943Z" fill="#FFB27D"/>
<path d="M110.182 54.1401C110.21 54.118 110.265 54.1069 110.382 54.1235C110.382 54.1235 110.304 54.0514 110.182 54.0237C110.188 53.8629 110.16 53.5635 109.9 53.4416C109.9 53.4416 110.033 53.5469 110.016 53.7188C109.767 53.3307 109.137 52.9648 107.244 52.743C104.743 52.4492 105.247 54.19 105.529 54.4395C105.811 54.689 106.713 54.3342 107.299 54.5005C107.886 54.6668 107.825 55.5483 108.008 55.7036C108.185 55.8588 108.146 55.6371 108.445 55.565C108.744 55.4929 108.677 55.9531 108.545 56.2303C108.406 56.5075 108.705 56.9732 108.705 56.9732C108.705 56.9732 108.705 56.9732 109.164 56.6405C109.624 56.3079 110.321 54.6502 110.221 54.2455C110.199 54.2122 110.188 54.1789 110.182 54.1401Z" fill="#2C3A64"/>
<path d="M110.874 59.8617C110.874 59.8617 111.975 60.2609 112.678 63.1826C113.143 65.112 113.995 67.945 114.089 68.8377C114.183 69.7303 113.115 74.9417 113.115 74.9417C113.115 74.9417 112.966 75.0526 112.595 74.9806C112.241 74.9085 112.075 74.6701 112.075 74.6701C112.075 74.6701 111.82 71.1939 111.887 69.5528C111.914 68.8709 108.738 64.5576 107.023 64.0032C106.342 63.7814 110.874 59.8617 110.874 59.8617Z" fill="url(#paint4_linear_371_4324)"/>
<path d="M95.4798 56.0804C95.4798 56.0804 98.6616 55.9917 102.33 56.6681L102.712 55.6979L103.133 54.639C103.133 54.639 99.4474 53.0478 97.234 50.8357L95.4798 56.0804Z" fill="#C2DAFF"/>
<path d="M97.2893 50.7859L95.4632 56.1859C95.1976 56.1083 95.0482 55.82 95.1423 55.5539L96.747 51.0188C96.8245 50.8026 97.0735 50.6917 97.2893 50.7859Z" fill="#F99746"/>
<path d="M99.0324 60.1001C99.3865 60.1721 99.7351 59.9393 99.8071 59.5845L100.438 56.4354C100.51 56.0806 100.277 55.7313 99.9233 55.6592C99.5691 55.5871 99.2205 55.82 99.1486 56.1748L98.5177 59.3239C98.4403 59.6787 98.6727 60.028 99.0324 60.1001Z" fill="#F99746"/>
<path d="M95.4798 56.0806C95.4798 56.0806 98.6616 55.9919 102.33 56.6683L102.712 55.6981C99.2648 54.994 95.4798 56.0806 95.4798 56.0806Z" fill="#85BDF0"/>
<path d="M101.318 56.4742L102.314 56.6516C102.297 56.6516 103.238 56.8346 103.542 56.0029C103.57 55.9475 103.586 55.8921 103.603 55.8255C103.841 54.7888 103.271 54.5947 103.271 54.5947L101.993 54.0958L101.589 55.5372C101.589 55.5372 101.589 55.5372 101.589 55.5428L101.318 56.4742Z" fill="#F99746"/>
<path d="M101.318 56.4742L102.314 56.6517C102.297 56.6517 103.238 56.8346 103.542 56.003C102.978 55.5927 101.583 55.5373 101.583 55.5373C101.583 55.5373 101.583 55.5373 101.583 55.5428L101.318 56.4742Z" fill="#ED7D2B"/>
<path d="M99.1154 57.0508C99.1154 57.0508 99.6023 57.2449 99.5138 57.4611C99.4253 57.6773 98.8055 57.9711 98.7114 57.7993C98.6118 57.6274 98.811 56.8679 99.1154 57.0508Z" fill="#FFB27D"/>
<path d="M100.2 58.8416C100.2 58.8416 100.294 58.3426 100.3 58.1153C100.305 57.888 100.333 57.6995 100.277 57.6939C100.222 57.6884 100.183 57.7272 100.161 57.8048C100.139 57.8769 100.056 58.3371 100.056 58.3371L100.1 58.775L100.2 58.8416Z" fill="#FFB27D"/>
<path d="M52.1134 58.5144L49.3577 91.3246C49.3577 91.3246 49.0699 93.3149 50.5474 93.3149C52.9766 93.3205 62.6327 93.3149 62.6327 93.3149C62.6327 93.3149 60.8066 92.8991 60.8287 91.9677C60.8564 90.87 64.0493 58.1984 64.0493 58.1984L52.1134 58.5144Z" fill="#486DB6"/>
<path d="M63.5402 92.7384C63.0643 92.7384 53.7126 92.755 51.3498 92.7273C50.3205 92.7162 50.1379 91.807 50.1324 91.2248C50.1269 90.9421 50.1656 90.737 50.1656 90.737L50.2375 89.8832L50.4201 87.7099L50.5806 85.7916L50.7854 83.3244L50.9624 81.2398L52.9213 57.9267L64.8516 57.6163C64.8516 57.6163 63.507 71.2881 62.5552 81.2398C62.4501 82.3487 62.3505 83.4132 62.2564 84.4056C62.2287 84.7216 62.1955 85.032 62.1679 85.3314C62.0793 86.2739 61.9963 87.1388 61.9299 87.9039C61.8912 88.3086 61.858 88.6801 61.8303 89.0238C61.7086 90.3655 61.6366 91.2248 61.6366 91.3856C61.6366 91.4799 61.6422 91.5686 61.6588 91.6517C61.8525 92.6885 63.3631 92.7384 63.5402 92.7384Z" fill="#C2DAFF"/>
<path d="M23.1397 40.6623L29.8464 67.6622L30.7649 71.3602L33.8914 83.9343H91.9383L80.423 40.6623H23.1397Z" fill="#85BDF0"/>
<path d="M23.1397 40.6623L22.2101 40.9728L32.6574 84.8713L33.8914 83.9343L23.1397 40.6623Z" fill="#486DB6"/>
<path d="M32.6574 84.8712H90.3447L91.9384 83.9343H33.8914L32.6574 84.8712Z" fill="#7599EA"/>
<path d="M52.9154 93.3295H65.4046V92.7362H52.9154V93.3295Z" fill="#85BDF0"/>
<path d="M23.1397 40.6623H80.423L89.7194 75.4407H31.7776L23.1397 40.6623Z" fill="#C2DAFF"/>
<path d="M87.019 73.9327H33.3823L31.4622 66.2818L30.7207 63.3212L30.4219 62.1126L28.4519 54.251L28.3468 53.8463L27.3065 49.6882L26.8417 47.8309L26.4432 46.2453L25.5136 42.5251H78.3756L79.3993 46.2453L79.8365 47.8309L80.3456 49.6882L83.7155 61.9352V61.9407L84.0032 62.9775L84.136 63.4598L86.4601 71.9146L87.019 73.9327Z" fill="#739AF0"/>
<path d="M79.3993 46.2453H26.4432L25.5136 42.5251H78.3756L79.3993 46.2453Z" fill="url(#paint5_linear_371_4324)"/>
<path d="M27.6994 44.205C27.633 43.95 27.7934 43.7393 28.048 43.7393C28.3025 43.7393 28.5626 43.95 28.629 44.205C28.6954 44.4601 28.5349 44.6707 28.2804 44.6707C28.0203 44.6707 27.7602 44.4601 27.6994 44.205Z" fill="#E9F3FE"/>
<path d="M29.2377 44.205C29.1713 43.95 29.3318 43.7393 29.5863 43.7393C29.8408 43.7393 30.1009 43.95 30.1673 44.205C30.2337 44.4601 30.0733 44.6707 29.8187 44.6707C29.5642 44.6707 29.3041 44.4601 29.2377 44.205Z" fill="#E9F3FE"/>
<path d="M30.8977 44.205C30.8313 43.95 30.9918 43.7393 31.2464 43.7393C31.5009 43.7393 31.761 43.95 31.8274 44.205C31.8938 44.4601 31.7333 44.6707 31.4788 44.6707C31.2242 44.6707 30.9641 44.4601 30.8977 44.205Z" fill="#E9F3FE"/>
<path d="M67.8563 20.9086C70.0255 18.3582 73.3677 13.2355 75.6199 10.6131C76.0847 10.0753 75.6974 9.23814 74.9891 9.23814H70.8943L74.7567 0.48395C74.9227 0.112493 74.4136 -0.186891 74.1701 0.140213L64.8295 12.6644C64.5583 13.0303 64.8572 13.5459 65.3054 13.4905L69.9425 12.9195L67.1868 20.5094C67.0318 20.9307 67.5686 21.2467 67.8563 20.9086Z" fill="#F2731D"/>
<path d="M48.5774 36.4377C49.0644 33.9317 49.3743 29.2746 49.8889 26.6911C49.994 26.1588 49.4296 25.7486 48.9537 26.0147L46.2312 27.5504L45.534 20.2931C45.5063 19.9827 45.0581 19.9771 45.0138 20.282L43.4866 32.1021C43.4423 32.4459 43.8297 32.6787 44.1119 32.468L46.9782 30.3502L47.9798 36.4266C48.0352 36.7648 48.511 36.7758 48.5774 36.4377Z" fill="#C3D1EA"/>
<path d="M89.3597 74.6701L42.7561 78.6064C39.2147 78.9058 36.6582 75.291 38.108 72.0422L57.8517 27.7667C59.3513 24.4069 63.9552 24.0188 65.9915 27.0792L92.8459 67.4183C94.8213 70.3789 92.8957 74.3707 89.3597 74.6701Z" fill="white"/>
<path d="M89.5091 76.4386L42.9056 80.375C40.6147 80.569 38.451 79.56 37.1175 77.6805C35.7839 75.8011 35.5515 73.4226 36.4922 71.3214L56.2359 27.0459C57.2043 24.8726 59.2019 23.4533 61.5702 23.2537C63.9386 23.0541 66.1409 24.1186 67.4635 26.0979L94.3233 66.437C95.6016 68.3553 95.7676 70.7393 94.766 72.8128C93.7644 74.8918 91.8 76.2446 89.5091 76.4386ZM61.8635 26.7853C60.7955 26.8741 59.8991 27.5116 59.4619 28.4929L39.7182 72.7684C39.2977 73.7165 39.4028 74.7865 40.0004 75.6292C40.5981 76.4775 41.572 76.9265 42.6067 76.8434L89.2103 72.907C90.2396 72.8183 91.1249 72.2085 91.5787 71.2771C92.0269 70.3401 91.955 69.2701 91.3795 68.4052L64.5141 28.066C63.922 27.1734 62.9315 26.6911 61.8635 26.7853Z" fill="#F2731D"/>
<path d="M60.7734 67.9007C60.7236 67.2964 60.7845 66.7364 60.956 66.2042C61.1275 65.6775 61.3931 65.2062 61.7528 64.8015C62.1125 64.3968 62.5607 64.0642 63.0919 63.8091C63.6232 63.5541 64.2374 63.3933 64.9236 63.3379C65.6152 63.2824 66.2461 63.3323 66.8216 63.4931C67.397 63.6539 67.9006 63.9089 68.3212 64.2471C68.7417 64.5853 69.0848 65.0067 69.3393 65.4945C69.5939 65.988 69.7488 66.5368 69.7986 67.1356C69.8484 67.7399 69.7875 68.2999 69.616 68.8155C69.4445 69.3366 69.1789 69.7968 68.8192 70.2071C68.4595 70.6118 68.0057 70.9444 67.4635 71.205C66.9212 71.46 66.3069 71.6208 65.6152 71.6763C64.9236 71.7372 64.2983 71.6818 63.7283 71.521C63.1583 71.3602 62.6659 71.1052 62.2398 70.767C61.8192 70.4288 61.4761 70.013 61.2216 69.5307C60.9781 69.0428 60.8232 68.4995 60.7734 67.9007ZM67.9781 59.4514L61.2659 60.0169L58.3829 37.1141L66.9986 36.3878L67.9781 59.4514Z" fill="#F2731D"/>
<path d="M31.8329 60.8541C31.8329 60.8541 31.9768 60.527 32.0764 60.3662C32.1705 60.211 32.5744 59.7508 32.6464 59.8561C32.7128 59.9615 32.9894 60.6545 32.8456 60.8485C32.7017 61.0426 32.8566 61.3808 32.1262 61.5859L31.8329 60.8541Z" fill="#FFB27D"/>
<path d="M23.7484 58.775C23.7484 58.775 27.4725 61.8908 28.9223 61.6025C30.0566 61.3752 31.855 60.8042 31.855 60.8042C31.855 60.8042 32.3309 61.2533 32.1926 61.7966C32.1926 61.7966 29.9072 63.9532 28.2748 63.9643C25.7294 63.9865 24.5286 62.7003 24.5286 62.7003L23.7484 58.775Z" fill="#ED7D2B"/>
<path d="M17.2188 91.6241C17.2188 91.6241 17.3295 93.3705 17.6615 93.3982C17.7058 93.4037 19.3714 93.4037 19.3714 93.4037L21.4962 93.3926C21.4962 93.3926 21.4796 92.877 20.8599 92.7717C20.2401 92.6608 19.1998 92.2228 18.8235 91.4023C18.4307 90.5263 17.2188 91.6241 17.2188 91.6241Z" fill="#113C68"/>
<path d="M17.0971 91.7405C17.0971 91.7405 17.7445 91.9567 18.2481 91.9567C18.8125 91.9567 19.3216 91.8015 19.3216 91.8015C19.3216 91.8015 19.4433 90.6205 20.1129 88.0259C20.4615 86.662 20.965 84.9101 21.6789 82.7368C23.6543 76.7214 24.252 73.2064 24.3073 72.8738C24.3128 72.8571 24.3128 72.846 24.3128 72.846L24.3073 72.8405L18.2425 70.1738C18.2425 70.1738 18.9895 78.4623 18.0378 81.6446C17.905 82.0881 17.7888 82.6093 17.6892 83.1692C17.0805 86.6288 17.0971 91.7405 17.0971 91.7405Z" fill="url(#paint6_linear_371_4324)"/>
<path d="M20.1129 88.0259C20.4615 86.662 20.965 84.9101 21.6789 82.7368C23.6543 76.7214 24.252 73.2064 24.3073 72.8738C24.3073 72.8627 24.3073 72.8571 24.3073 72.8461L18.2425 70.1793C18.2425 70.1793 18.9896 78.4678 18.0378 81.6501C17.8994 82.0937 20.1129 88.0259 20.1129 88.0259Z" fill="#233862"/>
<path d="M21.9555 91.6241C21.9555 91.6241 22.0662 93.3705 22.3982 93.3982C22.4425 93.4037 24.1081 93.4037 24.1081 93.4037L26.233 93.3926C26.233 93.3926 26.2164 92.877 25.5966 92.7717C24.9768 92.6608 23.9365 92.2228 23.5603 91.4023C23.1674 90.5263 21.9555 91.6241 21.9555 91.6241Z" fill="#15447C"/>
<path d="M25.3974 70.3734C25.3974 70.3734 25.4749 75.7456 24.5508 82.3376C23.6211 88.9351 23.9365 91.7294 23.9365 91.7294C23.9365 91.7294 23.3002 91.9345 23.0401 91.9567C22.3872 92.0121 21.7121 91.8014 21.7121 91.8014C21.7121 91.8014 20.384 85.2039 20.7658 81.9052C21.1476 78.6064 18.9453 70.5785 18.9453 70.5785L25.3974 70.3734Z" fill="#14336D"/>
<path d="M21.0923 57.7993L22.2765 58.5754L23.3555 58.2705C23.5547 57.9878 23.6045 57.4444 23.6101 56.9732C23.6156 56.5075 23.5658 56.1083 23.5658 56.1083L21.9666 55.4042L21.369 55.1436C21.369 55.1547 21.4132 55.6315 21.4243 55.7036C21.535 56.9566 21.0923 57.7993 21.0923 57.7993Z" fill="#FFB27D"/>
<path d="M25.4195 71.8647C23.9476 73.2896 18.3698 73.0512 18.0267 71.4822C17.6836 69.9132 18.403 58.1097 20.9208 57.3724C21.4409 57.2171 24.2354 58.1208 24.2354 58.1208C24.2354 58.1208 24.6725 59.2685 24.9603 60.7321C25.0156 61.0149 25.1761 64.0309 25.3033 66.8528C25.3587 68.1723 25.4085 69.4475 25.4306 70.3845C25.4527 71.2604 25.4527 71.8315 25.4195 71.8647Z" fill="#F99746"/>
<path d="M21.5461 55.7313C21.8725 56.2802 23.0069 56.7625 23.6101 56.9787C23.6156 56.513 23.5658 56.1139 23.5658 56.1139L21.9666 55.4098C21.618 55.4042 21.4022 55.4818 21.5461 55.7313Z" fill="#FCA56B"/>
<path d="M24.169 56.0196C24.169 56.0196 21.5959 56.8235 21.12 55.2102C20.6441 53.5968 19.9911 52.6155 21.618 52.0334C23.2393 51.4512 23.7429 51.9724 24.0306 52.4714C24.3184 52.9703 24.8274 55.7701 24.169 56.0196Z" fill="#FFB27D"/>
<path d="M23.931 52.3161C23.931 52.3161 23.765 54.1956 23.3777 54.1124C22.9903 54.0293 22.5642 53.8574 22.6196 54.4229C22.6749 54.9884 22.2433 55.9586 21.6844 55.9586C20.4836 55.9531 19.1832 52.8705 19.5097 52.2884C20.4559 50.5974 25.2978 50.2592 23.931 52.3161Z" fill="#163560"/>
<path d="M23.5492 57.4111C23.516 57.3945 21.6346 56.5518 21.4132 56.6239C21.1919 56.696 20.9208 57.3723 20.9208 57.3723L24.2354 58.1208C24.2354 58.1208 23.9753 57.5886 23.5492 57.4111Z" fill="#ED7D2B"/>
<path d="M35.2693 66.5479L24.7168 76.5052C24.512 76.6992 24.2464 76.7602 24.1358 76.6438L23.7816 76.2668C23.6709 76.1504 23.7484 75.8898 23.9531 75.6957L34.5056 65.7385C34.7104 65.5444 34.976 65.4834 35.0867 65.5999L35.4408 65.9769C35.557 66.0933 35.4795 66.3539 35.2693 66.5479Z" fill="#1F4D84"/>
<path d="M29.3484 72.1364L24.7168 76.5052C24.512 76.6992 24.2464 76.7602 24.1358 76.6438L23.7816 76.2668C23.6709 76.1504 23.7484 75.8898 23.9531 75.6957L28.5847 71.327L29.3484 72.1364Z" fill="#739AF0"/>
<path d="M32.8456 62.789C33.2495 64.1251 34.0021 65.3781 35.0922 66.4093C38.4178 69.5473 43.6526 69.3865 46.7846 66.0545C49.8723 62.7668 49.7561 57.6163 46.5577 54.4672C46.5134 54.4229 46.4692 54.3841 46.4304 54.3397C43.1048 51.2017 37.87 51.3625 34.738 54.6946C32.6298 56.9344 32.01 60.0391 32.8456 62.789ZM35.2084 55.1381C37.0289 53.1976 39.6242 52.427 42.0645 52.8484C43.4866 53.0923 44.8534 53.7465 45.9767 54.811C49.0423 57.6995 49.1861 62.5284 46.3032 65.5999C45.2407 66.7309 43.9182 67.4627 42.5182 67.7954C40.1111 68.3664 37.4716 67.751 35.5349 65.927C32.4748 63.0385 32.3254 58.2095 35.2084 55.1381Z" fill="#1F4D84"/>
<g opacity="0.5">
<path d="M46.3087 65.5999C45.2462 66.7309 43.9237 67.4627 42.5237 67.7953C40.1166 68.3664 37.4771 67.751 35.5404 65.927C32.4748 63.0385 32.3309 58.2095 35.2139 55.1381C37.0345 53.1976 39.6297 52.427 42.07 52.8483C43.4921 53.0923 44.8589 53.7465 45.9822 54.811C49.0423 57.6995 49.1917 62.5284 46.3087 65.5999Z" fill="#B3CFF9"/>
</g>
<path d="M25.4306 70.3845C19.6148 66.2319 20.0963 60.6933 20.0963 60.6933C22.2211 61.8964 24.3294 64.552 25.2978 66.8528C25.3587 68.1723 25.4029 69.4475 25.4306 70.3845Z" fill="#ED7D2B"/>
<path d="M31.1691 68.4939C31.5786 68.3997 31.8553 68.0892 31.9106 68.0338C31.9106 68.0338 32.0877 68.0448 31.883 68.4218C31.8664 68.4551 31.8276 68.5327 31.8 68.5882C31.7889 68.6103 31.8055 68.6381 31.8276 68.6381C32.0656 68.6547 32.3035 68.5604 32.7573 68.6602C32.8181 68.6713 32.8403 68.8266 32.8347 68.8876C32.8292 68.9984 32.8403 69.1204 32.713 69.2867C32.6411 69.3865 32.4363 69.4863 31.977 69.6748C31.8055 69.7469 31.3075 69.6914 30.8427 69.5307L30.4719 69.3588L30.5881 68.6658L30.6822 68.688C30.8316 68.7101 31.0142 68.5272 31.1691 68.4939Z" fill="#FFB27D"/>
<path d="M21.906 58.1208C21.906 58.1208 16.6823 59.1188 23.4443 66.6976C24.5233 67.9118 30.3668 69.4863 30.3668 69.4863C30.3668 69.4863 30.9589 68.9818 30.6601 68.5715C30.6601 68.5715 26.6372 65.6442 25.7518 65.1785C25.3534 64.9679 24.2079 60.5048 23.555 59.4293C22.9075 58.3592 21.906 58.1208 21.906 58.1208Z" fill="#F99746"/>
<path d="M31.9713 60.9483C31.9713 60.9483 32.1428 60.6212 32.176 60.4494C32.2092 60.2775 32.425 59.773 32.5135 59.6843C32.5467 59.651 32.6685 59.6954 32.6796 59.845C32.6851 59.9116 32.6519 60.0335 32.5966 60.1777C32.5025 60.4105 32.5191 60.7321 32.4859 60.8374C32.4084 61.098 31.9713 60.9483 31.9713 60.9483Z" fill="#FFB27D"/>
<path d="M34.0519 47.9584C33.9633 48.0581 33.9523 48.1746 33.9965 48.2965C34.0795 48.5239 34.3451 48.7733 34.6606 49.0228C34.6993 49.0561 34.738 49.0838 34.7657 49.1115C34.7712 49.1171 34.7823 49.1282 34.7878 49.1337C34.7934 49.1393 34.7989 49.1448 34.8044 49.1503C35.0977 49.4165 34.987 49.483 35.5072 50.0263C36.1048 50.6473 36.5143 50.6583 36.6305 50.6029C36.7301 50.553 36.5309 50.2259 36.304 49.8544C36.293 49.8378 36.2819 49.8212 36.2708 49.799C36.2432 49.7491 36.21 49.6992 36.1823 49.6493C35.9222 49.2058 35.9886 48.9951 36.0495 48.3298C36.0993 47.792 36.8851 45.3193 36.8851 45.3193L35.7451 45.1198C35.7451 45.1198 35.4021 47.0879 35.0202 47.3928C34.8155 47.5536 34.5886 47.5536 34.395 47.6756C34.3839 47.6867 34.3673 47.6922 34.3562 47.7033C34.2566 47.7809 34.1404 47.8586 34.0519 47.9584Z" fill="#FFB27D"/>
<path d="M34.0519 47.9584C33.9633 48.0582 33.9523 48.1746 33.9965 48.2966C34.0961 48.5239 34.3562 48.7734 34.6606 49.0229C34.6993 49.0561 34.7325 49.0839 34.7657 49.1116C34.7712 49.1171 34.7823 49.1282 34.7878 49.1338C34.7934 49.1393 34.7989 49.1448 34.8044 49.1504C35.0977 49.4165 34.987 49.483 35.5072 50.0264C36.1048 50.6473 36.5143 50.6584 36.6305 50.603C36.7301 50.5531 36.5309 50.226 36.304 49.8545C36.1878 49.8101 35.6511 49.5939 35.2416 49.0672C34.8985 48.6237 34.6606 48.0637 34.4282 47.7145C34.4005 47.7089 34.3894 47.7089 34.3617 47.7034C34.2566 47.781 34.1404 47.8586 34.0519 47.9584Z" fill="#233862"/>
<path d="M43.2652 47.2487C43.3372 47.6035 43.8407 47.5425 44.3996 47.4039C44.9585 47.2653 44.8257 47.4317 45.6281 47.343C46.4249 47.2543 46.6684 46.9549 46.696 46.8384C46.7182 46.7331 46.3253 46.6943 45.8992 46.6444C45.8439 46.6389 45.7941 46.6333 45.7387 46.6278C45.2629 46.5668 44.9087 46.2563 44.4771 46.0068C44.0676 45.7684 43.4534 44.7871 43.4534 44.7871L42.3577 44.8758C42.3577 44.8758 42.9332 45.7518 43.1546 46.1343C43.2874 46.3561 43.2763 46.6555 43.2597 46.8828C43.2486 46.9937 43.2376 47.1212 43.2652 47.2487Z" fill="#FFB27D"/>
<path d="M44.3996 47.404C44.9585 47.2654 44.8257 47.4317 45.6281 47.343C46.4249 47.2543 46.6684 46.9549 46.696 46.8385C46.7182 46.7331 46.3253 46.6943 45.8992 46.6444L45.8937 46.65C45.8937 46.65 45.4123 46.9881 44.7482 47.0048C44.2059 47.0159 43.6304 46.8606 43.2597 46.8662C43.2486 46.9881 43.2431 47.1157 43.2708 47.2432C43.3316 47.598 43.8352 47.5426 44.3996 47.404Z" fill="#233862"/>
<path d="M39.0653 40.2243L38.0416 42.9853L36.7024 46.589C36.7024 46.589 36.3372 46.6222 35.9941 46.5224C35.6732 46.4282 35.308 46.1898 35.308 46.1898C35.308 46.1898 35.6787 42.32 36.376 40.0968C36.553 39.5257 36.7522 39.0656 36.9736 38.805C38.0416 37.5354 39.0653 40.2243 39.0653 40.2243Z" fill="#233862"/>
<path d="M38.025 35.8389C37.4439 35.6504 35.9222 35.8334 34.2677 36.1327C33.8139 36.2159 33.3546 36.0052 33.1112 35.6116L28.9555 35.2845C28.9555 35.2845 27.5832 38.3282 28.3357 40.2687C28.4464 40.5514 28.6899 40.7344 29.0606 40.7399C29.0606 40.7399 31.5728 40.7455 32.3752 40.7455C34.4392 40.7455 36.7467 39.3262 37.0455 39.2652C37.5325 39.1654 37.7261 40.1467 38.2186 41.1724C38.7056 42.198 42.8059 45.7241 42.8059 45.7241C42.8059 45.7241 43.4368 45.7296 43.6968 45.6354C43.9791 45.53 44.0787 45.3914 44.0787 45.3914C44.0787 45.3914 39.5412 36.3268 38.025 35.8389Z" fill="#2A4E96"/>
<path d="M32.6796 23.3868C32.3697 23.2038 32.0709 23.1761 31.8883 23.1816C31.761 23.1872 31.6337 23.1761 31.5064 23.1594C29.9238 22.9266 28.9665 25.233 28.9112 25.9315C28.8061 27.2122 28.131 27.4063 27.1792 28.2102C25.2701 29.818 25.829 31.6863 26.8749 32.3793C27.5001 32.7952 28.6013 32.3793 28.6013 32.3793C28.6179 32.3904 31.6171 30.6995 33.1001 29.8845C35.308 29.5629 33.5705 23.919 32.6796 23.3868Z" fill="#233862"/>
<path d="M31.8551 29.1804C31.8606 29.1859 31.1246 29.4354 30.6377 29.2192C30.1784 29.0141 29.8242 28.2545 29.8353 28.2545C30.0456 28.2434 30.278 28.0605 30.4551 26.8519L30.5436 26.8851L32.0487 27.4285C32.0487 27.4285 31.9381 27.9108 31.8717 28.371C31.8052 28.7591 31.772 29.1305 31.8551 29.1804Z" fill="#FFB27D"/>
<path d="M32.0432 27.4285C32.0432 27.4285 31.9823 27.689 31.8938 28.1769C31.0306 28.0217 30.6598 27.3564 30.5381 26.8851L32.0432 27.4285Z" fill="#ED975D"/>
<path d="M32.2645 27.9052C32.2645 27.9052 30.2061 27.628 30.3997 26.3473C30.5934 25.0666 30.4551 24.1685 31.7776 24.2904C33.1001 24.4124 33.2827 24.9391 33.3214 25.3826C33.3602 25.8262 32.8068 27.944 32.2645 27.9052Z" fill="#FFB27D"/>
<path d="M33.2495 24.6841C33.2495 24.6841 31.9325 25.8206 31.0361 25.9149C30.1397 26.0036 29.8021 25.7153 29.8021 25.7153C29.8021 25.7153 30.3278 25.2773 30.6487 24.5676C30.7428 24.357 30.942 24.2128 31.1689 24.1962C31.8053 24.1407 33.0171 24.113 33.2495 24.6841Z" fill="#233862"/>
<path d="M32.425 24.5788C32.425 24.5788 32.8677 25.0057 33.006 25.3217C33.1388 25.6266 33.1776 26.3584 33.0724 26.6467C33.0724 26.6467 33.7586 25.3106 33.3713 24.6564C32.9562 23.9745 32.425 24.5788 32.425 24.5788Z" fill="#233862"/>
<path d="M33.5871 32.2185C33.5206 36.3933 33.5705 35.5228 33.1112 35.9165C33.0005 36.0107 32.6906 36.0662 32.2867 36.0939C31.0084 36.1771 28.7618 35.9664 28.6788 35.728C28.3855 34.9074 28.5903 34.6524 28.3468 33.3994C28.3191 33.2664 28.2914 33.1222 28.2527 32.967C28.048 32.1077 27.8488 31.8138 28.5737 30.4333C29.2321 29.1804 29.9183 28.1658 29.9792 28.199C31.7167 29.2358 31.8606 28.3654 31.8606 28.3654C31.8606 28.3654 33.6147 30.1838 33.5871 32.2185Z" fill="#F99746"/>
<path d="M38.0416 42.9853L36.7024 46.589C36.7024 46.589 36.3372 46.6222 35.9941 46.5225C35.6732 46.4282 35.308 46.1898 35.308 46.1898C35.308 46.1898 35.6787 42.32 36.376 40.0968L38.0416 42.9853Z" fill="#2A4E96"/>
<path d="M31.8606 28.3709C31.8606 28.3709 33.6535 28.6758 33.8582 29.4465C34.0685 30.2171 34.7602 34.9074 34.7602 34.9074C34.7602 34.9074 34.2566 35.4009 33.8361 34.9795C33.4155 34.5582 32.5135 30.5941 32.5135 30.5941L31.8606 28.3709Z" fill="#F99746"/>
<path d="M32.2867 36.0994C31.0084 36.1826 28.7618 35.9719 28.6788 35.7335C28.3855 34.913 28.5903 34.658 28.3468 33.405L28.961 31.6641C28.961 31.6641 28.8559 33.599 29.4258 34.1091C29.9958 34.6192 31.761 35.0904 32.0377 35.5173C32.1705 35.728 32.259 35.9331 32.2867 36.0994Z" fill="#ED7D2B"/>
<path d="M30.8203 35.2845C30.8203 35.2845 32.0819 35.0017 32.2867 35.1181C32.4914 35.229 32.9894 35.6393 33.0503 35.7779C33.1112 35.922 32.5966 35.6726 32.4306 35.6227C32.3199 35.5949 32.0377 35.6947 31.8938 35.7391C31.2962 35.9387 30.9365 35.8333 30.9365 35.8333L30.8203 35.2845Z" fill="#FFB27D"/>
<path d="M29.9792 28.2046C29.9792 28.2046 28.2859 28.3099 27.6994 29.1249C26.8749 30.2781 25.2369 35.1902 26.1721 35.8444C27.229 36.5818 30.9752 36.0385 30.9752 36.0385C30.9752 36.0385 31.1025 35.4563 30.9254 35.1736C30.7539 34.8908 27.9318 34.4307 27.799 34.3031C27.6662 34.1701 29.4258 31.7584 29.4258 31.3703C29.4369 30.9767 29.9792 28.2046 29.9792 28.2046Z" fill="#F99746"/>
<path d="M32.3475 35.4674C32.3475 35.4674 32.6132 35.8105 32.6962 35.8492C32.7847 35.888 32.84 35.8824 32.84 35.8824L32.663 35.5615L32.3475 35.4674Z" fill="#FFB27D"/>
<path d="M32.2867 35.1126L33.0558 35.4834C33.0558 35.4834 33.0226 35.5387 32.9286 35.5332C32.8345 35.5276 32.5966 35.4391 32.5966 35.4391L32.2867 35.1126Z" fill="#FFB27D"/>
<path d="M38.8439 35.9941H30.8203V36.1712H38.772L38.8439 35.9941Z" fill="#233862"/>
<path d="M32.6962 36.1716H38.772L40.5981 31.6198H34.5333L32.6962 36.1716Z" fill="#233862"/>
<path d="M37.2392 33.8929C37.2835 33.7321 37.1949 33.6046 37.0345 33.6046C36.874 33.6046 36.708 33.7321 36.6637 33.8929C36.6194 34.0537 36.708 34.1812 36.8685 34.1812C37.0289 34.1867 37.1949 34.0537 37.2392 33.8929Z" fill="white"/>
<path d="M78.3424 53.3362C77.5234 53.0645 76.959 53.4083 76.959 53.4083C74.6017 53.5025 74.5132 55.9253 74.7899 56.8235C75.1772 58.0875 73.8049 59.0855 75.3266 59.5955C77.0974 60.1888 78.5804 59.4847 78.4752 59.7896C84.0752 60.2331 80.2017 53.9572 78.3424 53.3362Z" fill="#163560"/>
<path d="M75.9021 65.1009C75.9021 65.1009 75.6808 65.5444 75.2713 66.0545C74.7843 66.6699 72.2112 65.2118 72.4326 65.1009C72.6539 64.99 73.9432 61.2643 74.2531 60.7986C74.563 60.3329 75.6088 60.089 75.6088 60.089L75.9021 65.1009Z" fill="#F99746"/>
<path d="M84.5677 90.2269C84.5677 90.2269 85.276 90.8756 85.1376 91.3358C84.9993 91.7959 84.3574 92.1008 84.2744 92.6663C84.1858 93.2318 83.8428 93.5368 83.5329 93.5368C83.223 93.5368 82.0499 93.5368 82.0499 93.5368C82.0499 93.5368 81.823 93.1431 82.3764 93.0212C82.9297 92.8992 83.14 92.2394 83.1013 91.624C83.0681 91.0086 83.1511 90.1937 83.1511 90.1937L84.3242 89.922L84.5677 90.2269Z" fill="#1F447F"/>
<path d="M78.5693 90.5041C78.5693 90.5041 78.8238 93.2484 78.5139 93.4037L74.5298 93.3981C74.5298 93.3981 74.5298 92.938 75.1717 92.8326C75.8136 92.7328 76.9369 92.3558 77.125 91.5187C77.3132 90.6815 78.5693 90.5041 78.5693 90.5041Z" fill="#1C3154"/>
<path d="M81.6294 63.2491C81.6294 63.2491 81.6902 64.0863 81.6294 65.0953C81.5906 65.7606 80.9155 66.6532 80.8214 66.875C80.5835 67.4294 80.3124 67.5181 80.3124 67.5181L78.2207 68.0337L77.4847 68.2167L75.1662 67.5236C75.1662 67.5236 74.1093 64.5686 74.5353 62.9054C74.9614 61.2421 75.6088 60.089 75.6088 60.089C75.6088 60.089 77.1859 59.7341 79.9637 59.9337L81.6294 63.2491Z" fill="#F99746"/>
<path d="M81.8286 65.1175C81.7898 65.7828 80.9155 66.6532 80.8215 66.875C80.5835 67.4294 80.3124 67.5181 80.3124 67.5181L78.2207 68.0337L77.8444 66.9471C77.8444 66.9471 80.8989 66.1432 80.4064 63.3101L81.8286 65.1175Z" fill="#ED7D2B"/>
<path d="M75.3156 67.9672C75.3156 67.9672 74.1646 71.5487 74.0926 72.7684C74.0207 73.9881 76.2895 90.0883 76.378 90.6538C76.4665 91.186 77.1195 91.5187 77.1195 91.5187C77.1195 91.5187 77.4238 91.6961 77.8499 91.5741C78.4476 91.4078 78.6357 91.2026 78.6357 91.2026C78.6357 91.2026 79.5321 79.7207 78.9788 75.6181C78.4254 71.5154 78.4199 67.9672 78.4199 67.9672H75.3156Z" fill="url(#paint7_linear_371_4324)"/>
<path d="M80.1796 67.8619C80.1796 67.8619 81.9337 70.2181 82.0942 71.8093C82.2602 73.4005 82.3487 78.9945 82.6973 80.5469C83.0459 82.0992 84.3242 85.0875 84.3242 89.9275C84.3242 89.9275 84.1914 90.2048 83.7819 90.3544C83.6491 90.4043 83.4776 90.4487 83.306 90.4875C82.9685 90.5651 82.6199 90.3988 82.4649 90.0883C81.6017 88.3475 78.846 82.7202 78.7076 81.5559C78.608 80.7298 77.7393 75.2633 75.8412 72.0532C75.3875 71.2826 76.1179 68.2222 76.1179 68.2222L80.1796 67.8619Z" fill="#14336D"/>
<path d="M75.133 67.4183C75.133 67.4183 75.5923 67.7842 76.5108 67.8009C77.6065 67.8231 80.3179 67.5237 80.3179 67.5237C80.3179 67.5237 80.4396 67.8619 80.4341 68.2167C80.4341 68.2167 77.125 69.0539 75.2049 68.3387C75.1994 68.3331 74.9504 67.8674 75.133 67.4183Z" fill="#233862"/>
<path d="M76.2452 68.7434C75.9685 68.7434 75.7472 68.4883 75.7472 68.1779C75.7472 67.8674 75.9685 67.6124 76.2452 67.6124C76.5219 67.6124 76.7432 67.8674 76.7432 68.1779C76.7432 68.4883 76.5219 68.7434 76.2452 68.7434ZM76.2452 67.7787C76.0626 67.7787 75.9132 67.9561 75.9132 68.1779C75.9132 68.3996 76.0626 68.577 76.2452 68.577C76.4278 68.577 76.5772 68.3996 76.5772 68.1779C76.5772 67.9561 76.4278 67.7787 76.2452 67.7787Z" fill="white"/>
<path d="M78.6357 69.7746L73.661 69.8189L71.2152 64.053L76.1899 64.0087L78.6357 69.7746Z" fill="#B5453C"/>
<path d="M77.9883 67.1689L77.623 66.7198C77.623 66.7198 77.374 66.498 77.197 66.4592C77.0199 66.4204 76.6381 66.2042 76.6049 66.2652C76.5661 66.3261 76.8981 66.7641 76.8981 66.7641H76.9147C76.5385 67.0469 75.5922 66.7974 75.476 66.9138C75.3321 67.0524 75.6697 67.3574 75.8523 67.5237C76.0349 67.69 76.5495 67.9783 76.9535 67.8508C77.2468 67.7565 77.7116 67.6678 77.7116 67.6678L77.9883 67.1689Z" fill="#FFB27D"/>
<path d="M71.586 65.0676C71.586 65.0676 71.9014 64.7128 72.095 64.8846C72.2943 65.0565 72.0452 65.8937 71.8516 65.8105C71.6579 65.7273 71.4808 65.1729 71.586 65.0676Z" fill="#FFB27D"/>
<path d="M79.9637 59.9282C79.9637 59.9282 81.3859 60.0834 82.4096 61.9462C83.2175 63.4154 84.5953 66.121 84.0752 66.8805C83.8483 67.2187 81.657 68.4107 77.4404 67.7288C77.4404 67.7288 77.5068 67.1965 77.8499 66.947C77.8499 66.947 81.4025 65.8049 81.3969 65.5776C81.3859 65.1452 80.9155 64.7737 78.9345 62.7889C78.3867 62.2512 79.9637 59.9282 79.9637 59.9282Z" fill="#F99746"/>
<path d="M78.8681 60.0058C78.9179 59.9393 78.8515 59.7286 78.774 59.3405C78.7021 58.9857 78.5804 58.4424 78.5859 57.827L78.4808 57.8436L76.7156 58.143C76.7156 58.143 76.7543 58.6142 76.7543 59.0633C76.7543 59.0689 76.7543 59.0689 76.7543 59.0744C76.7543 59.4625 76.6492 60.0446 76.782 60.1222C77.4515 60.5103 78.68 60.2608 78.8681 60.0058Z" fill="#FFB27D"/>
<path d="M76.7155 58.1374C76.7155 58.1374 76.7487 58.8027 76.7543 59.2518C77.7448 59.2296 78.2705 58.2649 78.4807 57.8436L76.7155 58.1374Z" fill="#E8945B"/>
<path d="M76.6104 58.9358C76.6104 58.9358 78.9234 58.6031 78.6966 57.1672C78.4697 55.7313 78.6136 54.7111 77.125 54.8608C75.6365 55.0105 75.4373 55.6037 75.3986 56.1027C75.3598 56.6017 76.0017 58.9801 76.6104 58.9358Z" fill="#FFB27D"/>
<path d="M76.0681 54.9884C76.0681 54.9884 76.9701 56.5795 77.9772 56.6738C78.9843 56.768 79.3661 56.4409 79.3661 56.4409C79.3661 56.4409 78.5306 55.9697 78.2096 54.9607C78.2096 54.9607 76.4168 54.1124 76.0681 54.9884Z" fill="#163560"/>
<path d="M76.2507 55.1048C76.2507 55.1048 75.8081 55.3543 75.6697 55.7257C75.5369 56.0916 75.4428 56.5574 75.5701 57.1007C75.5701 57.1007 74.9116 56.0307 75.3432 55.2933C75.797 54.5116 76.2507 55.1048 76.2507 55.1048Z" fill="#163560"/>
<defs>
<linearGradient id="paint0_linear_371_4324" x1="63.4997" y1="116.2" x2="63.4997" y2="-10.7941" gradientUnits="userSpaceOnUse">
<stop stop-color="#FEFEFD"/>
<stop offset="1" stop-color="#EBF3FF"/>
</linearGradient>
<linearGradient id="paint1_linear_371_4324" x1="101.077" y1="61.2014" x2="104.443" y2="68.2894" gradientUnits="userSpaceOnUse">
<stop stop-color="#3162DF"/>
<stop offset="0.9649" stop-color="#173DB8"/>
</linearGradient>
<linearGradient id="paint2_linear_371_4324" x1="103.256" y1="87.8588" x2="108.666" y2="84.4815" gradientUnits="userSpaceOnUse">
<stop stop-color="#14336D"/>
<stop offset="0.9662" stop-color="#0E2253"/>
</linearGradient>
<linearGradient id="paint3_linear_371_4324" x1="104.584" y1="64.1448" x2="113.859" y2="71.3989" gradientUnits="userSpaceOnUse">
<stop stop-color="#3162DF"/>
<stop offset="0.9649" stop-color="#173DB8"/>
</linearGradient>
<linearGradient id="paint4_linear_371_4324" x1="108.051" y1="65.1371" x2="116.742" y2="70.5321" gradientUnits="userSpaceOnUse">
<stop stop-color="#3162DF"/>
<stop offset="0.9649" stop-color="#173DB8"/>
</linearGradient>
<linearGradient id="paint5_linear_371_4324" x1="33.8002" y1="43.8211" x2="34.0495" y2="48.5727" gradientUnits="userSpaceOnUse">
<stop stop-color="#3162DF"/>
<stop offset="0.9649" stop-color="#173DB8"/>
</linearGradient>
<linearGradient id="paint6_linear_371_4324" x1="17.1271" y1="87.5935" x2="23.3286" y2="81.8667" gradientUnits="userSpaceOnUse">
<stop stop-color="#14336D"/>
<stop offset="0.9662" stop-color="#0E2253"/>
</linearGradient>
<linearGradient id="paint7_linear_371_4324" x1="74.1121" y1="86.8798" x2="80.0596" y2="83.3267" gradientUnits="userSpaceOnUse">
<stop stop-color="#14336D"/>
<stop offset="0.9662" stop-color="#0E2253"/>
</linearGradient>
</defs>
</svg>
