<svg width="115" height="30" viewBox="0 0 115 30" fill="none" xmlns="http://www.w3.org/2000/svg">
<path d="M0 30H107C111.418 30 115 26.4183 115 22V0H26.9076C21.7095 0 16.882 2.69117 14.1487 7.11261L0 30Z" fill="url(#paint0_linear_575_1750)"/>
<circle cx="32" cy="14" r="8" fill="#647A93"/>
<line x1="28" y1="14.3751" x2="36" y2="14.3751" stroke="white" stroke-width="1.2"/>
<path d="M48.968 9.92V11.108H51.26V12.524H48.428V13.724H55.376V12.524H52.496V11.108H54.836V9.92H52.496V8.648H51.26V9.92H48.968ZM48.86 15.32V16.508H51.236V18.14H48.104V19.34H55.52V18.14H52.472V16.508H54.884V15.32H52.472V14.108H51.236V15.32H48.86ZM45.896 19.616C46.7 19.616 47.108 19.196 47.108 18.368V15.188C47.468 15.02 47.84 14.852 48.212 14.66V13.436C47.852 13.628 47.48 13.82 47.108 13.988V11.924H48.392V10.712H47.108V8.66H45.86V10.712H44.636V11.924H45.86V14.468C45.404 14.612 44.936 14.744 44.468 14.852L44.78 16.088C45.14 15.968 45.5 15.848 45.86 15.704V18.068C45.86 18.368 45.728 18.524 45.476 18.524C45.212 18.524 44.924 18.5 44.624 18.452L44.888 19.616H45.896ZM57.692 10.424V15.644H61.376V16.532H56.624V17.708H61.376V19.808H62.624V17.708H67.376V16.532H62.624V15.644H66.308V10.424H64.172C64.484 9.992 64.784 9.5 65.048 8.96L63.836 8.528C63.56 9.2 63.236 9.824 62.864 10.424H60.536L61.244 10.064C60.884 9.524 60.5 9.032 60.092 8.588L59.048 9.092C59.408 9.488 59.756 9.932 60.092 10.424H57.692ZM65.096 14.54H62.624V13.544H65.096V14.54ZM61.376 14.54H58.904V13.544H61.376V14.54ZM58.904 12.488V11.516H61.376V12.488H58.904ZM62.624 11.516H65.096V12.488H62.624V11.516ZM78.164 14.312V9.176H69.008V10.376H76.892V13.112H70.76V11.528H69.512V17.744C69.512 18.824 70.016 19.364 71.048 19.364H77.72C78.2 19.34 78.596 19.196 78.884 18.932C79.124 18.668 79.328 17.768 79.484 16.232L78.26 15.848C78.188 17.072 78.08 17.78 77.912 17.948C77.744 18.092 77.564 18.164 77.372 18.164H71.408C70.976 18.164 70.76 17.948 70.76 17.516V14.312H78.164ZM83.924 8.696L82.772 9.248C83.192 9.764 83.588 10.352 83.972 11H81.476V12.224H85.364V12.512C85.34 13.064 85.28 13.592 85.184 14.072H80.792V15.296H84.824C84.68 15.656 84.5 15.992 84.296 16.304C83.648 17.204 82.412 17.96 80.564 18.56L81.248 19.652C83.096 19.076 84.428 18.248 85.244 17.168C85.532 16.76 85.784 16.292 86 15.788C86.708 17.432 88.292 18.764 90.764 19.772L91.508 18.584C89.132 17.768 87.644 16.676 87.068 15.296H91.208V14.072H86.468C86.552 13.592 86.612 13.064 86.636 12.512V12.224H90.512V11H88.292C88.664 10.388 88.976 9.704 89.24 8.948L88.016 8.612C87.692 9.524 87.32 10.328 86.888 11H84.524L85.22 10.652C84.8 9.944 84.368 9.296 83.924 8.696ZM98.12 13.688C97.46 14.816 96.248 15.836 94.496 16.76L95.168 17.84C96.524 17 97.58 16.064 98.324 15.02V17.324C98.324 17.66 98.18 17.84 97.916 17.84C97.568 17.84 97.196 17.804 96.812 17.756L97.1 18.944H98.36C99.164 18.944 99.572 18.5 99.572 17.636V13.688H101.108V12.464H99.572V10.916H98.324V12.464H94.88V13.688H98.12ZM101.564 19.652C102.512 19.652 102.992 19.184 102.992 18.272V9.14H97.304V10.292H101.768V17.936C101.768 18.32 101.612 18.512 101.312 18.512L100.268 18.476L100.604 19.652H101.564ZM92.996 10.64V19.76H94.22V10.64H92.996ZM95.12 8.528L93.98 9.032C94.508 9.668 95 10.4 95.444 11.228L96.572 10.64C96.152 9.872 95.672 9.164 95.12 8.528Z" fill="#727E95"/>
<defs>
<linearGradient id="paint0_linear_575_1750" x1="-1.19494" y1="15" x2="115" y2="15" gradientUnits="userSpaceOnUse">
<stop stop-color="#85A5C5" stop-opacity="0.35"/>
<stop offset="1" stop-color="#4F8FCE" stop-opacity="0.06"/>
</linearGradient>
</defs>
</svg>
