<svg width="20" height="20" viewBox="0 0 20 20" fill="none" xmlns="http://www.w3.org/2000/svg">
<path d="M7.49992 2.5H5.83325C5.83325 1.08333 6.91659 0 8.33325 0V1.66667C7.83325 1.66667 7.49992 2 7.49992 2.5Z" fill="#294F75"/>
<path d="M14.1667 2.5H12.5001C12.5001 2 12.1667 1.66667 11.6667 1.66667V0C13.0834 0 14.1667 1.08333 14.1667 2.5Z" fill="#294F75"/>
<path d="M14.1666 5H5.83325V2.5H7.49992V3.33333H12.4999V2.5H14.1666V5Z" fill="#294F75"/>
<path d="M8.33325 0H11.6666V1.66667H8.33325V0Z" fill="#294F75"/>
<path d="M17.5001 4.99992H2.50008C2.00008 4.99992 1.66675 4.66659 1.66675 4.16659C1.66675 3.66659 2.00008 3.33325 2.50008 3.33325H17.5001C18.0001 3.33325 18.3334 3.66659 18.3334 4.16659C18.3334 4.66659 18.0001 4.99992 17.5001 4.99992Z" fill="#294F75"/>
<path d="M15.8333 20.0001H4.16659C3.66659 20.0001 3.33325 19.6667 3.33325 19.1667V7.50008C3.33325 7.00008 3.66659 6.66675 4.16659 6.66675H15.8333C16.3333 6.66675 16.6666 7.00008 16.6666 7.50008V19.1667C16.6666 19.6667 16.3333 20.0001 15.8333 20.0001ZM4.99992 18.3334H14.9999V8.33341H4.99992V18.3334Z" fill="#294F75"/>
<path d="M8.33333 16.6667C7.83333 16.6667 7.5 16.3333 7.5 15.8333V10.8333C7.5 10.3333 7.83333 10 8.33333 10C8.83333 10 9.16667 10.3333 9.16667 10.8333V15.8333C9.16667 16.3333 8.83333 16.6667 8.33333 16.6667Z" fill="#294F75"/>
<path d="M11.6666 16.6667C11.1666 16.6667 10.8333 16.3333 10.8333 15.8333V10.8333C10.8333 10.3333 11.1666 10 11.6666 10C12.1666 10 12.4999 10.3333 12.4999 10.8333V15.8333C12.4999 16.3333 12.1666 16.6667 11.6666 16.6667Z" fill="#294F75"/>
</svg>
