<svg width="42" height="42" viewBox="0 0 42 42" fill="none" xmlns="http://www.w3.org/2000/svg">
<g clip-path="url(#clip0_461_13453)">
<rect width="42" height="42" rx="21" fill="#17AB4C"/>
<path d="M26.6242 16.8661C23.9433 17.0056 21.6131 17.8186 19.7201 19.6546C17.807 21.5092 16.9342 23.7822 17.1733 26.5999C16.1252 26.4698 15.1713 26.3276 14.2121 26.2466C13.88 26.2187 13.4868 26.2585 13.2065 26.4166C12.2752 26.9427 11.3811 27.5365 10.3223 28.1981C10.5163 27.3187 10.6425 26.5495 10.8657 25.8095C11.0291 25.2648 10.9534 24.9632 10.4525 24.6085C7.23492 22.3368 5.87853 18.9372 6.89349 15.4366C7.83141 12.1991 10.1377 10.2343 13.2716 9.21134C17.5493 7.81377 22.3558 9.23924 24.957 12.6349C25.8949 13.8611 26.4714 15.2387 26.6242 16.8661ZM14.2865 15.7754C14.3118 15.1351 13.7565 14.5585 13.0975 14.5386C12.4227 14.5187 11.8687 15.0341 11.8488 15.6997C11.8288 16.3732 12.3443 16.9139 13.0231 16.9312C13.6967 16.9485 14.2613 16.4317 14.2865 15.7754ZM20.7231 14.5386C20.0615 14.5505 19.5035 15.1138 19.5141 15.7568C19.5261 16.4224 20.0748 16.9445 20.7549 16.9365C21.4365 16.9285 21.9546 16.4011 21.9479 15.7209C21.9426 15.054 21.3966 14.5266 20.7231 14.5386Z" fill="white"/>
<path d="M32.6461 33.5769C31.7972 33.1996 31.0187 32.6323 30.1897 32.546C29.3634 32.4596 28.4959 32.9365 27.6324 33.0242C25.0006 33.2939 22.6426 32.5606 20.699 30.7618C17.0018 27.3423 17.5305 22.0987 21.807 19.2956C25.6091 16.8047 31.1848 17.635 33.8643 21.0917C36.2038 24.1074 35.9288 28.1101 33.0725 30.6436C32.2462 31.3769 31.9486 31.98 32.4787 32.9472C32.5783 33.1265 32.589 33.3523 32.6461 33.5769ZM22.984 24.223C23.5247 24.223 23.9697 23.8005 23.9897 23.2664C24.0109 22.7018 23.5566 22.2276 22.9906 22.2249C22.43 22.2223 21.9611 22.7032 21.981 23.2598C21.9996 23.7925 22.4473 24.2216 22.984 24.223ZM29.2119 22.2276C28.6872 22.2236 28.2422 22.6527 28.2209 23.1828C28.1983 23.7487 28.638 24.215 29.1987 24.2163C29.7407 24.2176 30.1698 23.8085 30.1884 23.2691C30.211 22.7005 29.7699 22.2316 29.2119 22.2276Z" fill="white"/>
</g>
<defs>
<clipPath id="clip0_461_13453">
<rect width="42" height="42" fill="white"/>
</clipPath>
</defs>
</svg>
