<svg width="42" height="42" viewBox="0 0 42 42" fill="none" xmlns="http://www.w3.org/2000/svg">
<g clip-path="url(#clip0_461_13484)">
<rect width="42" height="42" rx="21" fill="#1677FF"/>
<path d="M12.722 31.0952C6.98883 31.0952 5.29384 26.5407 8.12717 24.0489C9.07266 23.2068 10.8004 22.7957 11.7215 22.7034C15.1271 22.364 18.2797 23.6743 22 25.5058C19.385 28.9462 16.0542 31.0952 12.722 31.0952ZM33.1057 25.8511C31.6311 25.3529 29.6524 24.5913 27.4484 23.7871C28.772 21.4665 29.8292 18.824 30.5241 15.952H23.2599V13.3132H32.1585V11.8404H23.2599V7.44152H19.6283C18.9912 7.44152 18.9912 8.0758 18.9912 8.0758V11.8404H9.99135V13.3132H18.9912V15.952H11.5607V17.4245H25.9721C25.4447 19.257 24.7366 20.9774 23.8962 22.5405C19.22 20.9844 14.23 19.7232 11.0952 20.4995C9.09042 20.9976 7.79925 21.8867 7.0407 22.8183C3.55916 27.0904 6.05622 33.5793 13.4088 33.5793C17.7561 33.5793 21.944 31.1349 25.1898 27.1064C30.0311 29.4534 39.6162 33.4833 39.6162 33.4833L40.9173 28.2187C40.9173 28.2187 38.4124 27.6432 33.1057 25.8511Z" fill="white"/>
</g>
<defs>
<clipPath id="clip0_461_13484">
<rect width="42" height="42" fill="white"/>
</clipPath>
</defs>
</svg>
