<svg fill="none" height="20" viewBox="0 0 21 20" width="21" xmlns="http://www.w3.org/2000/svg"><path clip-rule="evenodd" d="m10.5 20c5.5228 0 10-4.4772 10-10 0-5.52285-4.4772-10-10-10-5.52285 0-10 4.47715-10 10 0 5.5228 4.47715 10 10 10zm-1.27413-16.16772c0-.20571.16675-.37246.37245-.37246h2.84258c.229 0 .4038.20475.3678.43094l-1.3421 8.44134c-.0287.1808-.1847.3139-.3678.3139h-1.50048c-.2057 0-.37245-.1667-.37245-.3724zm-.17022 10.47192c.02621-.1835.18336-.3198.36871-.3198h1.49534c.2057 0 .3725.1667.3725.3724v1.8113c0 .2057-.1668.3724-.3725.3724h-1.75407c-.22665 0-.40076-.2007-.36871-.4251z" fill="#f2731d" fill-rule="evenodd"/></svg>