<svg width="26" height="26" viewBox="0 0 26 26" fill="none" xmlns="http://www.w3.org/2000/svg">
<path d="M13.113 20.5121C13.2342 20.5121 13.3574 20.5043 13.4814 20.4889C14.6711 20.339 15.6814 19.4666 16.0542 18.2644C16.0824 18.1745 16.0417 18.0782 15.9597 18.0386C15.8785 17.9989 15.7803 18.0333 15.7345 18.1139C15.7301 18.1216 15.2574 18.9226 13.4172 19.1833C13.1418 19.2221 12.8737 19.2425 12.6197 19.2425C11.3304 19.2416 10.7558 18.7318 10.7507 18.7271C10.6858 18.6666 10.5868 18.665 10.5202 18.724C10.4531 18.7829 10.4376 18.8854 10.4834 18.9638C11.0447 19.9184 12.0517 20.5121 13.113 20.5121ZM23.0076 8.54739C22.9913 8.54739 22.9765 8.55048 22.9612 8.55048C21.883 3.65314 17.763 0 12.8235 0C7.7481 0 3.53361 3.85497 2.59959 8.95491C1.69134 9.12637 1 9.96383 1 10.9768V15.0304C1 16.1666 1.86844 17.0878 2.94073 17.0878C3.54557 17.0878 4.07945 16.7882 4.43456 16.328C5.29271 18.7092 7.0397 20.6292 9.25057 21.6421C9.25587 21.63 9.2977 21.5446 9.34803 21.4766C9.38292 21.4294 9.42191 21.3908 9.45533 21.3908C9.4901 21.3908 9.52184 21.4039 9.54905 21.4241C9.03736 21.0244 7.18914 18.97 6.78877 16.103C6.61303 14.841 7.51398 13.6022 8.56323 13.3974C10.2477 13.0683 11.9233 12.6935 13.6078 12.3707C14.6785 12.1657 15.4103 11.5495 15.8578 10.5235C15.9626 10.2836 16.114 9.79857 16.1834 9.09923C16.2019 8.99522 16.2832 8.91536 16.3873 8.91536C16.4568 8.91536 16.5159 8.95256 16.555 9.00625L16.6015 8.97587C17.2653 9.98714 18.582 12.2262 18.7711 14.5872C18.9882 17.2866 18.8671 19.1353 16.8977 21.0268C16.8954 21.0291 16.8924 21.0321 16.8896 21.0346C16.8622 21.0655 16.846 21.1059 16.846 21.1501C16.846 21.2083 16.8755 21.258 16.9183 21.2882C16.9345 21.2953 16.9508 21.3046 16.9671 21.3117C16.9803 21.3148 16.993 21.3192 17.0062 21.3192C17.0196 21.3192 17.0314 21.3147 17.0432 21.3117C17.0712 21.2962 17.0978 21.2782 17.1251 21.2627C19.1168 20.1116 20.6446 18.1893 21.3506 15.8771C21.6364 16.3226 22.0838 16.6432 22.6037 16.755C21.77 20.7333 18.3879 23.2231 14.1979 23.6011C13.9468 22.9476 13.3287 22.4835 12.6028 22.4835C11.6547 22.4835 10.8858 23.2714 10.8858 24.2422C10.8858 25.2131 11.6545 26 12.6028 26C13.3671 26 14.0074 25.4848 14.2295 24.777C19.0798 24.3632 22.9678 21.3387 23.7794 16.6393C24.4965 16.3249 25 15.5868 25 14.7253V10.6237C25 9.47722 24.1079 8.54739 23.0076 8.54739ZM21.2184 9.72555C19.9533 6.13056 16.6753 3.56237 12.8191 3.56237C8.97901 3.56237 5.71282 6.10877 4.43609 9.68056C4.37249 9.59898 4.29807 9.52916 4.22492 9.45864C4.94777 5.10603 8.51825 1.79666 12.8235 1.79666C17.1081 1.79666 20.6674 5.0735 21.414 9.39575C21.3402 9.49976 21.2722 9.60837 21.2184 9.72555ZM9.25094 21.642H9.2506C9.24986 21.6439 9.24986 21.6442 9.25094 21.642Z" fill="url(#paint0_linear_543_7611)"/>
<defs>
<linearGradient id="paint0_linear_543_7611" x1="13" y1="0" x2="13" y2="26" gradientUnits="userSpaceOnUse">
<stop stop-color="#58ACFF"/>
<stop offset="1" stop-color="#0080FF"/>
</linearGradient>
</defs>
</svg>
