<?xml version="1.0" encoding="utf-8"?>
<!-- Generator: Adobe Illustrator 26.3.1, SVG Export Plug-In . SVG Version: 6.00 Build 0)  -->
<svg version="1.1" id="圖層_1" xmlns="http://www.w3.org/2000/svg" xmlns:xlink="http://www.w3.org/1999/xlink" x="0px" y="0px"
	 viewBox="0 0 358 180" style="enable-background:new 0 0 358 180;" xml:space="preserve">
<style type="text/css">
	.st0{fill:#FF831A;}
	.st1{fill:#0080FF;}
</style>
<g>
	<path class="st0" d="M102.1,0H12.7C2.6,0-3.5,11.3,2.1,19.7l103,154.6c5,7.5,16.1,7.5,21.1,0L179,95.1l-55.8-83.8
		C118.5,4.2,110.6,0,102.1,0z"/>
	<path class="st1" d="M345.3,0h-89.4c-8.5,0-16.4,4.2-21.1,11.3l-34.7,52.1c-10,15-32.1,15-42.2,0L179,95.1l52.8,79.3
		c5,7.5,16.1,7.5,21.1,0l103-154.6C361.5,11.3,355.4,0,345.3,0L345.3,0z"/>
</g>
</svg>
