<svg width="25" height="24" viewBox="0 0 25 24" fill="none" xmlns="http://www.w3.org/2000/svg">
<path d="M17.375 19H19.375C20.4796 19 21.375 18.1046 21.375 17V7.3679C21.375 6.7989 21.1326 6.25683 20.7086 5.87742L16.9445 2.50952C16.5777 2.18141 16.1029 2 15.6109 2H8.375C7.27043 2 6.375 2.89543 6.375 4V5.57895" stroke="#008BEF" stroke-width="1.5"/>
<path d="M5.375 22H15.375C16.4796 22 17.375 21.1046 17.375 20V9.5648C17.375 8.99352 17.1307 8.44952 16.7037 8.06998L14.9433 6.50518C14.5772 6.17976 14.1044 6 13.6146 6H5.375C4.27043 6 3.375 6.89543 3.375 8V20C3.375 21.1046 4.27043 22 5.375 22Z" stroke="#008BEF" stroke-width="1.5" stroke-linejoin="round"/>
<path d="M8.375 12H12.375" stroke="#008BEF" stroke-width="1.5" stroke-linecap="round"/>
<path d="M8.375 16H10.375" stroke="#008BEF" stroke-width="1.5" stroke-linecap="round"/>
</svg>
