<svg width="24" height="24" viewBox="0 0 24 24" fill="none" xmlns="http://www.w3.org/2000/svg">
<path d="M5 22H15C16.1046 22 17 21.1046 17 20V9.5648C17 8.99352 16.7557 8.44952 16.3287 8.06998L14.5683 6.50518C14.2022 6.17976 13.7294 6 13.2396 6H5C3.89543 6 3 6.89543 3 8V20C3 21.1046 3.89543 22 5 22Z" stroke="#67727A" stroke-width="1.5"/>
<path d="M17 19H19C20.1046 19 21 18.1046 21 17V7.3679C21 6.7989 20.7576 6.25683 20.3336 5.87742L16.5695 2.50952C16.2027 2.18141 15.7279 2 15.2359 2H8C6.89543 2 6 2.89543 6 4V5.57895" stroke="#67727A" stroke-width="1.5"/>
<path d="M8 12H12" stroke="#67727A" stroke-width="1.5" stroke-linecap="round"/>
<path d="M8 16H10" stroke="#67727A" stroke-width="1.5" stroke-linecap="round"/>
</svg>
