<svg fill="none" height="19" viewBox="0 0 16 19" width="16" xmlns="http://www.w3.org/2000/svg"><path d="m15.5405 2.15451c-3.6333 0-7.24118-2.06527-7.27942-2.0907672-.07649-.0382458-.15298-.0637428-.22948-.0637428-.07649 0-.16573.025497-.22947.0637428-.03825.0254972-3.73533 2.0907672-7.330433 2.0907672-.254971 0-.471697.21673-.471697.4717v6.57827c0 2.91942 1.37685 5.43092 3.97756 7.25392 1.93778 1.3641 3.85007 1.8613 3.92656 1.8741.03824.0127.07649.0127.11474.0127.03824 0 .07649 0 .11473-.0127.07649-.0255 1.97601-.5227 3.91381-1.8996 2.588-1.8358 3.9521-4.3345 3.9521-7.24117v-6.56552c.0127-.25497-.204-.4717-.459-.4717z" fill="#ebebeb"/><path d="m7.02452 14.0974c-.04637 0-.09132-.0092-.13283-.027-.08006-.0347-.14376-.1002-.18092-.186s-.04562-.187-.02403-.2873l.67938-3.1955h-2.35555c-.07267.0001-.14141-.0221-.19882-.0642-.05742-.0421-.10134-.1026-.12707-.1748-.02572-.0723-.03227-.1537-.01894-.2355.01333-.08177.04604-.16082.09461-.22865l3.7736-5.31845c.05958-.08323.13993-.14529.22831-.17632s.17972-.02925.25951.00505c.07662.03369.13817.09572.17556.1769.03738.08118.0486.17718.032.27381l-.682 3.21811h2.35557c.0727-.00012.1414.02207.1988.06418.0574.0421.1013.10255.1271.17484.0257.07228.0322.15368.0189.23545s-.046.16081-.0946.22865l-3.77359 5.31843c-.0438.0612-.09908.1113-.16097.1458-.0619.0346-.12853.0526-.19402.0525z" fill="#f90"/></svg>