<svg fill="none" height="25" viewBox="0 0 59 25" width="59" xmlns="http://www.w3.org/2000/svg"><g fill="#294f75"><path d="m0 12.5c0-6.90356 5.59644-12.5 12.5-12.5h46.5v25h-46.5c-6.90356 0-12.5-5.5964-12.5-12.5z" fill-opacity=".15"/><path d="m23.011 12.463v-5.564h-9.919v1.3h8.541v2.964h-6.643v-1.716h-1.352v6.734c0 1.17.546 1.755 1.664 1.755h7.228c.52-.026.949-.182 1.261-.468.26-.286.481-1.261.65-2.925l-1.326-.416c-.078 1.326-.195 2.093-.377 2.275-.182.156-.377.234-.585.234h-6.461c-.468 0-.702-.234-.702-.702v-3.471zm14.105-4.901h-4.927c-.13-.455-.273-.871-.416-1.248l-1.547.26c.156.299.299.624.429.988h-4.797v3.133h1.365v-1.82h8.528v1.82h1.365zm-9.347 2.457v1.3h7.41v-1.3zm-1.976 2.405v1.313h3.367c-.052.897-.312 1.625-.793 2.197-.481.52-1.417.949-2.808 1.3l.78 1.222c1.43-.39 2.457-.949 3.094-1.651.65-.767 1.014-1.794 1.079-3.068h1.859v2.847c0 1.066.468 1.599 1.404 1.599h2.275c.429 0 .754-.13.962-.364.234-.247.39-1.04.481-2.366l-1.287-.403c-.026.884-.078 1.417-.13 1.586-.065.169-.156.26-.286.26h-1.599c-.312 0-.468-.195-.468-.585v-2.574h3.497v-1.313zm22.074-6.214-.858.819c.507.39.923.78 1.248 1.144h-1.833c-.026-.598-.039-1.222-.039-1.885h-1.378c0 .65 0 1.287.026 1.885h-5.356v4.329c-.039 2.106-.455 3.757-1.261 4.94l1.027.923c1.001-1.469 1.534-3.406 1.599-5.824h1.833c-.026 1.326-.065 2.145-.143 2.444-.065.26-.208.39-.416.403-.364 0-.793-.026-1.313-.065l.416 1.235c.39.039.741.065 1.053.065.702-.013 1.157-.286 1.365-.832.221-.598.351-2.106.39-4.524h-3.185v-1.807h4.056c.104 1.56.286 2.873.572 3.913.143.533.299 1.027.481 1.482-.858 1.04-1.898 1.833-3.12 2.379l.78 1.144c1.118-.494 2.106-1.209 2.964-2.145.156.286.338.546.52.78.637.767 1.235 1.157 1.807 1.157.65 0 1.131-.923 1.469-2.756l-1.222-.663c-.169 1.248-.325 1.872-.455 1.872-.195 0-.481-.286-.845-.845-.13-.195-.26-.429-.377-.689.793-1.157 1.443-2.561 1.95-4.212l-1.235-.533c-.338 1.17-.767 2.223-1.287 3.133-.052-.182-.104-.351-.143-.533-.208-.806-.364-1.976-.468-3.484h3.822v-1.287h-1.547l.598-.611c-.416-.455-.91-.91-1.495-1.352z"/></g></svg>