<svg fill="none" height="25" viewBox="0 0 59 25" width="59" xmlns="http://www.w3.org/2000/svg"><g fill="#f2731d"><path d="m0 12.5c0-6.90356 5.59644-12.5 12.5-12.5h46.5v25h-46.5c-6.90356 0-12.5-5.5964-12.5-12.5z" fill-opacity=".2"/><path d="m13.82 6.431-.936.884c.936.754 1.651 1.456 2.145 2.106l.975-.962c-.598-.676-1.326-1.352-2.184-2.028zm7.397 11.713h2.977l.325-1.339c-.351.026-.858.052-1.521.078-.676 0-1.326.013-1.976.013-.988 0-1.859-.013-2.6-.026-.754-.026-1.313-.13-1.69-.325-.299-.169-.598-.429-.884-.767l-.13-.13v-4.953h-2.977v1.248h1.716v3.562c-.52.286-1.092.949-1.742 1.989l1.001.923c.65-1.17 1.092-1.742 1.339-1.742.156 0 .312.104.481.325.377.442.819.741 1.339.897.546.13 1.222.208 2.054.221.819.013 1.586.026 2.288.026zm-4.498-9.906v1.261h1.378v.884c0 .468-.026.897-.078 1.313h-1.755v1.274h1.495c-.286.975-.767 1.703-1.443 2.197l.819 1.079c.949-.715 1.599-1.807 1.963-3.276h1.95v3.458h1.326v-3.458h1.911v-1.274h-1.911v-2.197h1.495v-1.261h-1.495v-1.911h-1.326v1.911h-1.638v-1.937h-1.313v1.937zm2.691 1.261h1.638v2.197h-1.729c.052-.507.091-1.053.091-1.625zm11.024-2.496v1.339h6.396v-1.339zm-.312 3.224v1.339h3.887v5.109c0 .26-.182.39-.533.39-.546 0-1.118-.039-1.716-.091l.299 1.326h1.885c.962 0 1.443-.429 1.443-1.287v-5.447h2.002v-1.339zm-1.95-3.835c-.598 1.183-1.508 2.21-2.73 3.081l.416 1.365c1.677-1.157 2.86-2.444 3.549-3.861zm.611 2.99c-.702 1.378-1.781 2.587-3.237 3.601l.416 1.339c.494-.351.975-.715 1.417-1.079v5.109h1.339v-6.448c.52-.624.949-1.274 1.287-1.95zm15.015-3.12v2.223h-4.602v6.344h1.365v-.715h3.237v4.342h1.404v-4.342h3.25v.715h1.365v-6.344h-4.615v-2.223zm-3.237 6.526v-2.977h3.237v2.977zm4.641 0v-2.977h3.25v2.977z"/></g></svg>