<svg width="30" height="30" viewBox="0 0 30 30" fill="none" xmlns="http://www.w3.org/2000/svg">
<path fill-rule="evenodd" clip-rule="evenodd" d="M27.8714 10.7831C27.8714 9.53437 26.8591 8.52207 25.6104 8.52207H6.39158C5.76721 8.52207 5.26106 8.01592 5.26106 7.39155C5.26106 6.76718 5.76721 6.26103 6.39158 6.26103L25.6104 6.26104C25.6104 5.0123 24.5981 4 23.3494 4H5.26107C4.01233 4 3.00003 5.0123 3.00003 6.26103V10.7831V24.3493C3.00003 25.598 4.01233 26.6103 5.26106 26.6103H25.6104C26.8591 26.6103 27.8714 25.598 27.8714 24.3493V10.7831Z" fill="url(#paint0_linear_461_13800)"/>
<path d="M18.8819 22.0883C18.8819 21.4639 19.388 20.9578 20.0124 20.9578H23.3493C23.9737 20.9578 24.4798 21.4639 24.4798 22.0883C24.4798 22.7126 23.9737 23.2188 23.3493 23.2188H20.0124C19.388 23.2188 18.8819 22.7126 18.8819 22.0883Z" fill="white"/>
<defs>
<linearGradient id="paint0_linear_461_13800" x1="15.4357" y1="4" x2="15.4357" y2="26.6103" gradientUnits="userSpaceOnUse">
<stop stop-color="#5ECAA2"/>
<stop offset="1" stop-color="#3CB78E"/>
</linearGradient>
</defs>
</svg>
