<svg width="18" height="18" viewBox="0 0 18 18" fill="none" xmlns="http://www.w3.org/2000/svg">
<path fill-rule="evenodd" clip-rule="evenodd" d="M4.62061 1.41455C3.97609 1.41455 3.45361 1.93703 3.45361 2.58154V15.4184C3.45361 16.063 3.97609 16.5854 4.62061 16.5854L13.3794 16.5854C14.0239 16.5854 14.5464 16.063 14.5464 15.4184V2.58154C14.5464 1.93703 14.0239 1.41455 13.3794 1.41455L4.62061 1.41455ZM13.3794 2.58154L4.62061 2.58154L4.62061 13.264L13.3794 13.264V2.58154ZM8.90817 15.7763C9.38411 15.7763 9.76994 15.3905 9.76994 14.9146C9.76994 14.4386 9.38411 14.0528 8.90817 14.0528C8.43222 14.0528 8.04639 14.4386 8.04639 14.9146C8.04639 15.3905 8.43222 15.7763 8.90817 15.7763Z" fill="#008BEF"/>
<path d="M7.1629 8.05436L8.52439 9.41585L11.2474 6.69287" stroke="#008BEF" stroke-width="0.816894" stroke-linecap="round" stroke-linejoin="round"/>
</svg>
