<svg width="31" height="30" viewBox="0 0 31 30" fill="none" xmlns="http://www.w3.org/2000/svg">
<path d="M14.3208 1.67292C15.0421 1.25652 15.9307 1.25652 16.6519 1.67292L26.4334 7.32027C27.1546 7.73667 27.5989 8.50622 27.5989 9.33903V20.6337C27.5989 21.4665 27.1546 22.2361 26.4334 22.6525L16.6519 28.2998C15.9307 28.7162 15.0421 28.7162 14.3208 28.2998L4.53935 22.6525C3.81812 22.2361 3.37382 21.4665 3.37382 20.6337V9.33903C3.37382 8.50622 3.81812 7.73667 4.53935 7.32027L14.3208 1.67292Z" fill="url(#paint0_linear_461_13806)"/>
<path fill-rule="evenodd" clip-rule="evenodd" d="M15.4863 6.82764C12.9115 6.82764 10.8242 8.91494 10.8242 11.4898C10.8242 13.6621 12.3099 15.4875 14.3207 16.005L14.3207 21.9795C14.3207 22.6233 14.8426 23.1451 15.4863 23.1451C16.13 23.1451 16.6518 22.6233 16.6518 21.9795L16.6518 20.814H17.8173C18.461 20.814 18.9829 20.2922 18.9829 19.6485C18.9829 19.0048 18.461 18.483 17.8173 18.483H16.6518L16.6518 16.005C18.6626 15.4875 20.1484 13.6621 20.1484 11.4898C20.1484 8.91494 18.0611 6.82764 15.4863 6.82764ZM15.4878 13.8208L15.4863 13.8208C14.1989 13.8208 13.1552 12.7772 13.1552 11.4898C13.1552 10.2024 14.1989 9.1587 15.4863 9.1587C16.7737 9.1587 17.8173 10.2024 17.8173 11.4898C17.8173 12.7767 16.7745 13.82 15.4878 13.8208Z" fill="white"/>
<defs>
<linearGradient id="paint0_linear_461_13806" x1="15.4864" y1="1" x2="15.4864" y2="28.9728" gradientUnits="userSpaceOnUse">
<stop stop-color="#EA9A59"/>
<stop offset="1" stop-color="#E7792E"/>
</linearGradient>
</defs>
</svg>
