<svg width="30" height="30" viewBox="0 0 30 30" fill="none" xmlns="http://www.w3.org/2000/svg">
<path fill-rule="evenodd" clip-rule="evenodd" d="M8.34166 4C8.01386 4 7.74814 4.26573 7.74814 4.59352C7.74814 4.92131 8.01386 5.18704 8.34166 5.18704H21.3991C21.7269 5.18704 21.9927 4.92131 21.9927 4.59352C21.9927 4.26573 21.7269 4 21.3991 4H8.34166ZM5.37404 6.96761C5.37404 6.63981 5.63977 6.37408 5.96757 6.37408H23.7732C24.101 6.37408 24.3667 6.63981 24.3667 6.96761C24.3667 7.2954 24.101 7.56113 23.7732 7.56113H5.96757C5.63977 7.56113 5.37404 7.2954 5.37404 6.96761ZM2.99997 11.1223C2.99997 9.81108 4.06288 8.74817 5.37406 8.74817H24.3668C25.6779 8.74817 26.7408 9.81108 26.7408 11.1223V24.1797C26.7408 25.4909 25.6779 26.5538 24.3668 26.5538H5.37406C4.06289 26.5538 2.99997 25.4909 2.99997 24.1797V11.1223Z" fill="url(#paint0_linear_461_13825)"/>
<path d="M14.8704 20.6187L18.4315 17.0575" stroke="white" stroke-width="1.78056" stroke-linecap="round"/>
<path d="M11.3093 17.0575L14.8704 20.6187" stroke="white" stroke-width="1.78056" stroke-linecap="round"/>
<path d="M14.8704 13.4964L14.8704 20.6187" stroke="white" stroke-width="1.78056" stroke-linecap="round"/>
<defs>
<linearGradient id="paint0_linear_461_13825" x1="12.4963" y1="0.530183" x2="12.4963" y2="26.5538" gradientUnits="userSpaceOnUse">
<stop stop-color="#F5D25C"/>
<stop offset="1" stop-color="#E4B126"/>
</linearGradient>
</defs>
</svg>
