<svg width="31" height="30" viewBox="0 0 31 30" fill="none" xmlns="http://www.w3.org/2000/svg">
<path d="M16.0468 27.2911C16.046 27.2911 16.0459 27.2923 16.0467 27.2925L18.6588 27.9343C19.5722 28.1599 20.519 27.8102 21.076 27.0429L22.68 24.854C22.9027 24.5493 23.1812 24.3124 23.5154 24.1431L25.9214 22.9246C26.7568 22.5071 27.2692 21.6157 27.2024 20.6679L27.0353 17.9487C27.013 17.5764 27.0798 17.204 27.2246 16.8655L28.3051 14.3607C28.6838 13.4919 28.5056 12.4877 27.8596 11.7994L25.9994 9.82485C25.7432 9.55406 25.5538 9.22684 25.4536 8.86578L24.6961 6.2481C24.4288 5.33416 23.6602 4.67974 22.7245 4.57819L20.0512 4.27355C19.6836 4.22842 19.3383 4.1043 19.0264 3.90121L16.7875 2.38927C16.0078 1.87024 14.9941 1.87024 14.2144 2.38927L11.9755 3.90121C11.6636 4.1043 11.3183 4.2397 10.9507 4.27355L8.27739 4.57819C7.35286 4.67974 6.57314 5.34545 6.3058 6.2481L5.54836 8.86578C5.44811 9.22684 5.25875 9.55406 5.00255 9.82485L3.14236 11.7994C2.4963 12.4877 2.31808 13.4919 2.6968 14.3607L3.77727 16.8655C3.92208 17.204 3.98891 17.5764 3.96664 17.9487L3.79955 20.6679C3.74386 21.6157 4.24511 22.5071 5.08052 22.9246L7.48653 24.1431C7.82069 24.3124 8.09916 24.5493 8.32194 24.854L9.92594 27.0429C10.4829 27.8102 11.4297 28.1599 12.3431 27.9343L14.9607 27.2911C15.3154 27.2013 15.6921 27.2009 16.047 27.2898C16.0478 27.29 16.0476 27.2911 16.0468 27.2911Z" fill="url(#paint0_linear_461_13794)"/>
<path d="M20.5715 12.6582L19.2458 11.3325L12.4532 18.1251L13.7789 19.4508L20.5715 12.6582Z" fill="white"/>
<path d="M11.1387 14.1375L9.81302 15.4631L13.79 19.4401L15.1156 18.1144L11.1387 14.1375Z" fill="white"/>
<defs>
<linearGradient id="paint0_linear_461_13794" x1="15.501" y1="2" x2="15.501" y2="28.0019" gradientUnits="userSpaceOnUse">
<stop stop-color="#FF998A"/>
<stop offset="1" stop-color="#E44032"/>
</linearGradient>
</defs>
</svg>
