<svg width="31" height="30" viewBox="0 0 31 30" fill="none" xmlns="http://www.w3.org/2000/svg">
<path d="M26.1868 5.14526C20.8827 5.14526 15.6158 2.13028 15.5599 2.09305C15.4483 2.03722 15.3366 2 15.2249 2C15.1133 2 14.983 2.03722 14.8899 2.09305C14.8341 2.13028 9.4369 5.14526 4.18861 5.14526C3.81639 5.14526 3.5 5.46164 3.5 5.83386V15.4371C3.5 19.699 5.50999 23.3654 9.30663 26.0268C12.1355 28.0182 14.9271 28.744 15.0388 28.7626C15.0946 28.7812 15.1505 28.7812 15.2063 28.7812C15.2621 28.7812 15.318 28.7812 15.3738 28.7626C15.4855 28.7254 18.2585 27.9995 21.0874 25.9896C24.8654 23.3096 26.8568 19.6618 26.8568 15.4185V5.83386C26.8754 5.46164 26.559 5.14526 26.1868 5.14526Z" fill="url(#paint0_linear_461_13824)"/>
<path d="M13.7552 22.5798C13.6875 22.5797 13.6219 22.5663 13.5613 22.5403C13.4445 22.4897 13.3515 22.394 13.2972 22.2688C13.243 22.1435 13.2306 21.9958 13.2621 21.8494L14.2539 17.1844H10.8152C10.7091 17.1846 10.6087 17.1522 10.5249 17.0907C10.4411 17.0292 10.377 16.941 10.3394 16.8355C10.3019 16.7299 10.2923 16.6111 10.3118 16.4917C10.3312 16.3724 10.379 16.257 10.4499 16.1579L15.9588 8.39382C16.0457 8.27232 16.1631 8.18173 16.2921 8.13643C16.4211 8.09113 16.5544 8.09372 16.6709 8.14379C16.7828 8.19298 16.8726 8.28353 16.9272 8.40204C16.9818 8.52054 16.9982 8.6607 16.9739 8.80177L15.9783 13.4997H19.4171C19.5231 13.4995 19.6235 13.5319 19.7073 13.5934C19.7911 13.6549 19.8553 13.7431 19.8928 13.8486C19.9304 13.9542 19.9399 14.073 19.9205 14.1924C19.901 14.3117 19.8532 14.4271 19.7823 14.5262L14.2735 22.2903C14.2095 22.3796 14.1288 22.4527 14.0385 22.5032C13.9481 22.5536 13.8508 22.58 13.7552 22.5798Z" fill="white"/>
<defs>
<linearGradient id="paint0_linear_461_13824" x1="15.1788" y1="2" x2="15.1788" y2="28.7812" gradientUnits="userSpaceOnUse">
<stop stop-color="#6DB2FF"/>
<stop offset="1" stop-color="#1973D0"/>
</linearGradient>
</defs>
</svg>
