<svg width="31" height="30" viewBox="0 0 31 30" fill="none" xmlns="http://www.w3.org/2000/svg">
<path fill-rule="evenodd" clip-rule="evenodd" d="M8.84176 4C8.51397 4 8.24824 4.26573 8.24824 4.59352C8.24824 4.92131 8.51396 5.18704 8.84176 5.18704H21.8992C22.227 5.18704 22.4928 4.92131 22.4928 4.59352C22.4928 4.26573 22.227 4 21.8992 4H8.84176ZM5.87415 6.96761C5.87415 6.63981 6.13988 6.37408 6.46767 6.37408H24.2733C24.6011 6.37408 24.8669 6.63981 24.8669 6.96761C24.8669 7.2954 24.6011 7.56113 24.2733 7.56113H6.46767C6.13988 7.56113 5.87415 7.2954 5.87415 6.96761ZM3.50006 11.1223C3.50006 9.81108 4.56298 8.74817 5.87415 8.74817H24.8668C26.178 8.74817 27.2409 9.81108 27.2409 11.1223V24.1797C27.2409 25.4909 26.178 26.5538 24.8668 26.5538H5.87415C4.56298 26.5538 3.50006 25.4909 3.50006 24.1797V11.1223Z" fill="url(#paint0_linear_461_13826)"/>
<path d="M15.3705 13.4963L11.8094 17.0575" stroke="white" stroke-width="1.78056" stroke-linecap="round"/>
<path d="M18.9316 17.0575L15.3705 13.4963" stroke="white" stroke-width="1.78056" stroke-linecap="round"/>
<path d="M15.3705 20.6186L15.3705 13.4963" stroke="white" stroke-width="1.78056" stroke-linecap="round"/>
<defs>
<linearGradient id="paint0_linear_461_13826" x1="15.3705" y1="4" x2="15.3705" y2="26.5538" gradientUnits="userSpaceOnUse">
<stop stop-color="#FF998A"/>
<stop offset="1" stop-color="#E44032"/>
</linearGradient>
</defs>
</svg>
