<svg width="18" height="18" viewBox="0 0 18 18" fill="none" xmlns="http://www.w3.org/2000/svg">
<path d="M8.4934 0.736787C8.55606 0.661807 8.63458 0.601674 8.72331 0.560732C8.81203 0.519789 8.90874 0.499057 9.00645 0.500033C9.10416 0.501009 9.20043 0.523668 9.28832 0.566375C9.37621 0.609081 9.45352 0.67077 9.51467 0.746987C10.2061 1.61016 12.5441 2.70453 15.6461 3.07853C15.9763 3.11848 16.225 3.39728 16.225 3.72878V11.1522C16.2249 11.7046 16.0873 12.2482 15.8246 12.7341C13.9767 16.1549 11.4259 17.5 8.99064 17.5L8.86059 17.4979C6.4908 17.4299 3.98799 16.0886 2.17537 12.7341C1.9372 12.2924 1.80153 11.8027 1.77842 11.3014L1.77502 11.1522V3.72878C1.77502 3.39728 2.02365 3.11848 2.35387 3.07853C5.39048 2.7126 7.71438 1.63863 8.43475 0.807337L8.4934 0.736787Z" fill="#008BEF"/>
<ellipse cx="8.99997" cy="6.52151" rx="1.85989" ry="1.85989" fill="white"/>
<path fill-rule="evenodd" clip-rule="evenodd" d="M12.5767 13.0311C12.5767 11.0557 10.9753 9.45435 8.99997 9.45435C7.0246 9.45435 5.42325 11.0557 5.42325 13.0311H12.5767Z" fill="white"/>
</svg>
